<svg xmlns="http://www.w3.org/2000/svg" width="249.032" height="60" viewBox="0 0 249.032 60"><defs><style>.a{fill:#1a1311;}.b{fill:#aea6a0;}.c{fill:#e54600;}</style></defs><g transform="translate(-24.111)"><path class="a" d="M310.164,47.465V58.2h7.805V56.413h-5.5V47.465Z" transform="translate(-149.382 -38.003)"/><rect class="a" width="2.305" height="10.74" transform="translate(170.329 9.462)"/><path class="a" d="M345.1,58.2h2.745L343.97,52.59l3.561-5.126h-2.507l-2.341,3.558-2.26-3.558h-2.664l3.576,5.109L337.459,58.2h2.569l2.563-3.847Z" transform="translate(-163.168 -38.002)"/><rect class="a" width="2.306" height="10.74" transform="translate(186.321 9.462)"/><path class="a" d="M371.983,47.465V58.2h7.806V56.413h-5.5V47.465Z" transform="translate(-180.605 -38.003)"/><g transform="translate(24.111 0)"><path class="a" d="M526.533,45.932a1.569,1.569,0,0,0-3.135,0h-7.31v1.663h6.6v.595c0,3.713-1.47,6.181-5.383,7.01v1.473c4.722-.484,7.657-3.392,7.657-8.483V47.45a1.542,1.542,0,0,0,1.567-1.518m-1.572.782a.781.781,0,1,1,.807-.779.793.793,0,0,1-.807.779" transform="translate(-277.5 -36.462)"/><path class="a" d="M469.633,50.841c-.064,4.482-2.38,7.014-7.589,7.245v1.833c6.186-.316,9.311-2.972,9.311-9.078Z" transform="translate(-250.204 -39.708)"/><rect class="a" width="4.985" height="1.783" transform="translate(211.84 9.47)"/><rect class="a" width="4.985" height="1.781" transform="translate(211.84 12.658)"/><path class="a" d="M506.571,53l0,1.594c0,3.273-.966,4.57-4.219,5.1v1.312c4.41-.406,6.07-2.545,6.07-6.436V53Z" transform="translate(-270.562 -40.797)"/><rect class="a" width="1.725" height="3.71" transform="translate(230.717 12.2)"/><rect class="a" width="1.725" height="3.71" transform="translate(233.338 12.2)"/><path class="a" d="M483.512,53v1.391h4.5V56.2h-4.223v1.4h4.223v2.029h-4.568v1.38h6.423V53h-6.353Z" transform="translate(-261.012 -40.797)"/><path class="a" d="M422.114,48.732v-2.08H420.53v2.08h-.59V48.5h-2.19V48.01a15.738,15.738,0,0,0,1.843-.221V46.5a27.139,27.139,0,0,1-5.46.41v1.212c.584.015,1.337,0,2.1-.026v.4h-2.224V49.6h2.224v.45H414.3v4.158h1.939v.482h-1.922v1.1h1.922v.6c-.844.036-1.655.057-2.256.058V57.74c1.587-.024,4.367-.2,5.682-.36v.326c1.691-.882,2.451-2.584,2.451-6.071V50.324h.806v4.54c0,.973-.3,1.361-.949,1.361h-.2v1.483h.588c1.36,0,2.049-.79,2.049-2.448V48.732Zm-4.364.873h1.88v.45h-1.88Zm0,1.447h.662v.584h-.662Zm.661,2.165h-.662v-.584h.662Zm-2.835-2.165h.662v.584h-.662Zm0,1.581h.662v.584h-.662Zm4.954-1.267c0,2.539-.021,3.756-.877,4.621l0,.166c-.5.064-1.175.12-1.905.167V55.8h1.922v-1.1H417.75v-.482h1.94v-3.89h.84Z" transform="translate(-225.929 -37.515)"/><path class="a" d="M400.331,53.284A14.192,14.192,0,0,1,396,50.142a9.492,9.492,0,0,0,.586-1h3.689V47.455H389.72v1.687h4.419a10.735,10.735,0,0,1-4.537,4.55v1.564a14.636,14.636,0,0,0,4.442-2.857v5.8h1.906V52.228a14.783,14.783,0,0,0,4.382,2.907Z" transform="translate(-213.615 -37.998)"/><path class="a" d="M447.709,51.083V49.652h-2.352l.173-.859h1.808V47.361h-3.855v-.552H441.8v.552h-3.853v1.432h1.808l.173.859H437.7V52.9c0,1.544-.017,2.4-.557,3.2v1.766c1.369-.853,2.142-2.068,2.142-4.657V51.083h.824v.284a2.2,2.2,0,0,1-.512,1.788V54.6a3.1,3.1,0,0,0,1.473-1.323h1.622v.877h-2.338v1.308h2.338v.812h-3.58v1.4h8.483v-1.4h-3.207v-.812h2.381V54.156h-2.381v-.877h2.776V51.892h-2.776v-.809Zm-6.273-2.29h2.411l-.173.859h-2.065Zm1.256,3.1h-1.173a4.779,4.779,0,0,0,.036-.591v-.217h1.137Z" transform="translate(-237.627 -37.671)"/><path class="a" d="M237.862,56.394V53.513H243.4V51.805h-5.538V49.243h5.984V47.449H235.56v10.74h8.392V56.394Z" transform="translate(-135.812 -37.994)"/><path class="a" d="M265.547,57.868a1.959,1.959,0,0,1-.4-.972A8.474,8.474,0,0,1,265,55.271a2.964,2.964,0,0,0-.175-1.086,2.195,2.195,0,0,0-.448-.722,1.753,1.753,0,0,0-.595-.413l-.046-.018a2.367,2.367,0,0,0,.622-.446,2.863,2.863,0,0,0,.578-.839,3.05,3.05,0,0,0,.249-1.307,2.7,2.7,0,0,0-.977-2.207,4.436,4.436,0,0,0-2.842-.783h-5.435v10.74h2.3v-4.32h2.641a2.955,2.955,0,0,1,1.017.147,1.223,1.223,0,0,1,.582.435,1.884,1.884,0,0,1,.305.779,6.885,6.885,0,0,1,.09,1.193c0,.257.013.581.04.855a1.815,1.815,0,0,0,.283.825l.056.087h2.61Zm-2.664-7.114a1.364,1.364,0,0,1-.411,1.1,1.913,1.913,0,0,1-1.276.368h-2.964V49.308h2.933a4.191,4.191,0,0,1,.684.055,1.433,1.433,0,0,1,.543.2,1,1,0,0,1,.356.411,1.653,1.653,0,0,1,.134.722Z" transform="translate(-146.101 -37.995)"/><path class="a" d="M285.053,58.189h2.475l-4.384-10.74h-2.3l-4.369,10.74h2.4l1.049-2.8h4.1Zm-4.515-4.446,1.439-3.837,1.425,3.837Z" transform="translate(-156.477 -37.995)"/><path class="a" d="M509.162,98.1c-.161,11.195-5.944,17.518-18.955,18.1v4.576c15.451-.789,23.254-7.422,23.254-22.672Z" transform="translate(-264.429 -63.576)"/><rect class="a" width="12.452" height="4.452" transform="translate(225.778 30.367)"/><path class="a" d="M391.067,93.368h-5.412V88.026h-4.543v5.342h-9.353V88.026h-4.543v5.342h-5.379v4.149h5.379v8.4h4.543v-8.4h9.353V98.1c0,7.989-2.276,12.424-12.593,13.8v3.784c12.233-.973,17.137-5.81,17.137-16.962v-1.2h5.412Z" transform="translate(-199.592 -58.489)"/><path class="a" d="M427.829,116.534h25.414V92.461H427.829Zm20.871-4.149H432.372V96.61H448.7Z" transform="translate(-232.923 -60.729)"/><path class="a" d="M261.239,115.746h14.274V89.075H261.239Zm10.434-18.769h-6.594V92.488h6.594Zm0,7.483h-6.594v-4.1h6.594Zm-6.594,3.384h6.594v4.489h-6.594Z" transform="translate(-148.782 -59.019)"/><path class="a" d="M244.123,87.216h-4.291V92.2H235.56v3.919h4.268a25.379,25.379,0,0,1-4.268,8.908v4.037a19.365,19.365,0,0,0,4.271-5.076v11.288h4.291V102.052a18.244,18.244,0,0,0,3.554,3.637v-4.711a19.91,19.91,0,0,1-3.554-4.844v-.016h3.554V92.2h-3.554Z" transform="translate(-135.812 -58.08)"/><path class="a" d="M320.8,128.942v2.93c4.82-.761,7.245-2.386,7.245-11.752h-3.392c-.009,4.641-.275,7.383-3.853,8.822" transform="translate(-178.863 -74.699)"/><path class="a" d="M345.859,123.878h-2.825v.6c0,.742-.03,2.671-.119,3.265a.486.486,0,0,1-.534.478h-.736c-.5,0-.593-.033-.593-.6V120.12h-3.726v8.962c0,.712,0,2.523,2.137,2.523h4.089c2.286,0,2.286-2.2,2.315-6.351Z" transform="translate(-187.211 -74.699)"/><path class="a" d="M306.5,103.062l.231.747h1.9v.937h3.215V102.42h9.586v2.326h3.328v-5.71H308.638v2.1l-1.027-3.322h-2.729l.665,2.15h-2.678l5.362-8.149v.819h6.548v2.036h-6.548v3.145h17.155V94.672H318.51V92.636h6.876V89.491H318.51V87.216h-3.731v2.276h-6.548V90.7H305.4l-3,4.554-.972-1,4.37-6.641h-3.444l-2.981,4.53-.672-.689L297,94.043l3.689,3.814L299.3,99.966h-2.463v3.1h4.418v12.183h3.731V103.062Z" transform="translate(-166.763 -58.08)"/><path class="a" d="M317.614,128.766a29.824,29.824,0,0,0-.533-6.129h-2.6a26.878,26.878,0,0,1,.484,6.129Z" transform="translate(-175.672 -75.971)"/><path class="a" d="M296.545,130.661H299.5c.643-1.665.95-4.1.956-8.024h-2.673c-.009,3.659-.405,6.257-1.237,8.024" transform="translate(-166.614 -75.971)"/><path class="b" d="M36.894,88.222a2.692,2.692,0,0,1-.543-.037,2.918,2.918,0,0,1-.558-.073c-.171-.073-.283-.255-.435-.36a2.775,2.775,0,0,1-.44-.326,2.852,2.852,0,0,1-.386-.4,2.919,2.919,0,0,1-.3-.48,3.137,3.137,0,0,1-.053-.566,2.883,2.883,0,0,1-.112-.545c0-.27.038-.27.038-.541s.05-.271.05-.541-.015-.271-.015-.542-.056-.271-.056-.541-.019-.271-.019-.541.088-.271.088-.541-.009-.27-.009-.541-.036-.271-.036-.541.008-.271.008-.542-.041-.271-.041-.541.05-.271.05-.542v-.541c0-.271.017-.271.017-.541s.015-.271.015-.541,0-.271,0-.542-.054-.271-.054-.542-.048-.271-.048-.541-.032-.271-.032-.542.062-.271.062-.541.044-.271.044-.542-.085-.271-.085-.542,0-.271,0-.542.018-.271.018-.542.052-.271.052-.541-.08-.271-.08-.542.032-.271.032-.542.089-.271.089-.542-.126-.271-.126-.542-.005-.271-.005-.542.124-.271.124-.542-.013-.27-.013-.541-.046-.271-.046-.542-.024-.271-.024-.541.035-.271.035-.541-.025-.271-.025-.542,0-.271,0-.542-.047-.271-.047-.542.1-.271.1-.542,0-.271,0-.542-.024-.271-.024-.542.023-.271.023-.542.025-.271.025-.542-.109-.271-.109-.542-.023-.271-.023-.542.01-.271.01-.542.06-.272.06-.543.041-.272.041-.543.02-.272.02-.543-.033-.272-.033-.544-.057-.272-.057-.544a2.947,2.947,0,0,1,.149-.542,1.977,1.977,0,0,1,.3-1.072c.1-.155.3-.24.428-.373.191-.194.21-.174.4-.368s.193-.191.383-.385.166-.217.356-.41.194-.189.384-.383.124-.258.314-.451.271-.114.46-.307.124-.258.314-.452.239-.145.429-.338.2-.188.385-.382.137-.246.327-.439.209-.175.4-.368.2-.187.387-.381.221-.164.411-.357.108-.275.3-.469l.381-.387c.191-.193.25-.135.44-.328s.141-.242.331-.436.2-.181.393-.374.264-.121.454-.314.183-.2.373-.394.2-.185.389-.378.095-.288.285-.481.218-.166.409-.36.243-.142.433-.336.16-.223.35-.416.161-.223.351-.416.183-.2.373-.394.266-.119.456-.312.113-.269.3-.462.185-.2.375-.393.253-.132.443-.326.176-.208.366-.4.164-.219.355-.412.2-.18.394-.373.181-.2.371-.4.2-.186.389-.38.2-.189.386-.383.16-.223.351-.416.223-.161.414-.355.214-.171.4-.364.178-.206.368-.4.186-.2.376-.392.141-.242.331-.436.2-.181.392-.374.172-.211.362-.4.225-.159.415-.352.192-.193.382-.386.249-.136.44-.33.189-.194.38-.388.127-.255.317-.449.2-.183.391-.377.226-.159.416-.353.172-.212.362-.406.211-.173.4-.367.143-.241.334-.434.2-.182.394-.376.166-.217.357-.411.177-.208.368-.4.257-.129.447-.322.148-.237.339-.43.244-.143.434-.337.168-.216.359-.41.135-.249.326-.443.268-.117.458-.311.109-.275.3-.469.193-.193.384-.387.244-.142.435-.336.164-.221.355-.415.237-.149.429-.344.188-.2.379-.392A2.788,2.788,0,0,1,62,28.886a2.724,2.724,0,0,1,.475-.274,2.766,2.766,0,0,1,.516-.2,2.834,2.834,0,0,1,.555-.027,2.921,2.921,0,0,1,.559.006,2.876,2.876,0,0,1,.544.149,2.9,2.9,0,0,1,.451.337,2.8,2.8,0,0,1,.438.337c.19.193.142.241.332.433s.193.19.383.383.223.16.413.353.242.142.433.335.162.221.352.414.2.182.391.374.193.191.383.384.2.181.393.374.16.223.35.416.179.205.369.4.231.152.422.346.164.219.355.412.184.2.374.393.228.156.419.349.148.235.339.428.21.173.4.366.151.232.342.425.214.171.4.365.131.252.322.446.283.1.474.3.1.286.29.48.236.149.427.343a2.875,2.875,0,0,1,.36.426,2.911,2.911,0,0,1,.292.482,2.95,2.95,0,0,1,.146.545,3,3,0,0,1-.015.56,3.026,3.026,0,0,1,.022.561,2.914,2.914,0,0,1-.217.517,3.623,3.623,0,0,1-.6.924,2.776,2.776,0,0,1-.441.32c-.153.1-.258.3-.427.37a2.976,2.976,0,0,1-.561.054,2.88,2.88,0,0,1-.539.162,2.841,2.841,0,0,1-.548-.116,2.681,2.681,0,0,1-.5-.221,2.607,2.607,0,0,1-.484-.241c-.15-.1-.37-.131-.5-.264-.188-.191-.111-.266-.3-.456s-.2-.178-.388-.369-.228-.151-.416-.342-.137-.241-.324-.432-.192-.187-.38-.377-.222-.157-.41-.347-.193-.187-.381-.377-.134-.243-.322-.435-.237-.143-.424-.334-.181-.2-.369-.389-.178-.2-.365-.39-.244-.135-.433-.326-.13-.248-.318-.439-.193-.186-.381-.377-.19-.19-.378-.381-.165-.214-.354-.406-.136-.314-.4-.314-.2.136-.393.328-.194.188-.382.38-.185.2-.374.388-.165.216-.354.408-.189.193-.378.385-.167.214-.356.406-.174.207-.363.4-.224.157-.413.349-.181.2-.37.392-.189.193-.377.385-.187.195-.376.387-.159.221-.348.413-.227.155-.416.347-.2.185-.386.377-.181.2-.37.393-.183.2-.372.392-.2.184-.387.376-.206.175-.4.367-.228.154-.417.346-.11.27-.3.462l-.379.384c-.189.192-.261.122-.45.314s-.192.19-.381.383-.2.185-.386.377-.166.216-.355.408-.184.2-.373.39-.13.25-.319.443-.233.149-.422.341-.216.166-.405.359-.118.262-.307.455-.243.14-.432.333-.152.229-.341.421-.233.149-.422.341-.169.213-.358.405-.144.238-.333.43-.268.115-.457.307-.124.256-.313.448-.244.137-.433.329-.148.233-.337.425-.17.211-.36.4-.278.105-.467.3-.162.219-.351.411-.177.2-.366.4-.151.23-.34.422-.242.141-.431.334-.167.214-.357.407-.187.195-.376.388-.185.2-.374.389-.242.141-.431.334-.115.265-.3.458-.191.192-.38.384-.232.151-.421.344-.221.161-.411.354-.119.262-.308.455l-.38.385c-.19.193-.178.2-.367.4s-.207.175-.4.367-.18.2-.369.4-.238.146-.427.339-.2.185-.388.377-.173.21-.363.4-.194.191-.384.384a.887.887,0,0,0-.3.43.915.915,0,0,0-.1.522c0,.275.1.275.1.549s0,.275,0,.549-.08.275-.08.549-.041.274-.041.548.124.274.124.548-.1.274-.1.548-.01.275-.01.549.1.274.1.549-.121.274-.121.548.1.274.1.549.03.274.03.548-.13.275-.13.549.107.274.107.549-.067.274-.067.549.1.274.1.549-.124.274-.124.549.1.275.1.549.019.275.019.549-.108.275-.108.549-.019.275-.019.549.04.275.04.549.082.274.082.548-.07.275-.07.549-.059.275-.059.549.041.274.041.548.066.274.066.549-.07.275-.07.549-.009.274-.009.548.055.275.055.549.007.275.007.549.036.275.036.549-.091.275-.091.549.025.275.025.549.019.275.019.55-.058.275-.058.55.032.274.032.549,0,.275,0,.55-.013.275-.013.55.1.275.1.55-.021.275-.021.551-.188.308,0,.505.221.062.488.062.268-.047.535-.047.268-.017.535-.017.267.013.534.013.267.034.535.034.267.011.535.011.267.049.534.049.268-.04.535-.04.267-.072.535-.072.267.014.535.014.268.094.536.094.267-.066.535-.066.268.045.535.045.267-.059.535-.059.268-.037.536-.037.268-.008.536-.008.267.013.535.013.267.072.535.072.268-.067.536-.067.268.1.535.1.268-.073.536-.073.269-.014.537-.014.269-.032.537-.032c.175,0,.341.125.508.155a3.148,3.148,0,0,1,.526.04c.163.06.281.22.429.307a3.153,3.153,0,0,1,.482.22c.131.112.162.324.271.458s.275.227.357.38a2.905,2.905,0,0,1,.124.506c.052.162.207.3.229.479a3.086,3.086,0,0,1,.018.619,3.038,3.038,0,0,1-.128.6,2.985,2.985,0,0,1-.314.527,1.28,1.28,0,0,1-.789.871,2.754,2.754,0,0,1-.488.325,2.85,2.85,0,0,1-.541.264,2.855,2.855,0,0,1-.6-.034c-.271,0-.271.12-.542.12s-.271-.052-.542-.052-.271.049-.542.049-.271-.122-.542-.122-.271.12-.542.12-.271-.122-.542-.122-.271.059-.542.059-.272.06-.543.06-.271-.077-.541-.077-.271.088-.542.088-.271-.1-.542-.1-.271.1-.541.1-.271-.027-.542-.027-.271-.1-.542-.1-.271-.013-.542-.013-.271.1-.543.1-.271-.013-.542-.013-.272.029-.543.029-.272,0-.543,0-.271-.078-.543-.078-.272.05-.543.05-.271.03-.542.03-.271-.025-.542-.025-.272.013-.543.013-.272-.067-.543-.067-.272,0-.544,0a4.663,4.663,0,0,1-.544.026,4.672,4.672,0,0,0-.545-.058" transform="translate(-34.016 -28.359)"/><path class="c" d="M146.823,58.324c0,.271.075.271.075.541s-.1.271-.1.542.018.271.018.542-.015.271-.015.541.021.271.021.541.052.27.052.541-.059.271-.059.541.105.27.105.541-.006.271-.006.541-.114.271-.114.542.107.271.107.542-.04.271-.04.541-.028.271-.028.541.013.271.013.541.034.271.034.541-.028.271-.028.542-.03.271-.03.542.061.271.061.541-.007.271-.007.542-.028.271-.028.541.045.271.045.542.008.271.008.541-.06.271-.06.542.077.271.077.542-.1.271-.1.542.068.271.068.542-.09.271-.09.542.022.271.022.542,0,.271,0,.542-.007.271-.007.542.058.271.058.541-.077.271-.077.542.134.271.134.542-.093.271-.093.541-.039.271-.039.541.039.271.039.542-.029.271-.029.541.09.271.09.542-.022.271-.022.542-.083.272-.083.543.069.271.069.542-.04.271-.04.542.108.272.108.543-.053.271-.053.541-.01.271-.01.542-.008.271-.008.543.013.271.013.543-.034.272-.034.543.075.272.075.544-.075.272-.075.544a3.159,3.159,0,0,1,.037.565,2.959,2.959,0,0,1-.21.525,2.991,2.991,0,0,1-.22.52c-.1.155-.317.221-.446.353a2.893,2.893,0,0,1-.369.417,2.84,2.84,0,0,1-.485.279,2.8,2.8,0,0,1-.549.1,2.667,2.667,0,0,1-.544.038c-.272,0-.272-.009-.543-.009s-.272.021-.543.021-.272.055-.543.055-.272-.057-.543-.057-.272.083-.543.083-.272-.078-.544-.078-.272.049-.543.049-.272.024-.544.024h-.543c-.272,0-.272-.085-.544-.085s-.272.034-.543.034-.272.062-.544.062-.272-.074-.543-.074-.272.031-.544.031-.272.05-.543.05-.272-.054-.543-.054-.272-.016-.544-.016-.272.087-.543.087-.272-.062-.544-.062-.272.012-.544.012-.272.058-.543.058-.272-.127-.544-.127-.272-.014-.544-.014-.272.037-.543.037-.272-.029-.544-.029-.272.112-.543.112-.272-.01-.544-.01-.272-.023-.544-.023-.272.049-.544.049-.272-.126-.543-.126-.272.059-.543.059-.271-.021-.543-.021-.272,0-.543,0-.271.052-.543.052-.271-.071-.543-.071-.271.093-.542.093-.272-.015-.543-.015-.272-.054-.543-.054-.272-.012-.543-.012-.272.087-.543.087-.272-.122-.544-.122-.272.017-.544.017-.272.06-.543.06-.272-.075-.543-.075-.272.059-.543.059-.272.021-.543.021-.272.011-.543.011-.272.032-.543.032-.272-.079-.544-.079-.272-.046-.544-.046-.272.077-.544.077-.272.027-.544.027-.272-.05-.543-.05-.272-.052-.544-.052-.272.114-.543.114-.272-.065-.543-.065-.272-.024-.544-.024-.272.069-.544.069-.272-.032-.544-.032-.272-.02-.544-.02-.272,0-.543,0-.272.024-.544.024-.272.027-.544.027-.272-.053-.544-.053l-.544,0c-.272,0-.272.039-.544.039s-.272-.02-.544-.02-.272-.043-.544-.043-.272,0-.544,0-.272.023-.544.023-.272.025-.544.025-.272.058-.544.058-.272-.033-.545-.033-.272.013-.544.013-.272-.047-.544-.047-.272.052-.544.052-.272-.019-.544-.019-.272.019-.545.019-.272-.067-.543-.067-.272-.04-.544-.04-.272.019-.544.019-.272.109-.544.109h-.544c-.272,0-.272-.027-.545-.027s-.272-.046-.544-.046-.272-.005-.545-.005-.272.058-.544.058H96.2c-.272,0-.272-.068-.544-.068s-.273-.02-.545-.02-.273-.018-.545-.018-.273.1-.545.1-.273-.011-.545-.011-.272-.063-.545-.063-.273.055-.545.055-.273.052-.545.052-.273-.022-.546-.022-.273-.113-.546-.113a2.523,2.523,0,0,1-1.089-.139,2.815,2.815,0,0,1-.49-.267,2.884,2.884,0,0,1-.442-.345,2.931,2.931,0,0,1-.357-.436,2.652,2.652,0,0,1-.456-1.6c0-.275.041-.275.041-.55s-.077-.275-.077-.55.072-.275.072-.55,0-.275,0-.55,0-.275,0-.55-.026-.275-.026-.55,0-.275,0-.55.054-.275.054-.55-.074-.275-.074-.549S88,80.2,88,79.921s-.1-.275-.1-.55.057-.275.057-.549-.049-.275-.049-.55-.027-.275-.027-.55,0-.275,0-.55.012-.275.012-.55.054-.275.054-.55.03-.275.03-.551v-.55c0-.275-.077-.275-.077-.55s.006-.276.006-.551-.006-.275-.006-.551.03-.275.03-.55.085-.275.085-.551-.018-.275-.018-.551-.1-.276-.1-.551.1-.276.1-.552-.078-.276-.078-.552A3.116,3.116,0,0,1,88,69.451a3.158,3.158,0,0,1,.1-.558,3.087,3.087,0,0,1,.3-.485,2.981,2.981,0,0,1,.346-.44,2.825,2.825,0,0,1,.448-.329,2.715,2.715,0,0,1,.451-.322,2.673,2.673,0,0,1,.517-.224,2.749,2.749,0,0,1,.563.026,2.81,2.81,0,0,1,.543.049,2.868,2.868,0,0,1,.552.082,2.725,2.725,0,0,1,.448.334c.153.1.381.121.513.256a1.462,1.462,0,0,1,.523.992,2.884,2.884,0,0,1,.213.516,2.938,2.938,0,0,1,.047.558c0,.275-.061.275-.061.55s.07.275.07.55-.021.275-.021.55.076.274.076.549-.03.275-.03.55-.091.275-.091.55.058.275.058.549.029.275.029.55.033.275.033.55-.063.275-.063.549.064.275.064.55-.007.275-.007.55-.018.275-.018.55-.113.275-.113.55.086.275.086.55.023.275.023.551.012.275.012.551-.094.275-.094.55-.006.275-.006.551.077.275.077.551-.023.275-.023.551,0,.276,0,.552-.223.384-.03.581.3.039.571.039.271-.1.541-.1.271.049.542.049.271-.042.541-.042.271-.028.541-.028.271.034.541.034.271.074.542.074.271-.1.541-.1.271.1.542.1.271-.063.542-.063.271-.03.542-.03.271.011.541.011.271.081.542.081.271-.075.541-.075.271.059.541.059.271-.1.542-.1.271.066.542.066.271.018.542.018.271-.1.541-.1.271.027.541.027.271.028.541.028.271.063.541.063.271,0,.541,0,.27-.021.541-.021.27-.1.54-.1.271,0,.541,0,.27.1.541.1.271.022.541.022.271.014.541.014.271-.03.541-.03.271-.076.542-.076.271.082.542.082.271-.11.541-.11.271.1.541.1.271-.027.541-.027.27.036.541.036.271.022.541.022.271-.068.541-.068.271-.033.542-.033.271.016.541.016.271.041.542.041.271.047.542.047.271-.072.542-.072.271.073.541.073.271-.04.541-.04.271-.048.541-.048.271.075.542.075.271-.126.542-.126.271.084.542.084.271,0,.542,0h.542c.271,0,.271-.036.542-.036s.271.026.542.026.271-.079.542-.079.271.008.542.008.271.076.542.076.271.031.542.031.271.024.542.024.271-.064.542-.064.271.033.542.033.271-.012.542-.012.271.01.542.01.271,0,.542,0,.271-.089.542-.089.271.072.542.072.271.042.542.042.271-.1.542-.1.271.093.542.093.271-.022.541-.022.271-.025.542-.025.271-.057.542-.057.271.03.541.03.271-.04.542-.04.271.09.542.09.271-.059.542-.059.272-.033.543-.033.271.067.542.067.272-.017.543-.017.271.01.542.01.272-.031.543-.031.272.063.543.063.271.008.542.008.271-.01.542-.01.272-.073.543-.073.272.043.543.043.272.061.543.061h.544c.272,0,.344.126.536-.067s.023-.266.023-.54-.067-.275-.067-.549.051-.275.051-.549.061-.274.061-.548,0-.274,0-.548-.086-.274-.086-.548-.018-.274-.018-.549.031-.274.031-.549-.029-.274-.029-.549,0-.274,0-.548.049-.274.049-.548-.006-.275-.006-.549-.038-.275-.038-.549.1-.274.1-.548-.112-.275-.112-.549.073-.275.073-.549.021-.275.021-.549,0-.274,0-.549.021-.274.021-.549-.022-.274-.022-.549-.086-.275-.086-.549-.022-.275-.022-.549.041-.274.041-.548.082-.275.082-.549-.084-.274-.084-.549.055-.274.055-.548-.036-.274-.036-.548.043-.275.043-.549-.007-.274-.007-.549.036-.275.036-.549-.126-.274-.126-.549.074-.275.074-.549-.02-.275-.02-.549-.005-.275-.005-.549.032-.275.032-.55-.067-.275-.067-.55.069-.274.069-.549-.022-.275-.022-.55.042-.275.042-.549.027-.275.027-.55-.131-.275-.131-.55.159-.294.056-.549-.226-.153-.415-.345-.1-.28-.288-.472-.211-.17-.4-.362-.255-.127-.444-.319-.195-.186-.384-.379-.134-.247-.323-.439-.211-.171-.4-.363-.127-.253-.316-.445-.252-.13-.441-.322-.155-.226-.344-.418-.158-.222-.347-.414-.2-.186-.385-.378-.239-.143-.428-.335-.147-.234-.336-.426-.185-.2-.375-.389-.208-.174-.4-.366-.168-.212-.357-.4-.224-.158-.413-.35-.223-.158-.412-.35-.144-.237-.333-.429-.209-.172-.4-.364-.2-.179-.392-.371-.184-.2-.373-.391-.2-.185-.387-.377-.146-.235-.335-.428-.194-.188-.383-.38-.216-.166-.405-.358-.182-.2-.371-.391-.221-.162-.41-.354-.186-.2-.375-.389-.144-.238-.333-.43-.241-.141-.431-.334-.193-.189-.382-.381-.116-.265-.3-.458-.181-.2-.37-.393-.229-.153-.419-.345-.167-.213-.356-.4-.245-.137-.433-.329-.189-.193-.377-.385-.169-.212-.358-.4-.225-.157-.415-.35-.143-.238-.332-.43-.188-.194-.377-.386-.177-.2-.366-.4-.166-.215-.355-.408-.2-.178-.394-.371-.2-.187-.384-.379-.211-.171-.4-.363-.174-.208-.363-.4-.218-.165-.407-.357-.179-.2-.369-.4-.176-.205-.366-.4-.235-.147-.425-.341-.135-.246-.325-.439-.223-.16-.413-.353-.138-.244-.327-.437-.254-.128-.444-.321-.114-.267-.3-.46-.275-.109-.464-.3-.152-.229-.342-.422-.229-.155-.419-.348-.177-.206-.368-.4-.082-.388-.353-.388-.182.177-.373.371-.219.166-.41.36-.133.251-.324.445-.279.108-.47.3-.183.2-.374.4-.15.234-.341.429-.192.193-.383.387-.221.165-.412.359-.109.274-.3.468-.231.155-.422.349-.2.188-.388.382-.147.238-.338.432l-.382.389c-.191.194-.195.19-.386.385s-.2.186-.39.38-.18.2-.371.4-.228.158-.419.352-.15.235-.341.43-.215.171-.406.365-.2.19-.387.384-.2.186-.39.381l-.383.388c-.192.194-.2.186-.391.381s-.168.217-.359.411-.235.15-.426.344-.146.238-.337.432-.245.14-.436.334-.126.258-.317.452-.256.13-.447.324-.166.22-.357.414-.237.149-.428.343-.122.262-.313.456-.249.137-.44.331-.153.232-.344.426-.149.236-.34.431-.237.149-.428.343-.228.158-.419.352-.172.214-.363.408-.152.233-.343.427-.217.169-.408.364-.154.231-.345.425-.212.174-.4.369-.152.233-.344.427-.2.188-.39.382-.275.113-.466.307-.158.227-.349.422-.181.2-.372.4-.17.216-.362.411-.215.172-.406.367-.156.23-.347.425-.25.138-.442.333-.415.136-.311.389.22.063.493.063.273-.011.545-.011.273-.038.545-.038.273.076.546.076.272-.138.544-.138.273.1.545.1.273-.052.545-.052h.545c.273,0,.273.065.545.065s.273-.02.546-.02.273-.057.545-.057.273.091.546.091.273-.015.545-.015.273.028.546.028.273-.092.546-.092.273.047.546.047.273-.053.546-.053.273.094.546.094.273-.1.545-.1.273.089.546.089.273.023.546.023.273-.029.546-.029.274-.11.547-.11.493.341.588.085-.269-.188-.467-.39-.2-.2-.4-.4-.126-.273-.324-.475-.236-.165-.435-.367-.232-.169-.431-.371-.142-.258-.341-.459-.226-.176-.425-.378-.179-.223-.378-.425-.2-.2-.4-.4a2.816,2.816,0,0,1-.327-.443c-.1-.156-.276-.275-.346-.447a2.91,2.91,0,0,1-.129-.549,2.946,2.946,0,0,1-.011-.558,3.115,3.115,0,0,1-.025-.565,2.976,2.976,0,0,1,.155-.546,2.942,2.942,0,0,1,.252-.512c.1-.154.328-.211.46-.345a2.767,2.767,0,0,1,.4-.362,2.718,2.718,0,0,1,.467-.28,2.8,2.8,0,0,1,.51-.221,2.943,2.943,0,0,1,.556.048,2.978,2.978,0,0,1,.556-.048,2.847,2.847,0,0,1,.5.243,2.7,2.7,0,0,1,.469.27,2.737,2.737,0,0,1,.409.351c.19.193.232.048.474.293.107.109.168.3.313.452.116.118.217.274.354.412.12.122.345.154.479.289l.379.387c.123.125.185.318.315.449s.243.263.372.394.325.184.453.314.155.352.284.482.295.216.422.345.3.217.423.346.186.326.312.454.288.227.414.355.217.3.342.425.3.221.422.348.307.212.432.339.176.342.3.468.33.193.452.316.23.3.35.418c.137.139.287.246.4.365.145.147.29.259.4.368.24.242.377.385.379.387a3.063,3.063,0,0,1,.362.441,3.022,3.022,0,0,1,.269.5,3.147,3.147,0,0,1,.048.571,2.81,2.81,0,0,1,.047.547,2.846,2.846,0,0,1-.03.546,2.755,2.755,0,0,1-.192.512,3,3,0,0,1-.169.533,3.035,3.035,0,0,1-.32.467,2.975,2.975,0,0,1-.472.312,2.941,2.941,0,0,1-.464.324,3.486,3.486,0,0,1-1.108.2c-.272,0-.272-.022-.543-.022s-.272-.028-.544-.028-.272.029-.544.029-.272-.023-.543-.023-.271-.065-.543-.065-.272.066-.543.066-.272.048-.543.048-.272-.031-.543-.031-.272.013-.544.013-.272.035-.544.035-.272-.076-.543-.076-.272.038-.543.038-.272.015-.543.015-.272-.093-.543-.093-.272.014-.544.014-.272.035-.544.035-.272-.043-.544-.043-.272.039-.543.039-.272.027-.544.027h-.544c-.272,0-.272-.042-.544-.042s-.272.014-.543.014-.272.02-.544.02-.272.048-.544.048-.272-.043-.544-.043-.272-.061-.544-.061-.272.018-.544.018-.272.034-.544.034-.272-.038-.544-.038-.271.031-.543.031-.272-.014-.544-.014-.272-.035-.543-.035-.272.084-.543.084-.272-.02-.544-.02-.272-.037-.544-.037-.272.031-.543.031-.272-.077-.544-.077-.272.014-.544.014-.272.091-.545.091-.272.017-.544.017-.272,0-.544,0-.273-.016-.545-.016-.272-.1-.545-.1-.272.045-.544.045-.272.076-.545.076-.272-.033-.544-.033-.273.036-.545.036-.273-.057-.546-.057-.273.016-.546.016a2.838,2.838,0,0,1-.554-.05,17.845,17.845,0,0,0-1-.457A2.166,2.166,0,0,1,88.181,59.4a2.828,2.828,0,0,1-.18-.526,2.879,2.879,0,0,1-.072-.554,3.071,3.071,0,0,1,.009-.57,2.972,2.972,0,0,1,.245-.515,2.976,2.976,0,0,1,.2-.532,2.9,2.9,0,0,1,.409-.392s.121-.149.367-.4c.106-.108.255-.216.4-.365.115-.117.228-.259.366-.4.118-.121.274-.222.409-.359s.251-.248.384-.383.207-.294.339-.428.26-.243.391-.376.259-.245.389-.378.223-.282.353-.414.292-.214.422-.345.2-.3.33-.436.286-.223.414-.354.206-.3.335-.432.247-.261.376-.391.329-.181.457-.312.24-.269.368-.4.23-.28.358-.41.225-.284.353-.414.309-.2.437-.332.24-.271.367-.4.249-.261.377-.39.183-.327.31-.456.3-.212.426-.342.213-.3.34-.427.283-.226.41-.355.309-.2.437-.33.182-.327.309-.456.32-.192.447-.321.168-.341.294-.47.289-.223.416-.352.27-.241.4-.37.277-.234.4-.363.219-.292.346-.42.248-.264.375-.393.257-.255.385-.384.265-.247.392-.377.219-.293.346-.423.269-.244.4-.374.291-.223.418-.352.251-.262.378-.39l.381-.388c.128-.13.281-.233.408-.362s.22-.293.346-.422.212-.3.339-.429.307-.207.434-.336.27-.244.4-.373.258-.255.385-.384.23-.283.357-.412.2-.317.322-.445.291-.224.417-.352.272-.242.4-.37.271-.243.4-.371.236-.278.362-.406.2-.308.331-.437.293-.222.419-.35.29-.226.416-.353.229-.287.354-.415.272-.244.4-.372.2-.318.323-.444.342-.176.467-.3.218-.3.342-.426l.38-.387c.13-.133.232-.287.355-.412s.331-.191.453-.316.219-.3.341-.426.246-.279.367-.4.315-.215.434-.336c.138-.141.2-.332.316-.449.147-.149.316-.237.422-.344.246-.251.125-.256.314-.449a2.969,2.969,0,0,1,.461-.317,2.767,2.767,0,0,1,.494-.241,2.881,2.881,0,0,1,.5-.257,8.9,8.9,0,0,0,1.125,0,2.87,2.87,0,0,1,.51.238,2.7,2.7,0,0,1,.478.271,2.839,2.839,0,0,1,.391.382c.191.194.261.125.451.318s.2.184.39.377.2.187.387.38.165.218.355.411.206.178.4.371.107.275.3.468.269.115.459.308.122.26.312.453.179.2.369.4.208.176.4.369.189.195.379.388.214.17.4.364.17.213.361.407.215.169.405.363.147.236.338.429.228.156.418.35.209.175.4.368.164.219.354.412.212.172.4.365.225.159.415.353.119.263.309.457.22.164.411.358.157.227.347.42.2.179.395.373.227.158.417.351.2.18.394.373.2.187.387.381.2.187.387.38.1.278.294.472.288.1.478.292.1.28.293.474.245.14.436.333.194.19.385.383.167.216.358.409.22.164.411.358.173.21.364.4.211.173.4.366l.38.388c.191.194.134.249.324.443s.25.135.44.329.2.187.389.38.112.271.3.464.224.16.415.353.171.212.36.405.167.215.357.408.2.181.393.374.236.148.426.342.146.238.337.432.237.148.427.341.154.229.344.422.2.183.391.377.172.212.362.406.231.154.421.348.208.177.4.37.186.2.376.392.157.227.347.421.165.22.355.413.266.12.456.314.121.263.311.457.258.127.449.321.18.2.371.4.174.21.365.4.167.218.357.411.2.189.386.383.193.193.383.386.218.168.408.362.218.168.409.362.19.2.381.39.106.279.3.473.188.2.38.392a2.751,2.751,0,0,1,.374.4,2.945,2.945,0,0,1,.316.466,3.1,3.1,0,0,1,.056.563,2.74,2.74,0,0,1,.077.541" transform="translate(-61.22 -28.346)"/><path class="c" d="M121.6,110.24a2.451,2.451,0,0,1-.555-.083,2.563,2.563,0,0,1-.554-.129,2.536,2.536,0,0,1-.479-.313,2.588,2.588,0,0,1-.416-.393,2.542,2.542,0,0,1-.278-.5,2.471,2.471,0,0,1-.181-.536,2.535,2.535,0,0,1-.129-.562,2.575,2.575,0,0,1,.084-.572,2.5,2.5,0,0,1,.246-.516,2.451,2.451,0,0,1,.3-.474c.12-.15.182-.358.332-.478a2.66,2.66,0,0,1,.511-.277,2.616,2.616,0,0,1,.562-.112c.184-.042.358-.206.554-.206a2.655,2.655,0,0,1,.581.091,2.593,2.593,0,0,1,.542.213,1.677,1.677,0,0,1,.921.7,2.651,2.651,0,0,1,.262.52,2.526,2.526,0,0,1,.184.542,2.638,2.638,0,0,1,.152.568,2.7,2.7,0,0,1-.069.588,2.623,2.623,0,0,1-.232.54,1.307,1.307,0,0,1-.762.854,2.631,2.631,0,0,1-.447.372,2.66,2.66,0,0,1-.547.218,2.885,2.885,0,0,1-.586-.055" transform="translate(-76.946 -67.107)"/><path class="c" d="M168.32,110.341a2.784,2.784,0,0,1-.586.029,2.658,2.658,0,0,1-.538-.235,3.417,3.417,0,0,1-1.232-1.2,2.709,2.709,0,0,1-.077-.579c-.042-.185-.19-.359-.19-.556a8.819,8.819,0,0,1,.288-1.124,2.64,2.64,0,0,1,.371-.442,2.566,2.566,0,0,1,.36-.446,1.588,1.588,0,0,1,1.034-.49,2.453,2.453,0,0,1,1.139.014,2.514,2.514,0,0,1,.549.168,2.579,2.579,0,0,1,.459.344,1.46,1.46,0,0,1,.771.846,2.649,2.649,0,0,1,.11.569,2.606,2.606,0,0,1,.149.561,2.818,2.818,0,0,1,0,.6,2.715,2.715,0,0,1-.231.549c-.084.174-.314.256-.433.405a2.626,2.626,0,0,1-.336.467,1.9,1.9,0,0,1-1.609.524" transform="translate(-100.525 -67.182)"/><path class="c" d="M141.484,124.029c-.189,0-.371-.1-.56-.12s-.364-.086-.551-.117-.372-.038-.556-.083-.4.041-.584-.016-.322-.226-.5-.3-.376-.082-.547-.164-.281-.273-.446-.366-.377-.1-.535-.207-.238-.31-.388-.426-.31-.207-.451-.334a1.764,1.764,0,0,1-.4-.391,1.856,1.856,0,0,1-.261-.513,1.9,1.9,0,0,1,.055-.573,1.716,1.716,0,0,1,.146-.534,1.764,1.764,0,0,1,.25-.51,1.826,1.826,0,0,1,.425-.279,1.138,1.138,0,0,1,.943-.268,1.7,1.7,0,0,1,.626.137,1.809,1.809,0,0,1,.594.276c.127.114.208.3.349.4s.384.032.535.113.259.249.419.313a4.615,4.615,0,0,0,.5.124c.166.044.317.187.487.211s.355-.084.527-.08c.044,0,.043.05.086.05a4.374,4.374,0,0,0,.5-.061,4.555,4.555,0,0,0,.475-.157,4.678,4.678,0,0,0,.5-.071c.157-.056.372.006.522-.067a4.57,4.57,0,0,0,.442-.263c.142-.09.223-.276.351-.381a1.788,1.788,0,0,1,.577-.206,1.629,1.629,0,0,1,.577-.121,1.675,1.675,0,0,1,.506.071,1.792,1.792,0,0,1,.506.153,1.836,1.836,0,0,1,.342.4c.125.153.4.223.469.4a2.065,2.065,0,0,1,0,.605,1.933,1.933,0,0,1,0,.583,1.289,1.289,0,0,1-.644.959c-.133.109-.243.256-.383.356s-.271.226-.418.317-.313.16-.465.241-.367.038-.524.109-.256.289-.417.35-.347.068-.512.119-.333.1-.5.145-.37-.091-.54-.061-.322.166-.493.185-.348-.072-.521-.065c-.111.005-.219.09-.33.09a.876.876,0,0,1-.181.022" transform="translate(-85.374 -74.047)"/></g></g></svg>