<svg xmlns="http://www.w3.org/2000/svg" width="191.849" height="46.223" viewBox="0 0 191.849 46.223"><defs><style>.a{fill:#1a1311;}.b{fill:#aea6a0;}.c{fill:#e54600;}</style></defs><g transform="translate(-12.969 -10.808)"><path class="a" d="M310.164,47.465v8.274h6.013v-1.38h-4.236V47.465Z" transform="translate(-191.906 -29.367)"/><rect class="a" width="1.776" height="8.274" transform="translate(125.612 18.097)"/><path class="a" d="M343.347,55.738h2.115l-2.987-4.325,2.743-3.949h-1.931l-1.8,2.741-1.741-2.741H337.69l2.755,3.936-2.987,4.338h1.979l1.974-2.964Z" transform="translate(-208.794 -29.367)"/><rect class="a" width="1.777" height="8.274" transform="translate(137.932 18.097)"/><path class="a" d="M371.983,47.465v8.274H378v-1.38H373.76V47.465Z" transform="translate(-230.155 -29.367)"/><path class="a" d="M524.134,45.584a1.208,1.208,0,0,0-2.415,0h-5.632v1.281h5.087v.458c0,2.86-1.133,4.761-4.147,5.4v1.135c3.638-.373,5.9-2.613,5.9-6.535v-.57a1.188,1.188,0,0,0,1.208-1.17m-1.211.6a.6.6,0,1,1,.622-.6.611.611,0,0,1-.622.6" transform="translate(-319.315 -27.481)"/><path class="a" d="M467.891,50.841c-.049,3.453-1.833,5.4-5.847,5.581v1.412c4.766-.244,7.173-2.29,7.173-6.993Z" transform="translate(-285.878 -31.457)"/><rect class="a" width="3.841" height="1.373" transform="translate(176.166 18.103)"/><rect class="a" width="3.841" height="1.372" transform="translate(176.166 20.559)"/><path class="a" d="M505.6,53l0,1.228c0,2.522-.744,3.521-3.25,3.932v1.011c3.4-.313,4.676-1.961,4.676-4.958V53Z" transform="translate(-310.815 -32.791)"/><rect class="a" width="1.329" height="2.858" transform="translate(190.709 20.206)"/><rect class="a" width="1.329" height="2.858" transform="translate(192.728 20.206)"/><path class="a" d="M483.5,53v1.072h3.465v1.4h-3.253v1.076h3.253v1.563h-3.519v1.063h4.948V53H483.5Z" transform="translate(-299.117 -32.79)"/><path class="a" d="M420.246,48.22v-1.6h-1.22v1.6h-.455v-.18h-1.687v-.376a12.122,12.122,0,0,0,1.42-.17V46.5a20.907,20.907,0,0,1-4.207.316v.933c.45.011,1.03,0,1.622-.02v.31h-1.713v.853h1.713v.347h-1.493v3.2h1.493v.371h-1.48v.851h1.48v.462c-.65.027-1.275.044-1.738.045v.989c1.222-.018,3.364-.155,4.378-.277v.251c1.3-.68,1.888-1.991,1.888-4.677V49.446h.621v3.5c0,.75-.228,1.048-.731,1.048h-.151v1.143h.453c1.048,0,1.579-.609,1.579-1.886V48.22Zm-3.362.672h1.448v.347h-1.448Zm0,1.115h.51v.45h-.51Zm.509,1.668h-.51v-.45h.51Zm-2.184-1.668h.51v.45h-.51Zm0,1.218h.51v.45h-.51Zm3.817-.976c0,1.956-.016,2.894-.676,3.56l0,.128c-.386.05-.905.092-1.468.129v-.4h1.481v-.851h-1.481v-.371h1.495v-3h.647Z" transform="translate(-256.14 -28.771)"/><path class="a" d="M397.867,51.946a10.933,10.933,0,0,1-3.339-2.421,7.311,7.311,0,0,0,.452-.771h2.842v-1.3h-8.129v1.3h3.4a8.27,8.27,0,0,1-3.5,3.505v1.205a11.275,11.275,0,0,0,3.422-2.2v4.468h1.469v-4.6a11.388,11.388,0,0,0,3.375,2.239Z" transform="translate(-241.055 -29.362)"/><path class="a" d="M445.283,50.1V49h-1.812l.133-.662H445v-1.1h-2.97v-.425h-1.3v.425h-2.969v1.1h1.393l.133.662h-1.716v2.5a4.121,4.121,0,0,1-.429,2.467v1.36c1.055-.657,1.65-1.593,1.65-3.587V50.1h.635v.219a1.7,1.7,0,0,1-.395,1.377v1.114a2.388,2.388,0,0,0,1.135-1.019h1.249v.676h-1.8v1.008h1.8V54.1H438.66v1.081h6.535V54.1h-2.47v-.625h1.834V52.469h-1.834v-.676h2.139V50.725h-2.139V50.1Zm-4.832-1.765h1.857l-.133.662h-1.591Zm.967,2.388h-.9a3.676,3.676,0,0,0,.027-.456V50.1h.876Z" transform="translate(-270.471 -28.962)"/><path class="a" d="M237.333,54.34V52.12H241.6V50.8h-4.266V48.831h4.61V47.448H235.56v8.274h6.465V54.34Z" transform="translate(-145.747 -29.358)"/><path class="a" d="M263.339,55.476a1.509,1.509,0,0,1-.311-.749,6.528,6.528,0,0,1-.11-1.252,2.283,2.283,0,0,0-.135-.837,1.691,1.691,0,0,0-.345-.556,1.35,1.35,0,0,0-.458-.318l-.035-.014a1.823,1.823,0,0,0,.479-.344,2.205,2.205,0,0,0,.445-.646,2.35,2.35,0,0,0,.192-1.007,2.082,2.082,0,0,0-.753-1.7,3.417,3.417,0,0,0-2.19-.6h-4.187v8.274H257.7V52.395h2.034a2.277,2.277,0,0,1,.784.113.943.943,0,0,1,.449.335,1.451,1.451,0,0,1,.235.6,5.3,5.3,0,0,1,.069.919c0,.2.01.447.03.659a1.4,1.4,0,0,0,.218.636l.043.067h2.011ZM261.287,50a1.051,1.051,0,0,1-.317.845,1.474,1.474,0,0,1-.983.283H257.7V48.881h2.259a3.229,3.229,0,0,1,.527.043,1.1,1.1,0,0,1,.419.157.77.77,0,0,1,.274.316,1.274,1.274,0,0,1,.1.556Z" transform="translate(-158.351 -29.358)"/><path class="a" d="M283.083,55.723h1.906l-3.378-8.274H279.84l-3.366,8.274h1.846l.808-2.154h3.155ZM279.605,52.3l1.108-2.956,1.1,2.956Z" transform="translate(-171.061 -29.358)"/><path class="a" d="M504.81,98.1c-.124,8.624-4.579,13.5-14.6,13.941v3.525c11.9-.608,17.915-5.718,17.915-17.466Z" transform="translate(-303.303 -60.696)"/><rect class="a" width="9.593" height="3.43" transform="translate(186.904 34.202)"/><path class="a" d="M384.355,92.141h-4.169V88.026h-3.5v4.116h-7.205V88.026h-3.5v4.116h-4.144v3.2h4.144v6.469h3.5V95.338h7.205v.448c0,6.154-1.753,9.572-9.7,10.631v2.915c9.424-.75,13.2-4.476,13.2-13.067v-.927h4.169Z" transform="translate(-223.877 -54.464)"/><path class="a" d="M427.829,111.006h19.579V92.461H427.829Zm16.078-3.2H431.329V95.658h12.578Z" transform="translate(-264.708 -57.208)"/><path class="a" d="M261.239,109.622h11V89.075h-11Zm8.038-14.459H264.2V91.7h5.08Zm0,5.765H264.2V97.769h5.08Zm-5.08,2.607h5.08v3.458H264.2Z" transform="translate(-161.635 -55.113)"/><path class="a" d="M242.156,87.216H238.85v3.838h-3.29v3.019h3.288a19.551,19.551,0,0,1-3.288,6.863v3.11a14.918,14.918,0,0,0,3.29-3.911v8.7h3.306V98.646a14.053,14.053,0,0,0,2.738,2.8V97.818a15.337,15.337,0,0,1-2.738-3.732v-.012h2.738V91.054h-2.738Z" transform="translate(-145.747 -53.963)"/><path class="a" d="M320.8,126.916v2.257c3.713-.586,5.581-1.838,5.581-9.053h-2.613c-.007,3.576-.212,5.688-2.968,6.8" transform="translate(-198.484 -74.321)"/><path class="a" d="M343.9,123.015h-2.177v.465c0,.572-.023,2.058-.092,2.515a.374.374,0,0,1-.411.368h-.567c-.389,0-.457-.025-.457-.46V120.12h-2.871v6.9c0,.549,0,1.943,1.646,1.943h3.15c1.761,0,1.761-1.692,1.784-4.893Z" transform="translate(-208.711 -74.321)"/><path class="a" d="M304.285,99.423l.178.576h1.466v.722h2.477V98.929h7.385v1.792h2.564v-4.4H305.929v1.62l-.792-2.559h-2.1l.512,1.656h-2.063l4.131-6.278v.631h5.044V92.96h-5.044v2.423h13.216V92.96h-5.3V91.391h5.3V88.969h-5.3V87.216h-2.874v1.753h-5.044V89.9h-2.182l-2.309,3.508-.749-.769,3.366-5.116h-2.653l-2.3,3.49-.517-.531-1.312,1.991,2.842,2.938-1.069,1.625h-1.9v2.384h3.4v9.386h2.874V99.423Z" transform="translate(-183.661 -53.962)"/><path class="a" d="M316.894,127.358a22.971,22.971,0,0,0-.411-4.721h-2.005a20.705,20.705,0,0,1,.373,4.721Z" transform="translate(-194.575 -75.878)"/><path class="a" d="M296.545,128.819h2.275a18.036,18.036,0,0,0,.737-6.182H297.5a15.14,15.14,0,0,1-.953,6.182" transform="translate(-183.479 -75.878)"/><path class="b" d="M36.233,74.479a2.074,2.074,0,0,1-.418-.029,2.248,2.248,0,0,1-.43-.056c-.132-.056-.218-.2-.335-.277a2.137,2.137,0,0,1-.339-.251,2.2,2.2,0,0,1-.3-.31,2.249,2.249,0,0,1-.231-.37,2.417,2.417,0,0,1-.041-.436,2.221,2.221,0,0,1-.087-.42c0-.208.029-.208.029-.417s.039-.209.039-.417-.012-.209-.012-.418-.043-.209-.043-.417-.015-.209-.015-.417.067-.209.067-.417-.007-.208-.007-.417-.027-.209-.027-.417.006-.209.006-.418-.031-.209-.031-.417.039-.209.039-.417v-.417c0-.209.013-.209.013-.417s.011-.209.011-.417,0-.209,0-.417-.042-.209-.042-.417-.037-.209-.037-.417-.025-.209-.025-.417.048-.209.048-.417.034-.209.034-.417-.065-.209-.065-.417,0-.209,0-.418.014-.209.014-.417.04-.209.04-.417-.062-.209-.062-.418.024-.209.024-.418.069-.209.069-.417-.1-.209-.1-.417,0-.209,0-.418.1-.209.1-.418-.01-.208-.01-.417-.035-.209-.035-.417-.019-.209-.019-.417.027-.209.027-.417-.019-.209-.019-.417,0-.209,0-.417-.036-.209-.036-.418.074-.209.074-.418,0-.209,0-.418-.019-.209-.019-.418.018-.209.018-.418.019-.209.019-.418-.084-.209-.084-.418-.018-.209-.018-.418.008-.209.008-.417.046-.209.046-.418.032-.209.032-.418.016-.209.016-.419-.025-.209-.025-.419-.044-.21-.044-.419a2.27,2.27,0,0,1,.115-.417,1.523,1.523,0,0,1,.234-.826c.079-.12.229-.185.33-.287.147-.149.162-.134.308-.283s.148-.147.295-.3.128-.167.275-.316.149-.146.3-.295.1-.2.242-.348.209-.088.355-.236.1-.2.242-.348.184-.112.33-.26.15-.145.3-.294.105-.189.252-.338.161-.135.308-.284.151-.144.3-.293.17-.126.316-.275.083-.212.23-.361l.294-.3c.147-.149.193-.1.339-.253s.108-.186.255-.336.156-.139.3-.288.2-.093.35-.242.141-.155.287-.3.153-.142.3-.291.073-.222.219-.371.168-.128.315-.278.187-.109.334-.259.123-.172.27-.321.124-.172.271-.32.141-.155.287-.3.205-.092.352-.241.087-.207.234-.356.142-.154.289-.3.195-.1.342-.251.135-.16.282-.309.127-.169.273-.318.157-.138.3-.287.139-.157.286-.306.153-.143.3-.293.151-.145.3-.295.124-.172.27-.321.172-.124.319-.273.165-.132.311-.281.137-.159.284-.308.143-.153.29-.3.109-.186.255-.336.156-.14.3-.288.132-.162.279-.312.173-.122.32-.271.148-.148.294-.3.192-.1.339-.254l.292-.3c.146-.149.1-.2.244-.346s.155-.141.3-.29.174-.123.321-.272.132-.164.279-.313.162-.133.309-.283.11-.185.257-.334.156-.14.3-.29.128-.167.275-.316.136-.16.283-.31.2-.1.345-.248.114-.182.261-.331.188-.11.334-.259.129-.167.276-.316.1-.192.251-.341.206-.09.353-.239.084-.212.231-.361.149-.148.3-.3.188-.109.335-.259.126-.17.273-.32.183-.115.33-.265.145-.153.292-.3a2.148,2.148,0,0,1,.322-.271,2.1,2.1,0,0,1,.366-.211,2.13,2.13,0,0,1,.4-.157,2.183,2.183,0,0,1,.428-.021,2.25,2.25,0,0,1,.43,0,2.215,2.215,0,0,1,.419.115,2.238,2.238,0,0,1,.347.26,2.16,2.16,0,0,1,.337.26c.146.148.109.185.256.334s.148.146.295.295.172.123.318.272.186.109.333.258.125.17.271.319.155.14.3.288.148.147.3.3.156.14.3.288.123.172.27.321.138.158.284.307.178.117.325.267.127.169.273.318.141.154.288.3.176.12.323.269.114.181.261.329.162.133.308.282.117.178.263.327.165.132.312.281.1.194.248.344.218.079.365.228.076.22.223.369.181.115.329.265a2.215,2.215,0,0,1,.277.328,2.242,2.242,0,0,1,.225.371,2.274,2.274,0,0,1,.112.42,2.311,2.311,0,0,1-.012.431,2.331,2.331,0,0,1,.017.432,2.245,2.245,0,0,1-.167.4,2.791,2.791,0,0,1-.461.711,2.138,2.138,0,0,1-.34.247c-.118.08-.2.23-.329.285a2.293,2.293,0,0,1-.432.042,2.218,2.218,0,0,1-.415.125,2.189,2.189,0,0,1-.422-.089,2.065,2.065,0,0,1-.386-.17,2.009,2.009,0,0,1-.373-.186c-.116-.079-.285-.1-.386-.2-.145-.147-.085-.205-.23-.352s-.154-.137-.3-.284-.175-.117-.32-.263-.105-.186-.25-.332-.148-.144-.293-.291-.171-.121-.316-.268-.148-.144-.293-.291-.1-.188-.248-.335-.182-.11-.327-.257-.139-.153-.284-.3-.137-.154-.281-.3-.188-.1-.333-.251-.1-.191-.245-.338-.149-.143-.294-.29-.146-.146-.291-.293-.127-.165-.273-.313-.1-.242-.312-.242-.157.1-.3.252-.149.145-.294.292-.143.151-.288.3-.127.166-.273.314l-.291.3c-.146.148-.128.165-.275.313s-.134.16-.28.308-.173.121-.318.269-.14.154-.285.3l-.291.3c-.146.148-.144.15-.289.3s-.123.17-.268.318-.175.119-.32.267-.151.142-.3.291-.139.155-.285.3-.141.154-.286.3-.153.142-.3.29-.159.135-.305.283-.176.119-.321.267-.085.208-.23.356l-.292.3c-.146.148-.2.094-.347.242s-.148.146-.294.295-.152.142-.3.291-.128.166-.273.314-.142.152-.287.3-.1.193-.246.341-.18.115-.325.263-.166.128-.312.276-.091.2-.237.35-.187.108-.332.256-.117.176-.263.324-.18.115-.325.263-.13.164-.276.312-.111.183-.257.331-.206.089-.352.237-.1.2-.241.345-.188.106-.334.253-.114.179-.26.327-.131.162-.277.311-.214.081-.36.23-.125.169-.27.317-.137.157-.282.305-.116.177-.262.325-.186.109-.332.257-.129.165-.275.313-.144.15-.29.3-.142.152-.288.3-.186.109-.332.257-.089.2-.235.353-.147.148-.293.3-.178.117-.324.265-.17.124-.317.273-.091.2-.238.35l-.293.3c-.146.149-.137.157-.283.306s-.16.135-.305.283-.138.156-.284.3-.183.112-.329.261-.153.142-.3.291-.133.162-.279.31-.149.147-.3.3a.684.684,0,0,0-.23.331.7.7,0,0,0-.079.4c0,.212.075.212.075.423s0,.212,0,.423-.062.212-.062.423-.032.211-.032.422.1.211.1.422-.074.211-.074.422-.008.212-.008.423.074.211.074.423-.093.211-.093.422.078.211.078.423.023.211.023.422-.1.212-.1.423.083.211.083.423-.052.211-.052.423.074.211.074.423-.1.211-.1.423.077.212.077.423.014.212.014.423-.083.212-.083.423-.014.212-.014.423.031.212.031.423.063.211.063.422-.054.212-.054.423-.046.212-.046.423.031.211.031.422.051.211.051.423-.054.212-.054.423-.007.211-.007.422.043.212.043.423.005.212.005.423.027.212.027.423-.07.212-.07.423.019.212.019.423.014.212.014.424-.045.212-.045.424.025.211.025.423,0,.212,0,.424-.01.212-.01.424.073.212.073.424-.016.212-.016.424-.145.237,0,.389.17.048.376.048.206-.036.412-.036.206-.013.412-.013.206.01.411.01.206.026.412.026.206.009.412.009.206.038.411.038.206-.03.412-.03.206-.055.412-.055.206.011.412.011.206.072.413.072.206-.051.412-.051.206.034.413.034.206-.045.412-.045.206-.028.413-.028.206-.006.413-.006.206.01.412.01.206.056.412.056.206-.051.413-.051.206.074.413.074.207-.056.413-.056.207-.011.414-.011.207-.024.414-.024c.135,0,.262.1.391.119a2.424,2.424,0,0,1,.405.031c.125.047.217.169.331.236a2.429,2.429,0,0,1,.371.169c.1.087.125.25.209.353s.212.175.275.292a2.238,2.238,0,0,1,.1.39c.04.125.159.235.177.369a2.377,2.377,0,0,1,.014.477,2.341,2.341,0,0,1-.1.466,2.3,2.3,0,0,1-.242.406.986.986,0,0,1-.608.671,2.122,2.122,0,0,1-.376.25,2.2,2.2,0,0,1-.417.2,2.2,2.2,0,0,1-.464-.026c-.209,0-.209.092-.418.092s-.209-.04-.418-.04-.209.037-.418.037-.209-.094-.418-.094-.209.092-.418.092-.209-.094-.418-.094-.209.046-.418.046-.209.046-.418.046-.209-.059-.417-.059-.209.068-.418.068-.209-.074-.418-.074-.209.079-.417.079-.209-.021-.418-.021-.209-.077-.418-.077-.209-.01-.418-.01-.209.077-.418.077-.209-.01-.418-.01-.209.022-.418.022-.209,0-.418,0-.209-.06-.418-.06-.209.038-.418.038-.209.023-.418.023-.209-.019-.418-.019-.209.01-.419.01-.209-.052-.419-.052-.21,0-.419,0a3.593,3.593,0,0,1-.419.02,3.6,3.6,0,0,0-.42-.045" transform="translate(-21.047 -17.554)"/><path class="c" d="M133.287,51.44c0,.209.058.209.058.417s-.074.209-.074.417.014.209.014.417-.011.209-.011.417.016.209.016.417.04.208.04.417-.045.209-.045.417.081.208.081.417,0,.209,0,.417-.088.209-.088.417.082.209.082.417-.031.209-.031.417-.022.209-.022.417.01.209.01.417.026.209.026.417-.021.209-.021.417-.023.209-.023.417.047.209.047.417-.005.209-.005.417-.022.209-.022.417.035.209.035.418.006.209.006.417-.046.209-.046.417.059.209.059.418-.079.209-.079.417.053.209.053.418-.069.209-.069.417.017.209.017.418,0,.209,0,.418-.005.209-.005.417.045.209.045.417-.059.209-.059.418.1.209.1.417-.071.209-.071.417-.03.209-.03.417.03.209.03.418-.023.209-.023.417.069.209.069.418-.017.209-.017.417-.064.209-.064.418.053.209.053.418-.031.209-.031.418.084.209.084.418-.041.209-.041.417-.008.209-.008.418-.007.209-.007.418.01.209.01.418-.026.209-.026.418.058.21.058.419-.058.21-.058.419a2.433,2.433,0,0,1,.029.435,2.279,2.279,0,0,1-.162.4,2.3,2.3,0,0,1-.17.4c-.079.12-.244.17-.344.272a2.229,2.229,0,0,1-.284.321,2.187,2.187,0,0,1-.374.215,2.16,2.16,0,0,1-.423.076,2.054,2.054,0,0,1-.419.029c-.209,0-.209-.007-.419-.007s-.209.016-.419.016-.209.042-.419.042-.209-.044-.419-.044-.209.064-.419.064-.21-.06-.419-.06-.209.038-.419.038-.209.018-.419.018h-.419c-.21,0-.21-.065-.419-.065s-.209.026-.419.026-.21.048-.419.048-.209-.057-.419-.057-.21.024-.419.024-.209.039-.419.039-.209-.042-.419-.042-.21-.012-.419-.012-.209.067-.419.067-.21-.048-.419-.048-.21.009-.419.009-.209.045-.419.045-.21-.1-.419-.1-.209-.011-.419-.011-.209.028-.419.028-.209-.022-.419-.022-.209.087-.419.087-.21-.008-.419-.008-.21-.018-.419-.018-.21.038-.419.038-.209-.1-.419-.1-.209.046-.419.046-.209-.016-.418-.016-.209,0-.418,0-.209.04-.418.04-.209-.055-.418-.055-.209.072-.418.072-.209-.012-.418-.012-.209-.042-.419-.042-.209-.01-.419-.01-.209.067-.419.067-.21-.094-.419-.094-.209.013-.419.013-.209.046-.419.046-.209-.058-.419-.058-.209.045-.419.045-.209.016-.419.016-.209.008-.418.008-.209.025-.419.025-.21-.061-.419-.061-.209-.035-.419-.035-.21.059-.419.059-.21.021-.419.021-.209-.039-.419-.039-.21-.04-.419-.04-.209.088-.419.088-.209-.05-.419-.05-.21-.019-.419-.019-.21.053-.419.053-.21-.025-.419-.025-.209-.016-.419-.016-.209,0-.419,0-.21.018-.419.018-.21.021-.419.021-.21-.041-.419-.041l-.419,0c-.21,0-.21.03-.419.03s-.21-.015-.419-.015-.21-.033-.419-.033-.21,0-.419,0-.21.018-.419.018-.21.019-.419.019-.21.045-.419.045-.21-.026-.42-.026-.209.01-.419.01-.21-.036-.419-.036-.21.04-.419.04-.21-.014-.419-.014-.21.015-.42.015-.209-.052-.419-.052-.21-.031-.419-.031-.21.014-.419.014-.209.084-.419.084h-.419c-.21,0-.21-.021-.42-.021s-.209-.035-.419-.035-.21,0-.42,0-.21.045-.419.045h-.42c-.21,0-.21-.053-.419-.053s-.21-.016-.42-.016-.21-.014-.42-.014-.21.079-.42.079-.21-.009-.42-.009-.21-.049-.42-.049-.21.043-.42.043-.21.04-.42.04-.21-.017-.421-.017-.21-.087-.421-.087a1.944,1.944,0,0,1-.839-.107,2.168,2.168,0,0,1-.378-.206,2.222,2.222,0,0,1-.341-.266,2.258,2.258,0,0,1-.275-.336,2.043,2.043,0,0,1-.352-1.234c0-.212.032-.212.032-.424s-.059-.212-.059-.424.055-.212.055-.424,0-.212,0-.424,0-.212,0-.424-.02-.212-.02-.424,0-.212,0-.424.042-.212.042-.424-.057-.212-.057-.423.067-.212.067-.424-.08-.212-.08-.424.044-.212.044-.423-.038-.212-.038-.424-.021-.212-.021-.424,0-.212,0-.424.009-.212.009-.424.042-.212.042-.424.023-.212.023-.424v-.424c0-.212-.059-.212-.059-.424s0-.212,0-.425,0-.212,0-.424.023-.212.023-.424.066-.212.066-.424-.014-.212-.014-.424-.076-.212-.076-.425.08-.212.08-.425-.06-.213-.06-.425a2.4,2.4,0,0,1,.063-.43,2.433,2.433,0,0,1,.079-.43,2.379,2.379,0,0,1,.228-.373,2.3,2.3,0,0,1,.267-.339,2.177,2.177,0,0,1,.345-.253,2.092,2.092,0,0,1,.347-.248,2.059,2.059,0,0,1,.4-.172,2.117,2.117,0,0,1,.434.02,2.165,2.165,0,0,1,.419.038,2.21,2.21,0,0,1,.426.063,2.1,2.1,0,0,1,.345.257c.118.08.294.093.4.2a1.126,1.126,0,0,1,.4.764,2.221,2.221,0,0,1,.164.4,2.263,2.263,0,0,1,.036.43c0,.212-.047.212-.047.424s.054.212.054.424-.016.212-.016.424.059.211.059.423-.023.212-.023.424-.07.212-.07.424.045.212.045.423.022.212.022.424.025.212.025.424-.048.212-.048.423.05.212.05.424-.005.212-.005.424-.014.212-.014.424-.087.212-.087.424.066.212.066.424.018.212.018.424.01.212.01.424-.072.212-.072.424,0,.212,0,.424.059.212.059.424-.018.212-.018.424,0,.212,0,.425-.172.3-.023.447.231.03.44.03.209-.074.417-.074.209.038.417.038.209-.032.417-.032.209-.022.417-.022.209.026.417.026.209.057.417.057.209-.073.417-.073.209.08.418.08.209-.049.417-.049.209-.023.418-.023.209.009.417.009.209.062.417.062.209-.058.417-.058.209.046.417.046.209-.079.417-.079.209.051.418.051.209.014.417.014.209-.075.417-.075.209.021.417.021.209.022.417.022.209.048.417.048.209,0,.417,0,.208-.016.417-.016.208-.08.416-.08.209,0,.417,0,.208.073.417.073.209.017.417.017.209.011.417.011.209-.023.417-.023.209-.059.418-.059.209.063.417.063.209-.085.417-.085.209.076.417.076.209-.021.417-.021.208.028.417.028.209.017.417.017.209-.052.417-.052.209-.026.417-.026.209.013.417.013.209.032.418.032.209.036.417.036.209-.056.418-.056.209.056.417.056.209-.03.417-.03.209-.037.417-.037.209.058.418.058.209-.1.418-.1.209.064.417.064.209,0,.417,0h.417c.209,0,.209-.027.417-.027s.209.02.418.02.209-.061.417-.061.209.006.418.006.209.058.417.058.209.024.417.024.209.019.418.019.209-.049.418-.049.209.025.417.025.209-.01.418-.01.209.008.417.008.209,0,.418,0,.209-.069.418-.069.209.055.418.055.209.032.418.032.209-.078.418-.078.209.072.418.072.209-.017.417-.017.209-.019.417-.019.209-.044.418-.044.209.023.417.023.209-.03.418-.03.209.069.418.069.209-.046.417-.046.209-.026.418-.026.209.051.418.051.209-.013.418-.013.209.008.418.008.209-.024.418-.024.209.048.419.048.209.006.417.006.209-.008.418-.008.209-.056.419-.056.209.033.419.033.209.047.419.047h.419c.21,0,.265.1.413-.052s.018-.2.018-.416-.052-.212-.052-.423.04-.212.04-.423.047-.211.047-.422,0-.211,0-.422-.066-.211-.066-.422-.014-.211-.014-.423.024-.211.024-.423-.022-.211-.022-.423,0-.211,0-.422.037-.211.037-.422,0-.212,0-.423-.029-.212-.029-.423.077-.211.077-.422-.086-.212-.086-.423.056-.212.056-.423.016-.212.016-.423,0-.211,0-.423.016-.211.016-.423-.017-.211-.017-.423-.066-.212-.066-.423-.017-.212-.017-.423.031-.211.031-.422.063-.212.063-.423-.064-.211-.064-.423.042-.211.042-.422-.028-.211-.028-.422.033-.212.033-.423-.006-.211-.006-.423.028-.212.028-.423-.1-.211-.1-.423.057-.212.057-.423-.015-.212-.015-.423,0-.212,0-.423.025-.212.025-.424-.052-.212-.052-.424.053-.211.053-.423-.017-.212-.017-.424.032-.212.032-.423.021-.212.021-.424-.1-.212-.1-.424.122-.226.043-.423-.174-.118-.32-.266-.076-.216-.222-.364-.162-.131-.308-.279-.2-.1-.342-.246-.15-.143-.3-.292-.1-.19-.249-.339-.162-.132-.308-.28-.1-.195-.244-.343-.194-.1-.34-.248-.119-.174-.265-.322-.122-.171-.268-.319-.151-.143-.3-.291-.184-.11-.33-.258-.113-.18-.259-.328-.143-.151-.289-.3-.161-.134-.307-.282-.13-.164-.275-.312-.173-.122-.318-.27-.172-.122-.318-.27-.111-.182-.257-.331-.161-.133-.307-.281-.156-.138-.3-.286-.141-.153-.287-.3-.152-.142-.3-.291-.112-.181-.258-.329-.149-.145-.295-.293-.167-.128-.312-.276-.14-.154-.286-.3-.17-.125-.316-.273-.143-.151-.289-.3-.111-.183-.256-.331-.186-.109-.332-.257-.149-.145-.294-.294-.089-.2-.235-.353-.14-.155-.285-.3-.177-.118-.323-.266-.128-.164-.274-.312-.188-.106-.334-.254l-.291-.3c-.146-.148-.13-.164-.276-.312s-.173-.121-.32-.27-.11-.183-.255-.331-.145-.149-.29-.3-.136-.157-.282-.305-.128-.166-.274-.314-.157-.137-.3-.286-.15-.144-.3-.292-.163-.132-.309-.28-.134-.161-.28-.309-.168-.127-.314-.275-.138-.156-.284-.3-.136-.158-.282-.307-.181-.114-.328-.262-.1-.189-.25-.338-.172-.123-.318-.272-.106-.188-.252-.337-.2-.1-.342-.247-.088-.206-.234-.354-.212-.084-.358-.233-.117-.177-.263-.325-.176-.12-.323-.268-.136-.159-.283-.308-.063-.3-.272-.3-.14.136-.287.286-.169.128-.316.277-.1.193-.249.343-.215.083-.362.233-.141.156-.288.306-.116.18-.263.33-.148.148-.3.3-.17.127-.317.276-.084.211-.231.361-.178.119-.325.269-.152.145-.3.294-.113.183-.26.333l-.294.3c-.147.149-.15.146-.3.3s-.154.143-.3.292-.139.157-.286.307-.176.122-.323.271-.116.181-.263.331-.165.132-.313.281-.151.146-.3.3-.154.143-.3.293l-.295.3c-.148.15-.154.143-.3.293s-.13.167-.277.317-.181.116-.328.265-.112.183-.259.332-.189.108-.336.257-.1.2-.244.348-.2.1-.345.249-.128.169-.275.319-.182.115-.329.265-.094.2-.241.351-.192.106-.339.255-.118.178-.265.328-.115.182-.262.332-.182.115-.329.265-.176.122-.323.271-.132.165-.28.315-.117.18-.264.329-.167.13-.315.281-.119.178-.266.328-.164.134-.311.284-.117.179-.265.329-.153.144-.3.294-.212.087-.359.237-.122.175-.269.325-.139.158-.286.308-.131.167-.279.316-.165.133-.313.283-.12.177-.268.327-.193.106-.341.257-.32.1-.239.3.17.048.38.048.21-.009.42-.009.21-.029.42-.029.21.058.421.058.21-.106.419-.106.21.074.42.074.21-.04.42-.04h.42c.21,0,.21.05.42.05s.21-.016.421-.016.21-.044.42-.044.21.07.421.07.21-.011.42-.011.21.022.421.022.21-.071.421-.071.21.036.421.036.21-.041.421-.041.21.072.421.072.21-.08.42-.08.21.069.421.069.21.018.421.018.21-.022.421-.022.211-.085.422-.085.38.263.453.065-.207-.145-.36-.3-.154-.154-.308-.309-.1-.21-.25-.366-.182-.127-.335-.283-.178-.13-.332-.286-.109-.2-.263-.354-.174-.135-.327-.291-.138-.172-.291-.327-.158-.151-.312-.307a2.168,2.168,0,0,1-.252-.342c-.08-.12-.212-.212-.267-.345a2.242,2.242,0,0,1-.1-.423,2.27,2.27,0,0,1-.008-.43,2.4,2.4,0,0,1-.019-.435,2.291,2.291,0,0,1,.119-.421,2.267,2.267,0,0,1,.194-.395c.079-.119.252-.163.355-.266a2.131,2.131,0,0,1,.31-.279,2.094,2.094,0,0,1,.36-.216,2.153,2.153,0,0,1,.393-.17,2.268,2.268,0,0,1,.428.037,2.294,2.294,0,0,1,.428-.037,2.193,2.193,0,0,1,.386.187,2.08,2.08,0,0,1,.361.208,2.108,2.108,0,0,1,.315.271c.146.149.179.037.365.226.083.084.13.235.241.348.09.091.167.211.273.318s.266.119.369.223l.292.3c.095.1.143.245.243.346s.187.2.287.3.25.141.349.242.12.271.218.371.227.167.325.266.228.167.326.267.143.251.241.35.222.175.319.274.167.229.264.328.229.17.325.268.237.163.333.261.136.264.231.36.254.148.348.244.177.228.27.322.221.19.31.281c.112.113.224.2.306.284.185.187.29.3.292.3a2.359,2.359,0,0,1,.279.34,2.329,2.329,0,0,1,.207.389,2.424,2.424,0,0,1,.037.44,2.165,2.165,0,0,1,.036.422,2.192,2.192,0,0,1-.023.421,2.122,2.122,0,0,1-.148.395,1.486,1.486,0,0,1-.377.771,2.292,2.292,0,0,1-.363.241,2.266,2.266,0,0,1-.357.249,2.686,2.686,0,0,1-.853.154c-.209,0-.209-.017-.419-.017s-.21-.022-.419-.022-.21.022-.419.022-.209-.018-.419-.018-.209-.05-.418-.05-.209.051-.418.051-.209.037-.419.037-.209-.024-.419-.024-.209.01-.419.01-.209.027-.419.027-.209-.058-.419-.058-.209.029-.419.029-.209.011-.419.011-.209-.071-.419-.071-.21.011-.419.011-.21.027-.419.027-.209-.033-.419-.033-.209.03-.419.03-.209.021-.419.021h-.419c-.209,0-.209-.032-.419-.032s-.209.011-.419.011-.21.015-.419.015-.21.037-.419.037-.209-.033-.419-.033-.209-.047-.419-.047-.209.014-.419.014-.21.026-.419.026-.21-.029-.419-.029-.209.024-.418.024-.209-.011-.419-.011-.209-.027-.419-.027-.209.065-.419.065-.21-.016-.419-.016-.21-.029-.419-.029-.209.024-.419.024-.21-.059-.419-.059-.21.011-.419.011-.21.07-.42.07-.209.013-.419.013l-.419,0c-.21,0-.21-.012-.42-.012s-.21-.078-.42-.078-.209.034-.419.034-.21.059-.42.059-.21-.026-.419-.026-.21.028-.42.028-.21-.044-.421-.044-.21.013-.421.013a2.186,2.186,0,0,1-.427-.039,13.736,13.736,0,0,0-.774-.352,1.669,1.669,0,0,1-.779-.993,2.179,2.179,0,0,1-.139-.4,2.219,2.219,0,0,1-.055-.427A2.366,2.366,0,0,1,87.924,51a2.29,2.29,0,0,1,.189-.4,2.293,2.293,0,0,1,.152-.409,2.231,2.231,0,0,1,.315-.3s.093-.115.283-.308c.082-.083.2-.167.31-.281.088-.09.175-.2.282-.308.091-.093.211-.171.315-.276s.193-.191.3-.3.159-.226.261-.329.2-.187.3-.289.2-.189.3-.291.172-.217.272-.319.225-.165.325-.266.155-.235.254-.336.22-.172.319-.273.159-.232.258-.333.191-.2.289-.3.254-.14.352-.24.185-.207.283-.308.177-.215.276-.316.173-.219.272-.319.238-.156.336-.256.185-.209.283-.308.192-.2.291-.3.141-.252.239-.352.23-.164.328-.263.164-.229.262-.329.218-.174.316-.274.238-.154.336-.254.14-.252.238-.351.246-.148.344-.247.129-.263.227-.362.222-.172.32-.271.208-.186.306-.285.214-.18.311-.279.169-.225.267-.324.191-.2.289-.3.2-.2.3-.3.2-.191.3-.29.169-.226.267-.326.207-.188.305-.288.224-.172.322-.271.194-.2.291-.3l.294-.3c.1-.1.217-.179.314-.279s.169-.226.267-.325.164-.231.261-.331.237-.159.334-.259.208-.188.305-.287.2-.2.3-.3.177-.218.275-.317.151-.244.248-.343.224-.172.321-.271.21-.186.307-.285.209-.187.306-.286.181-.214.279-.313.158-.238.255-.336.226-.171.323-.27.223-.174.32-.272.176-.221.273-.32.21-.188.306-.286.152-.245.249-.342.263-.136.36-.233.168-.23.263-.328l.293-.3c.1-.1.179-.221.274-.317s.255-.147.349-.243.169-.233.262-.328.189-.215.283-.309.242-.165.334-.259c.106-.108.155-.256.244-.346.113-.115.244-.182.325-.265.19-.193.1-.2.242-.346a2.287,2.287,0,0,1,.355-.244,2.131,2.131,0,0,1,.381-.185,2.22,2.22,0,0,1,.387-.2,6.853,6.853,0,0,0,.867,0,2.211,2.211,0,0,1,.393.183,2.078,2.078,0,0,1,.368.209,2.187,2.187,0,0,1,.3.294c.147.149.2.1.347.245s.154.141.3.291.151.144.3.293.127.168.273.317.159.137.3.286.082.212.228.361.207.089.353.238.094.2.24.349.138.157.284.306.161.135.307.284l.292.3c.147.149.165.131.311.28s.131.164.278.314.165.13.312.279.114.181.26.331.175.12.322.27.161.135.307.284.126.169.273.318.163.132.31.281.173.123.32.272.092.2.238.352.17.127.316.276.121.175.268.324.157.138.3.287.175.122.321.271.157.139.3.287.151.144.3.293.152.144.3.293.08.214.227.363.222.075.368.225.079.216.226.365.189.108.336.257.149.146.3.3.129.167.276.315.17.127.316.276.133.162.28.312.163.133.31.282l.293.3c.147.149.1.192.25.341s.193.1.339.254.153.144.3.293.087.209.233.358.173.123.32.272.132.164.278.312.129.166.275.315.156.14.3.288.182.114.328.263.113.183.26.332.182.114.329.263.119.176.265.325.155.141.3.29.132.163.279.313.178.119.324.268.16.136.307.285.143.153.29.3.121.175.268.324.127.169.274.318.2.092.352.242.093.2.24.352.2.1.346.247.138.157.286.307.134.162.281.311.128.168.275.317.151.146.3.295.148.148.3.3.168.13.315.279.168.129.315.279.146.151.293.3.082.215.229.365.145.152.292.3a2.117,2.117,0,0,1,.288.312,2.268,2.268,0,0,1,.243.359,2.385,2.385,0,0,1,.043.434,2.111,2.111,0,0,1,.059.417" transform="translate(-54.371 -17.539)"/><path class="c" d="M121.009,109.057a1.888,1.888,0,0,1-.428-.064,1.975,1.975,0,0,1-.427-.1,1.953,1.953,0,0,1-.369-.241,1.993,1.993,0,0,1-.32-.3,1.958,1.958,0,0,1-.214-.385,1.9,1.9,0,0,1-.139-.413,1.954,1.954,0,0,1-.1-.433,1.984,1.984,0,0,1,.065-.441,1.922,1.922,0,0,1,.189-.4,1.888,1.888,0,0,1,.233-.365c.093-.116.14-.276.256-.368a2.049,2.049,0,0,1,.393-.214,2.016,2.016,0,0,1,.433-.087c.142-.032.276-.159.427-.159a2.045,2.045,0,0,1,.448.07,2,2,0,0,1,.417.164,1.292,1.292,0,0,1,.71.541,2.042,2.042,0,0,1,.2.4,1.945,1.945,0,0,1,.142.417,2.033,2.033,0,0,1,.117.438,2.083,2.083,0,0,1-.053.453,2.022,2.022,0,0,1-.178.416,1.007,1.007,0,0,1-.587.658,2.028,2.028,0,0,1-.344.286,2.049,2.049,0,0,1-.421.168,2.222,2.222,0,0,1-.452-.042" transform="translate(-73.636 -65.02)"/><path class="c" d="M167.717,109.169a2.146,2.146,0,0,1-.452.022,2.047,2.047,0,0,1-.414-.181,2.632,2.632,0,0,1-.949-.925,2.087,2.087,0,0,1-.059-.446c-.032-.142-.146-.276-.146-.428a6.8,6.8,0,0,1,.222-.866,2.034,2.034,0,0,1,.286-.34,1.977,1.977,0,0,1,.277-.344,1.224,1.224,0,0,1,.8-.377,1.89,1.89,0,0,1,.878.011,1.936,1.936,0,0,1,.423.13,1.985,1.985,0,0,1,.353.265,1.125,1.125,0,0,1,.594.652,2.041,2.041,0,0,1,.085.438,2.008,2.008,0,0,1,.115.432,2.171,2.171,0,0,1,0,.459,2.09,2.09,0,0,1-.178.423c-.065.134-.242.2-.334.312a2.024,2.024,0,0,1-.258.36,1.461,1.461,0,0,1-1.239.4" transform="translate(-102.52 -65.113)"/><path class="c" d="M140.155,122.834c-.146,0-.286-.078-.431-.092s-.28-.066-.424-.09-.286-.029-.428-.064-.311.032-.45-.013-.248-.174-.384-.228-.29-.063-.421-.126-.217-.21-.344-.282-.291-.079-.412-.16-.183-.239-.3-.328-.239-.16-.348-.257a1.359,1.359,0,0,1-.306-.3,1.43,1.43,0,0,1-.2-.4,1.466,1.466,0,0,1,.043-.441,1.322,1.322,0,0,1,.113-.411,1.359,1.359,0,0,1,.193-.393,1.407,1.407,0,0,1,.327-.215.877.877,0,0,1,.727-.207,1.31,1.31,0,0,1,.482.106,1.394,1.394,0,0,1,.458.213c.1.088.161.23.269.307s.3.024.413.087.2.192.323.241a3.555,3.555,0,0,0,.386.1c.128.034.244.144.375.163s.274-.064.406-.062c.034,0,.033.039.066.039a3.373,3.373,0,0,0,.384-.047,3.513,3.513,0,0,0,.366-.121,3.608,3.608,0,0,0,.382-.055c.121-.043.286,0,.4-.051a3.519,3.519,0,0,0,.34-.2c.109-.069.172-.212.271-.294a1.377,1.377,0,0,1,.445-.159,1.255,1.255,0,0,1,.444-.093,1.291,1.291,0,0,1,.39.055,1.381,1.381,0,0,1,.39.118,1.415,1.415,0,0,1,.264.311c.1.118.309.172.361.306a1.592,1.592,0,0,1,0,.466,1.49,1.49,0,0,1,0,.449.993.993,0,0,1-.5.739c-.1.084-.187.2-.3.275s-.209.174-.322.244-.241.123-.358.186-.283.029-.4.084-.2.222-.321.27-.267.053-.394.092-.257.081-.386.112-.285-.07-.416-.047-.248.128-.38.143-.268-.056-.4-.05c-.085,0-.169.069-.254.069a.674.674,0,0,1-.14.017" transform="translate(-83.96 -73.522)"/></g></svg>