<svg xmlns="http://www.w3.org/2000/svg" width="22.24" height="30.56" viewBox="0 0 22.24 30.56"><defs><style>.a{fill:#e54600;}</style></defs><path class="a" d="M12.32-3.424c-3.52,0-5.76-3.2-5.76-8.512,0-5.088,2.24-8.128,5.76-8.128s5.76,3.04,5.76,8.128C18.08-6.624,15.84-3.424,12.32-3.424Zm7.648,9.856a10.177,10.177,0,0,0,4-.7L23.1,2.24a8.362,8.362,0,0,1-2.592.384A6.066,6.066,0,0,1,15.136.1c4.7-1.216,7.776-5.568,7.776-12.032,0-7.68-4.32-12.192-10.592-12.192S1.728-19.648,1.728-11.936C1.728-5.184,5.088-.7,10.144.256A10.342,10.342,0,0,0,19.968,6.432Z" transform="translate(-1.728 24.128)"/></svg>