<svg xmlns="http://www.w3.org/2000/svg" xmlns:xlink="http://www.w3.org/1999/xlink" width="110.687" height="70.966" viewBox="0 0 110.687 70.966"><defs><style>.a{fill:none;}.b{fill:#fff;}.c{fill:#150c15;}.d{clip-path:url(#a);}.e{fill:#8e775d;}.f{fill:#e0f1f1;}.g{fill:#e6cd8c;}.h{fill:#e4c6a6;}.i{clip-path:url(#b);}.j{fill:#1a1311;}.k{fill:#78bdc5;}</style><clipPath id="a"><rect class="a" width="73.051" height="70.966"/></clipPath><clipPath id="b"><rect class="a" width="32.231" height="42.65"/></clipPath></defs><g transform="translate(-564.544 -1727.21)"><g transform="translate(564.544 1727.21)"><path class="b" d="M81.1,76.8H16.387V46.654l32.51-7.04V21.887l16.8-12.2,15.4,12.2Z" transform="translate(-10.857 -6.42)"/><path class="c" d="M15.767,45.769l32.577-7.055V20.819L64.727,8.926l15,11.882V75.171H15.767Zm31.7-25.405V38L14.886,45.051V76.06H80.607V20.376L64.75,7.814Z" transform="translate(-9.862 -5.177)"/><g class="d"><path class="e" d="M121.882,13.915l16.349-11.77a3.507,3.507,0,0,1,4.215.088l14.911,11.714a1.265,1.265,0,0,1-.781,2.259h-.407a1.265,1.265,0,0,1-.8-.285L142.484,5.4a3.507,3.507,0,0,0-4.266-.129L123.36,15.967a1.265,1.265,0,0,1-1.478-2.053" transform="translate(-85.24 -1.042)"/><path class="c" d="M155.52,15.61h-.407a1.716,1.716,0,0,1-1.082-.385L141.146,4.708a3.066,3.066,0,0,0-3.723-.113L122.564,15.288a1.711,1.711,0,1,1-2-2.777L136.914.74a3.973,3.973,0,0,1,4.752.1l14.911,11.713a1.711,1.711,0,0,1-1.057,3.057M139.209,3.128a3.949,3.949,0,0,1,2.5.889L154.6,14.533a.82.82,0,0,0,.518.184h.407a.818.818,0,0,0,.505-1.461L141.114,1.542a3.075,3.075,0,0,0-3.679-.077l-16.349,11.77a.818.818,0,0,0,.478,1.482.81.81,0,0,0,.477-.154L136.9,3.87a3.947,3.947,0,0,1,2.308-.743" transform="translate(-84.183 0)"/><path class="e" d="M121.882,136.976l16.349-11.77a3.507,3.507,0,0,1,4.215.088l14.911,11.714a1.265,1.265,0,0,1-.781,2.259h-.407a1.265,1.265,0,0,1-.8-.285l-12.886-10.516a3.507,3.507,0,0,0-4.266-.129L123.36,139.029a1.265,1.265,0,0,1-1.478-2.053" transform="translate(-85.24 -87.482)"/><path class="c" d="M155.52,138.671h-.407a1.716,1.716,0,0,1-1.082-.385L141.146,127.77a3.066,3.066,0,0,0-3.723-.113l-14.859,10.692a1.711,1.711,0,1,1-2-2.777l16.349-11.77a3.973,3.973,0,0,1,4.752.1l14.911,11.714a1.711,1.711,0,0,1-1.057,3.057m-16.311-12.482a3.949,3.949,0,0,1,2.5.889L154.6,137.594a.82.82,0,0,0,.518.184h.407a.818.818,0,0,0,.505-1.461L141.114,124.6a3.076,3.076,0,0,0-3.679-.077L121.086,136.3a.818.818,0,0,0,.478,1.482.81.81,0,0,0,.477-.154L136.9,126.932a3.947,3.947,0,0,1,2.308-.743" transform="translate(-84.183 -86.439)"/><path class="e" d="M39.653,104.458,3.47,112.338a1.623,1.623,0,0,1-.691-3.172l36.183-7.88a1.623,1.623,0,1,1,.691,3.172" transform="translate(-1.054 -71.117)"/><path class="c" d="M2.066,111.769a2.07,2.07,0,0,1-.437-4.092L37.813,99.8a2.07,2.07,0,1,1,.881,4.045L2.51,111.721a2.086,2.086,0,0,1-.444.048m36.189-11.127a1.179,1.179,0,0,0-.253.027l-36.183,7.88a1.184,1.184,0,0,0-.926,1.15,1.177,1.177,0,0,0,1.428,1.15l36.183-7.88a1.177,1.177,0,0,0-.248-2.327" transform="translate(0 -70.064)"/><path class="f" d="M158.275,67.041H142.834a1.394,1.394,0,0,1-1.394-1.394V54.258a1.394,1.394,0,0,1,1.394-1.394h15.441Z" transform="translate(-99.349 -37.132)"/><path class="c" d="M157.573,66.636H142.132a1.694,1.694,0,0,1-1.692-1.692V53.556a1.694,1.694,0,0,1,1.692-1.692h15.441a.3.3,0,0,1,.3.3V66.339a.3.3,0,0,1-.3.3M142.132,52.459a1.1,1.1,0,0,0-1.1,1.1V64.944a1.1,1.1,0,0,0,1.1,1.1h15.144V52.459Z" transform="translate(-98.646 -36.43)"/><path class="g" d="M204.925,67.041h-6.7V52.864h6.7A1.133,1.133,0,0,1,206.058,54v11.91a1.133,1.133,0,0,1-1.133,1.134" transform="translate(-139.234 -37.132)"/><path class="c" d="M204.223,66.636h-7V51.864h7a1.433,1.433,0,0,1,1.431,1.431v11.91a1.433,1.433,0,0,1-1.431,1.431m-6.4-.6h6.4a.837.837,0,0,0,.836-.836V53.295a.837.837,0,0,0-.836-.836h-6.4Z" transform="translate(-138.532 -36.43)"/><rect class="c" width="0.595" height="13.734" transform="translate(49.99 15.732)"/><path class="f" d="M52.959,176.25H69.7a1.394,1.394,0,0,0,1.394-1.394V155.492A1.394,1.394,0,0,0,69.7,154.1H52.959Z" transform="translate(-37.199 -108.24)"/><path class="c" d="M69,175.844H52.256a.3.3,0,0,1-.3-.3V153.395a.3.3,0,0,1,.3-.3H69a1.694,1.694,0,0,1,1.692,1.692v19.363A1.694,1.694,0,0,1,69,175.844m-16.444-.6H69a1.1,1.1,0,0,0,1.1-1.1V154.789a1.1,1.1,0,0,0-1.1-1.1H52.553Z" transform="translate(-36.496 -107.536)"/><path class="g" d="M25.5,176.25H32.81V154.1H25.5a1.133,1.133,0,0,0-1.134,1.133v19.885A1.133,1.133,0,0,0,25.5,176.25" transform="translate(-17.118 -108.24)"/><path class="c" d="M32.406,175.844H24.8a1.433,1.433,0,0,1-1.431-1.431V154.528A1.433,1.433,0,0,1,24.8,153.1h7.6Zm-7.6-22.152a.837.837,0,0,0-.836.836v19.885a.837.837,0,0,0,.836.836H31.81V153.692Z" transform="translate(-16.416 -107.536)"/><rect class="c" width="0.595" height="21.459" transform="translate(24.769 45.858)"/><path class="h" d="M166.711,187.051H143.673v-19.16a1.884,1.884,0,0,1,1.884-1.884h19.27a1.884,1.884,0,0,1,1.884,1.884Z" transform="translate(-100.917 -116.605)"/><path class="c" d="M166.1,186.444h-23.93V166.837a2.333,2.333,0,0,1,2.33-2.33h19.27a2.333,2.333,0,0,1,2.33,2.33Zm-23.038-.893h22.145V166.837a1.439,1.439,0,0,0-1.437-1.437H144.5a1.439,1.439,0,0,0-1.437,1.437Z" transform="translate(-99.864 -115.551)"/><path class="c" d="M166.089,181.233H143.716a.3.3,0,1,1,0-.6h22.373a.3.3,0,1,1,0,.6" transform="translate(-100.738 -126.882)"/><path class="c" d="M182.365,187.471a.3.3,0,0,1-.3-.3V166.794a.3.3,0,0,1,.6,0v20.379a.3.3,0,0,1-.3.3" transform="translate(-127.885 -116.948)"/><path class="c" d="M208.79,199.416a.3.3,0,0,1-.3-.3V183.17a.3.3,0,1,1,.6,0v15.949a.3.3,0,0,1-.3.3" transform="translate(-146.446 -128.451)"/><path class="c" d="M195.578,199.416a.3.3,0,0,1-.3-.3V183.17a.3.3,0,1,1,.6,0v15.949a.3.3,0,0,1-.3.3" transform="translate(-137.166 -128.451)"/><path class="c" d="M169.153,199.416a.3.3,0,0,1-.3-.3V183.17a.3.3,0,1,1,.6,0v15.949a.3.3,0,0,1-.3.3" transform="translate(-118.605 -128.451)"/><path class="c" d="M155.941,199.416a.3.3,0,0,1-.3-.3V183.17a.3.3,0,1,1,.6,0v15.949a.3.3,0,0,1-.3.3" transform="translate(-109.325 -128.451)"/></g></g><g transform="translate(643 1755.526)"><g class="i"><path class="b" d="M30.178,43.2H4.1a2.6,2.6,0,0,1-2.6-2.6V4.1A2.6,2.6,0,0,1,4.1,1.5H30.178a2.6,2.6,0,0,1,2.6,2.6V40.6a2.6,2.6,0,0,1-2.6,2.6" transform="translate(-1.025 -1.024)"/><path class="j" d="M29.153,42.65H3.078A3.081,3.081,0,0,1,0,39.573V3.078A3.081,3.081,0,0,1,3.078,0H29.153a3.081,3.081,0,0,1,3.078,3.078v36.5a3.081,3.081,0,0,1-3.078,3.078M3.078.952A2.128,2.128,0,0,0,.952,3.078v36.5A2.128,2.128,0,0,0,3.078,41.7H29.153a2.129,2.129,0,0,0,2.126-2.126V3.078A2.129,2.129,0,0,0,29.153.952Z"/><path class="b" d="M32.779,12.813V4.1a2.6,2.6,0,0,0-2.6-2.6H4.1A2.6,2.6,0,0,0,1.5,4.1v8.71Z" transform="translate(-1.024 -1.025)"/><path class="j" d="M31.755,12.264H.476A.476.476,0,0,1,0,11.788V3.078A3.081,3.081,0,0,1,3.078,0H29.153a3.081,3.081,0,0,1,3.078,3.078v8.71a.476.476,0,0,1-.476.476m-30.8-.952H31.279V3.078A2.128,2.128,0,0,0,29.153.952H3.078A2.128,2.128,0,0,0,.952,3.078Z"/><rect class="k" width="22.547" height="4.695" transform="translate(4.842 4.462)"/><path class="j" d="M36.789,18.215H14.242a.476.476,0,0,1-.476-.476V13.045a.476.476,0,0,1,.476-.476H36.789a.476.476,0,0,1,.476.476v4.694a.476.476,0,0,1-.476.476m-22.071-.952h21.6V13.52h-21.6Z" transform="translate(-9.4 -8.582)"/><path class="b" d="M16.261,49.8h-1.87a1.236,1.236,0,0,1-1.236-1.236V46.7a1.236,1.236,0,0,1,1.236-1.236h1.87A1.236,1.236,0,0,1,17.5,46.7v1.87A1.236,1.236,0,0,1,16.261,49.8" transform="translate(-8.983 -31.042)"/><path class="j" d="M15.237,49.254h-1.87a1.714,1.714,0,0,1-1.712-1.712v-1.87a1.714,1.714,0,0,1,1.712-1.712h1.87a1.714,1.714,0,0,1,1.712,1.712v1.87a1.714,1.714,0,0,1-1.712,1.712m-1.87-4.342a.762.762,0,0,0-.761.761v1.87a.761.761,0,0,0,.761.76h1.87a.761.761,0,0,0,.761-.76v-1.87a.762.762,0,0,0-.761-.761Z" transform="translate(-7.958 -30.017)"/><path class="b" d="M36.8,49.8h-1.87a1.236,1.236,0,0,1-1.236-1.236V46.7a1.236,1.236,0,0,1,1.236-1.236H36.8A1.236,1.236,0,0,1,38.036,46.7v1.87A1.236,1.236,0,0,1,36.8,49.8" transform="translate(-23.006 -31.042)"/><path class="j" d="M35.776,49.254h-1.87a1.714,1.714,0,0,1-1.712-1.712v-1.87a1.714,1.714,0,0,1,1.712-1.712h1.87a1.714,1.714,0,0,1,1.712,1.712v1.87a1.714,1.714,0,0,1-1.712,1.712m-1.87-4.342a.762.762,0,0,0-.761.761v1.87a.761.761,0,0,0,.761.76h1.87a.761.761,0,0,0,.76-.76v-1.87a.761.761,0,0,0-.76-.761Z" transform="translate(-21.983 -30.017)"/><path class="b" d="M57.338,49.8h-1.87a1.236,1.236,0,0,1-1.236-1.236V46.7a1.236,1.236,0,0,1,1.236-1.236h1.87A1.236,1.236,0,0,1,58.575,46.7v1.87A1.236,1.236,0,0,1,57.338,49.8" transform="translate(-37.031 -31.042)"/><path class="j" d="M56.314,49.254h-1.87a1.714,1.714,0,0,1-1.712-1.712v-1.87a1.714,1.714,0,0,1,1.712-1.712h1.87a1.714,1.714,0,0,1,1.712,1.712v1.87a1.714,1.714,0,0,1-1.712,1.712m-1.87-4.342a.762.762,0,0,0-.761.761v1.87a.761.761,0,0,0,.761.76h1.87a.761.761,0,0,0,.76-.76v-1.87a.761.761,0,0,0-.76-.761Z" transform="translate(-36.007 -30.017)"/><path class="b" d="M77.877,49.8h-1.87a1.236,1.236,0,0,1-1.236-1.236V46.7a1.236,1.236,0,0,1,1.236-1.236h1.87A1.236,1.236,0,0,1,79.114,46.7v1.87A1.236,1.236,0,0,1,77.877,49.8" transform="translate(-51.055 -31.042)"/><path class="j" d="M76.853,49.254h-1.87a1.714,1.714,0,0,1-1.712-1.712v-1.87a1.714,1.714,0,0,1,1.712-1.712h1.87a1.714,1.714,0,0,1,1.712,1.712v1.87a1.714,1.714,0,0,1-1.712,1.712m-1.87-4.342a.762.762,0,0,0-.761.761v1.87a.761.761,0,0,0,.761.76h1.87a.761.761,0,0,0,.761-.76v-1.87a.762.762,0,0,0-.761-.761Z" transform="translate(-50.031 -30.017)"/><path class="b" d="M16.261,70.2h-1.87a1.236,1.236,0,0,1-1.236-1.236V67.1a1.236,1.236,0,0,1,1.236-1.236h1.87A1.236,1.236,0,0,1,17.5,67.1v1.87A1.236,1.236,0,0,1,16.261,70.2" transform="translate(-8.983 -44.971)"/><path class="j" d="M15.237,69.654h-1.87a1.714,1.714,0,0,1-1.712-1.712v-1.87a1.714,1.714,0,0,1,1.712-1.712h1.87a1.714,1.714,0,0,1,1.712,1.712v1.87a1.714,1.714,0,0,1-1.712,1.712m-1.87-4.342a.761.761,0,0,0-.761.76v1.87a.762.762,0,0,0,.761.761h1.87A.762.762,0,0,0,16,67.942v-1.87a.761.761,0,0,0-.761-.76Z" transform="translate(-7.958 -43.946)"/><path class="b" d="M36.8,70.2h-1.87a1.236,1.236,0,0,1-1.236-1.236V67.1a1.236,1.236,0,0,1,1.236-1.236H36.8A1.236,1.236,0,0,1,38.036,67.1v1.87A1.236,1.236,0,0,1,36.8,70.2" transform="translate(-23.006 -44.971)"/><path class="j" d="M35.776,69.654h-1.87a1.714,1.714,0,0,1-1.712-1.712v-1.87a1.714,1.714,0,0,1,1.712-1.712h1.87a1.714,1.714,0,0,1,1.712,1.712v1.87a1.714,1.714,0,0,1-1.712,1.712m-1.87-4.342a.761.761,0,0,0-.761.76v1.87a.762.762,0,0,0,.761.761h1.87a.761.761,0,0,0,.76-.761v-1.87a.761.761,0,0,0-.76-.76Z" transform="translate(-21.983 -43.946)"/><path class="b" d="M57.338,70.2h-1.87a1.236,1.236,0,0,1-1.236-1.236V67.1a1.236,1.236,0,0,1,1.236-1.236h1.87A1.236,1.236,0,0,1,58.575,67.1v1.87A1.236,1.236,0,0,1,57.338,70.2" transform="translate(-37.031 -44.971)"/><path class="j" d="M56.314,69.654h-1.87a1.714,1.714,0,0,1-1.712-1.712v-1.87a1.714,1.714,0,0,1,1.712-1.712h1.87a1.714,1.714,0,0,1,1.712,1.712v1.87a1.714,1.714,0,0,1-1.712,1.712m-1.87-4.342a.761.761,0,0,0-.761.76v1.87a.762.762,0,0,0,.761.761h1.87a.761.761,0,0,0,.76-.761v-1.87a.761.761,0,0,0-.76-.76Z" transform="translate(-36.007 -43.946)"/><path class="b" d="M77.877,70.2h-1.87a1.236,1.236,0,0,1-1.236-1.236V67.1a1.236,1.236,0,0,1,1.236-1.236h1.87A1.236,1.236,0,0,1,79.114,67.1v1.87A1.236,1.236,0,0,1,77.877,70.2" transform="translate(-51.055 -44.971)"/><path class="j" d="M76.853,69.654h-1.87a1.714,1.714,0,0,1-1.712-1.712v-1.87a1.714,1.714,0,0,1,1.712-1.712h1.87a1.714,1.714,0,0,1,1.712,1.712v1.87a1.714,1.714,0,0,1-1.712,1.712m-1.87-4.342a.761.761,0,0,0-.761.76v1.87a.762.762,0,0,0,.761.761h1.87a.762.762,0,0,0,.761-.761v-1.87a.761.761,0,0,0-.761-.76Z" transform="translate(-50.031 -43.946)"/><path class="b" d="M16.261,90.6h-1.87a1.236,1.236,0,0,1-1.236-1.236V87.5a1.236,1.236,0,0,1,1.236-1.236h1.87A1.236,1.236,0,0,1,17.5,87.5v1.87A1.236,1.236,0,0,1,16.261,90.6" transform="translate(-8.983 -58.9)"/><path class="j" d="M15.237,90.052h-1.87a1.714,1.714,0,0,1-1.712-1.712V86.47a1.714,1.714,0,0,1,1.712-1.712h1.87a1.714,1.714,0,0,1,1.712,1.712v1.87a1.714,1.714,0,0,1-1.712,1.712m-1.87-4.342a.762.762,0,0,0-.761.761v1.87a.761.761,0,0,0,.761.76h1.87A.761.761,0,0,0,16,88.34V86.47a.762.762,0,0,0-.761-.761Z" transform="translate(-7.958 -57.875)"/><path class="b" d="M36.8,90.6h-1.87a1.236,1.236,0,0,1-1.236-1.236V87.5a1.236,1.236,0,0,1,1.236-1.236H36.8A1.236,1.236,0,0,1,38.036,87.5v1.87A1.236,1.236,0,0,1,36.8,90.6" transform="translate(-23.006 -58.9)"/><path class="j" d="M35.776,90.052h-1.87a1.714,1.714,0,0,1-1.712-1.712V86.47a1.714,1.714,0,0,1,1.712-1.712h1.87a1.714,1.714,0,0,1,1.712,1.712v1.87a1.714,1.714,0,0,1-1.712,1.712m-1.87-4.342a.762.762,0,0,0-.761.761v1.87a.761.761,0,0,0,.761.76h1.87a.761.761,0,0,0,.76-.76V86.47a.761.761,0,0,0-.76-.761Z" transform="translate(-21.983 -57.875)"/><path class="b" d="M57.338,90.6h-1.87a1.236,1.236,0,0,1-1.236-1.236V87.5a1.236,1.236,0,0,1,1.236-1.236h1.87A1.236,1.236,0,0,1,58.575,87.5v1.87A1.236,1.236,0,0,1,57.338,90.6" transform="translate(-37.031 -58.9)"/><path class="j" d="M56.314,90.052h-1.87a1.714,1.714,0,0,1-1.712-1.712V86.47a1.714,1.714,0,0,1,1.712-1.712h1.87a1.714,1.714,0,0,1,1.712,1.712v1.87a1.714,1.714,0,0,1-1.712,1.712m-1.87-4.342a.762.762,0,0,0-.761.761v1.87a.761.761,0,0,0,.761.76h1.87a.761.761,0,0,0,.76-.76V86.47a.761.761,0,0,0-.76-.761Z" transform="translate(-36.007 -57.875)"/><path class="b" d="M77.877,97.071h-1.87a1.236,1.236,0,0,1-1.236-1.236v-8.34a1.236,1.236,0,0,1,1.236-1.236h1.87a1.236,1.236,0,0,1,1.236,1.236v8.34a1.236,1.236,0,0,1-1.236,1.236" transform="translate(-51.055 -58.899)"/><path class="j" d="M76.853,96.522h-1.87a1.714,1.714,0,0,1-1.712-1.712V86.47a1.714,1.714,0,0,1,1.712-1.712h1.87a1.714,1.714,0,0,1,1.712,1.712v8.34a1.714,1.714,0,0,1-1.712,1.712M74.983,85.71a.762.762,0,0,0-.761.761v8.34a.761.761,0,0,0,.761.761h1.87a.761.761,0,0,0,.761-.761V86.47a.762.762,0,0,0-.761-.761Z" transform="translate(-50.031 -57.875)"/><path class="b" d="M16.261,111h-1.87a1.236,1.236,0,0,1-1.236-1.236v-1.87a1.236,1.236,0,0,1,1.236-1.236h1.87a1.236,1.236,0,0,1,1.236,1.236v1.87A1.236,1.236,0,0,1,16.261,111" transform="translate(-8.983 -72.828)"/><path class="j" d="M15.237,110.451h-1.87a1.714,1.714,0,0,1-1.712-1.712v-1.87a1.714,1.714,0,0,1,1.712-1.712h1.87a1.714,1.714,0,0,1,1.712,1.712v1.87a1.714,1.714,0,0,1-1.712,1.712m-1.87-4.342a.762.762,0,0,0-.761.761v1.87a.761.761,0,0,0,.761.76h1.87a.761.761,0,0,0,.761-.76v-1.87a.762.762,0,0,0-.761-.761Z" transform="translate(-7.958 -71.804)"/><path class="b" d="M36.8,111h-1.87a1.236,1.236,0,0,1-1.236-1.236v-1.87a1.236,1.236,0,0,1,1.236-1.236H36.8a1.236,1.236,0,0,1,1.236,1.236v1.87A1.236,1.236,0,0,1,36.8,111" transform="translate(-23.006 -72.828)"/><path class="j" d="M35.776,110.451h-1.87a1.714,1.714,0,0,1-1.712-1.712v-1.87a1.714,1.714,0,0,1,1.712-1.712h1.87a1.714,1.714,0,0,1,1.712,1.712v1.87a1.714,1.714,0,0,1-1.712,1.712m-1.87-4.342a.762.762,0,0,0-.761.761v1.87a.761.761,0,0,0,.761.76h1.87a.761.761,0,0,0,.76-.76v-1.87a.761.761,0,0,0-.76-.761Z" transform="translate(-21.983 -71.804)"/><path class="b" d="M57.338,111h-1.87a1.236,1.236,0,0,1-1.236-1.236v-1.87a1.236,1.236,0,0,1,1.236-1.236h1.87a1.236,1.236,0,0,1,1.236,1.236v1.87A1.236,1.236,0,0,1,57.338,111" transform="translate(-37.031 -72.828)"/><path class="j" d="M56.314,110.451h-1.87a1.714,1.714,0,0,1-1.712-1.712v-1.87a1.714,1.714,0,0,1,1.712-1.712h1.87a1.714,1.714,0,0,1,1.712,1.712v1.87a1.714,1.714,0,0,1-1.712,1.712m-1.87-4.342a.762.762,0,0,0-.761.761v1.87a.761.761,0,0,0,.761.76h1.87a.761.761,0,0,0,.76-.76v-1.87a.761.761,0,0,0-.76-.761Z" transform="translate(-36.007 -71.804)"/></g></g></g></svg>