<svg xmlns="http://www.w3.org/2000/svg" xmlns:xlink="http://www.w3.org/1999/xlink" width="115" height="94.95" viewBox="0 0 115 94.95"><defs><style>.a{fill:none;}.b{fill:#fff;}.c{fill:#150c15;}.d{clip-path:url(#a);}.e{fill:#8e775d;}.f{fill:#e0f1f1;}.g{fill:#e6cd8c;}.h{fill:#e4c6a6;}.i{opacity:0.8;}.j{fill:#c8e9fb;}.k{clip-path:url(#b);}.l{fill:#1a1311;}.m{fill:#25b57b;}</style><clipPath id="a"><rect class="a" width="59.207" height="57.517"/></clipPath><clipPath id="b"><rect class="a" width="50.65" height="64.208"/></clipPath></defs><g transform="translate(-1166 -1723.551)"><g transform="translate(5.207 7)"><g transform="translate(1160.793 1723.241)"><path class="b" d="M68.833,64.08H16.387V39.649l26.349-5.706V19.576L56.354,9.691l12.479,9.885Z" transform="translate(-11.905 -7.04)"/><path class="c" d="M15.6,38.576,42,32.858v-14.5l13.278-9.64,12.157,9.63V62.406H15.6ZM41.289,17.986v14.29l-26.4,5.718V63.127H68.152V18L55.3,7.814Z" transform="translate(-10.814 -5.677)"/><g class="d"><path class="e" d="M121.782,11.559,135.033,2.02a2.842,2.842,0,0,1,3.417.071l12.085,9.494a1.025,1.025,0,0,1-.633,1.831h-.33a1.025,1.025,0,0,1-.648-.231L138.48,4.662a2.843,2.843,0,0,0-3.458-.1L122.98,13.223a1.025,1.025,0,0,1-1.2-1.664" transform="translate(-92.084 -1.126)"/><path class="c" d="M148.76,12.651h-.33a1.39,1.39,0,0,1-.877-.312L137.11,3.816a2.485,2.485,0,0,0-3.018-.091L122.049,12.39a1.387,1.387,0,1,1-1.62-2.251L133.68.6a3.22,3.22,0,0,1,3.852.081l12.085,9.493a1.387,1.387,0,0,1-.856,2.477M135.541,2.535a3.2,3.2,0,0,1,2.027.72l10.444,8.523a.665.665,0,0,0,.419.149h.33a.663.663,0,0,0,.41-1.185L137.085,1.25a2.493,2.493,0,0,0-2.982-.062l-13.251,9.539a.663.663,0,0,0,.388,1.2.656.656,0,0,0,.387-.125L133.67,3.137a3.2,3.2,0,0,1,1.871-.6" transform="translate(-90.943 0)"/><path class="e" d="M121.782,134.621l13.251-9.54a2.843,2.843,0,0,1,3.417.072l12.085,9.494a1.025,1.025,0,0,1-.633,1.831h-.33a1.025,1.025,0,0,1-.648-.231l-10.444-8.523a2.843,2.843,0,0,0-3.458-.1l-12.043,8.666a1.025,1.025,0,0,1-1.2-1.664" transform="translate(-92.084 -94.506)"/><path class="c" d="M148.76,135.713h-.33a1.39,1.39,0,0,1-.877-.312l-10.444-8.523a2.485,2.485,0,0,0-3.018-.091l-12.043,8.666a1.387,1.387,0,1,1-1.62-2.251l13.251-9.54a3.22,3.22,0,0,1,3.852.081l12.085,9.494a1.387,1.387,0,0,1-.856,2.477M135.541,125.6a3.2,3.2,0,0,1,2.027.72l10.444,8.523a.664.664,0,0,0,.419.149h.33a.663.663,0,0,0,.41-1.185l-12.085-9.494a2.493,2.493,0,0,0-2.982-.062l-13.251,9.539a.663.663,0,0,0,.388,1.2.656.656,0,0,0,.387-.125L133.67,126.2a3.2,3.2,0,0,1,1.871-.6" transform="translate(-90.943 -93.379)"/><path class="e" d="M32.423,103.85,3.1,110.236a1.316,1.316,0,0,1-.56-2.571l29.326-6.387a1.316,1.316,0,1,1,.56,2.571" transform="translate(-1.139 -76.827)"/><path class="c" d="M1.675,109.491a1.678,1.678,0,0,1-.354-3.317l29.326-6.387a1.677,1.677,0,1,1,.714,3.278L2.034,109.452a1.69,1.69,0,0,1-.36.039m29.331-9.019a.956.956,0,0,0-.2.022L1.474,106.881a.959.959,0,0,0-.751.932.954.954,0,0,0,1.157.932l29.326-6.386a.954.954,0,0,0-.2-1.886" transform="translate(0 -75.689)"/><path class="f" d="M155.085,64.354H142.57a1.13,1.13,0,0,1-1.13-1.13V53.994a1.13,1.13,0,0,1,1.13-1.13h12.515Z" transform="translate(-107.325 -40.113)"/><path class="c" d="M154.326,63.837H141.811a1.373,1.373,0,0,1-1.371-1.371v-9.23a1.373,1.373,0,0,1,1.371-1.371h12.515a.241.241,0,0,1,.241.241V63.6a.241.241,0,0,1-.241.241m-12.515-11.49a.89.89,0,0,0-.889.889v9.23a.89.89,0,0,0,.889.889h12.274V52.346Z" transform="translate(-106.566 -39.355)"/><path class="g" d="M203.655,64.354h-5.431V52.864h5.431a.919.919,0,0,1,.918.918v9.653a.919.919,0,0,1-.918.919" transform="translate(-150.413 -40.113)"/><path class="c" d="M202.9,63.837h-5.672V51.864H202.9a1.161,1.161,0,0,1,1.16,1.16v9.653a1.161,1.161,0,0,1-1.16,1.16m-5.19-.482h5.19a.678.678,0,0,0,.677-.678V53.024a.678.678,0,0,0-.677-.677h-5.19Z" transform="translate(-149.655 -39.355)"/><rect class="c" width="0.482" height="11.131" transform="translate(40.516 12.751)"/><path class="f" d="M52.959,172.052H66.528a1.13,1.13,0,0,0,1.13-1.13V155.228a1.13,1.13,0,0,0-1.13-1.13H52.959Z" transform="translate(-40.185 -116.93)"/><path class="c" d="M65.768,171.533H52.2a.241.241,0,0,1-.241-.241V153.338a.241.241,0,0,1,.241-.241H65.768a1.373,1.373,0,0,1,1.371,1.371v15.694a1.373,1.373,0,0,1-1.371,1.371m-13.328-.482H65.768a.89.89,0,0,0,.889-.889V154.468a.89.89,0,0,0-.889-.889H52.44Z" transform="translate(-39.426 -116.171)"/><path class="g" d="M25.29,172.052h5.921V154.1H25.29a.919.919,0,0,0-.919.918v16.116a.919.919,0,0,0,.919.919" transform="translate(-18.493 -116.93)"/><path class="c" d="M30.693,171.533H24.531a1.161,1.161,0,0,1-1.16-1.16V154.257a1.161,1.161,0,0,1,1.16-1.16h6.163Zm-6.163-17.954a.678.678,0,0,0-.678.678v16.116a.678.678,0,0,0,.678.678h5.68V153.579Z" transform="translate(-17.734 -116.171)"/><rect class="c" width="0.482" height="17.393" transform="translate(20.075 37.168)"/><path class="h" d="M162.345,183.063H143.673V167.534a1.527,1.527,0,0,1,1.527-1.527h15.618a1.527,1.527,0,0,1,1.527,1.527Z" transform="translate(-109.02 -125.967)"/><path class="c" d="M161.569,182.287h-19.4V166.4a1.891,1.891,0,0,1,1.888-1.889h15.618a1.891,1.891,0,0,1,1.889,1.889Zm-18.672-.724h17.948V166.4a1.166,1.166,0,0,0-1.165-1.165H144.062A1.166,1.166,0,0,0,142.9,166.4Z" transform="translate(-107.882 -124.829)"/><path class="c" d="M161.793,181.12H143.659a.241.241,0,1,1,0-.482h18.133a.241.241,0,1,1,0,.482" transform="translate(-108.826 -137.069)"/><path class="c" d="M182.308,183.5a.241.241,0,0,1-.241-.241V166.737a.241.241,0,1,1,.482,0v16.517a.241.241,0,0,1-.241.241" transform="translate(-138.153 -126.338)"/><path class="c" d="M208.733,196.281a.241.241,0,0,1-.241-.241V183.113a.241.241,0,1,1,.482,0V196.04a.241.241,0,0,1-.241.241" transform="translate(-158.204 -138.764)"/><path class="c" d="M195.521,196.281a.241.241,0,0,1-.241-.241V183.113a.241.241,0,1,1,.482,0V196.04a.241.241,0,0,1-.241.241" transform="translate(-148.179 -138.764)"/><path class="c" d="M169.1,196.281a.241.241,0,0,1-.241-.241V183.113a.241.241,0,1,1,.482,0V196.04a.241.241,0,0,1-.241.241" transform="translate(-128.128 -138.764)"/><path class="c" d="M155.884,196.281a.241.241,0,0,1-.241-.241V183.113a.241.241,0,1,1,.482,0V196.04a.241.241,0,0,1-.241.241" transform="translate(-118.102 -138.764)"/></g></g><g class="i" transform="translate(1225.143 1716.551)"><path class="e" d="M55.783,6.688V9.971H6.687V6.688Z" transform="translate(-5.91 -5.911)"/><path class="b" d="M68.609,34.954V45.871H62.995V40.63H49.851v5.241H42.6V40.63H29.456v5.241H23.718V34.954Z" transform="translate(-20.963 -30.893)"/><path class="b" d="M68.609,211.951v9.985H59.256v-6.4H33.009v6.4H23.718v-9.985H68.609Z" transform="translate(-20.963 -187.331)"/><path class="b" d="M68.609,380.924v19.183h-4.92V387.885h-7.6v12.222H47.313V385.72H31.963v14.387H23.718V380.924H68.609Z" transform="translate(-20.963 -336.676)"/><path class="j" d="M167.578,436.5v.093h-7.789V422.209h7.789Z" transform="translate(-141.227 -373.165)"/><path class="j" d="M102.258,436.409v.186H94.7V422.208h7.561v14.2Z" transform="translate(-83.696 -373.164)"/><path class="j" d="M110.259,249.008v.2H103.7v-6.4h6.556Z" transform="translate(-91.656 -214.6)"/><path class="j" d="M166.743,249.008v.2h-6.6v-6.4h6.6Z" transform="translate(-141.542 -214.6)"/><path class="j" d="M223.585,249.008v.2h-6.639v-6.4h6.639Z" transform="translate(-191.745 -214.6)"/><path class="j" d="M280.555,249.07v.135H274.1v-6.4h6.453Z" transform="translate(-242.262 -214.6)"/><path class="j" d="M311.64,89.048v.01h-6.6V83.817h6.6Z" transform="translate(-269.608 -74.081)"/><path class="j" d="M255.235,89.007v.052h-6.546V83.818h6.546Z" transform="translate(-219.801 -74.081)"/><path class="j" d="M136.069,89.048v.01h-6.6V83.817h6.6Z" transform="translate(-114.432 -74.081)"/><path class="j" d="M79.664,89.007v.052H73.117V83.818h6.546Z" transform="translate(-64.624 -74.081)"/><rect class="h" width="7.603" height="12.222" transform="translate(35.123 51.209)"/><path class="e" d="M68.609,297.909v9.643H23.718v-9.643H68.609Z" transform="translate(-20.963 -263.304)"/><path class="e" d="M68.609,128.936v9.643H23.718v-9.643H68.609Z" transform="translate(-20.963 -113.959)"/><g class="k"><path class="l" d="M62.7,89.191H17.808a.777.777,0,0,1-.777-.777V29.043a.777.777,0,1,1,1.554,0V87.637H61.922V29.043a.777.777,0,1,1,1.554,0V88.414a.777.777,0,0,1-.777.777" transform="translate(-15.053 -24.983)"/><path class="l" d="M64.273,206.818H19.859a.777.777,0,0,1,0-1.554H64.273a.777.777,0,0,1,0,1.554" transform="translate(-16.865 -181.42)"/><path class="l" d="M64.273,123.8H19.859a.777.777,0,0,1,0-1.554H64.273a.777.777,0,0,1,0,1.554" transform="translate(-16.865 -108.048)"/><path class="l" d="M64.273,375.79H19.859a.777.777,0,0,1,0-1.554H64.273a.777.777,0,0,1,0,1.554" transform="translate(-16.865 -330.764)"/><path class="l" d="M64.273,292.776H19.859a.777.777,0,0,1,0-1.554H64.273a.777.777,0,0,1,0,1.554" transform="translate(-16.865 -257.393)"/><path class="l" d="M123.562,83.873a.777.777,0,0,1-.777-.777V77.907a.777.777,0,1,1,1.554,0V83.1a.777.777,0,0,1-.777.777" transform="translate(-108.522 -68.171)"/><path class="l" d="M80.351,83.914a.777.777,0,0,1-.777-.777V78.684H67.984v4.454a.777.777,0,0,1-1.554,0V77.907a.777.777,0,0,1,.777-.777H80.351a.777.777,0,0,1,.777.777v5.231a.777.777,0,0,1-.777.777" transform="translate(-58.713 -68.171)"/><path class="l" d="M299.132,83.873a.777.777,0,0,1-.777-.777V77.907a.777.777,0,1,1,1.554,0V83.1a.777.777,0,0,1-.777.777" transform="translate(-263.698 -68.171)"/><path class="l" d="M255.922,83.914a.777.777,0,0,1-.777-.777V78.684h-11.59v4.454a.777.777,0,0,1-1.554,0V77.907a.777.777,0,0,1,.777-.777h13.144a.777.777,0,0,1,.777.777v5.231a.777.777,0,0,1-.777.777" transform="translate(-213.89 -68.171)"/><path class="l" d="M154.235,243.873a.777.777,0,0,1-.777-.777v-6.2a.777.777,0,1,1,1.554,0v6.2a.777.777,0,0,1-.777.777" transform="translate(-135.632 -208.688)"/><path class="l" d="M211.035,243.873a.777.777,0,0,1-.777-.777v-6.2a.777.777,0,1,1,1.554,0v6.2a.777.777,0,0,1-.777.777" transform="translate(-185.834 -208.688)"/><path class="l" d="M268.192,243.873a.777.777,0,0,1-.777-.777v-6.2a.777.777,0,1,1,1.554,0v6.2a.777.777,0,0,1-.777.777" transform="translate(-236.352 -208.688)"/><path class="l" d="M124.038,243.936a.777.777,0,0,1-.777-.777v-5.49H98.569v5.49a.777.777,0,0,1-1.554,0v-6.267a.777.777,0,0,1,.777-.777h26.247a.777.777,0,0,1,.777.777v6.267a.777.777,0,0,1-.777.777" transform="translate(-85.746 -208.689)"/><path class="l" d="M104.136,431.368a.777.777,0,0,1-.777-.777V417.075h-13.8v13.517a.777.777,0,0,1-1.554,0V416.3a.777.777,0,0,1,.777-.777h15.35a.777.777,0,0,1,.777.777v14.294a.777.777,0,0,1-.777.777" transform="translate(-77.786 -367.254)"/><path class="l" d="M153.879,432.616a.777.777,0,0,1-.777-.777V417.815a.777.777,0,0,1,1.554,0v14.024a.777.777,0,0,1-.777.777" transform="translate(-135.318 -368.594)"/><path class="l" d="M304.059,447.933a.777.777,0,0,1-.777-.777V435.711h-6.049v11.445a.777.777,0,0,1-1.554,0V434.934a.777.777,0,0,1,.777-.777h7.6a.777.777,0,0,1,.777.777v12.222a.777.777,0,0,1-.777.777" transform="translate(-261.334 -383.725)"/><path class="l" d="M315.985,481.486a.777.777,0,0,1-.777-.777v-2.082a.777.777,0,0,1,1.553,0v2.082a.777.777,0,0,1-.777.777" transform="translate(-278.593 -422.343)"/><path class="l" d="M49.873,4.525H.777A.753.753,0,0,1,0,3.8V.727A.753.753,0,0,1,.777,0h49.1a.753.753,0,0,1,.777.727V3.8a.753.753,0,0,1-.777.727M1.554,3.072H49.1V1.454H1.554Z"/></g></g></g><g transform="translate(-1318 167.046)"><rect class="m" width="64" height="22" transform="translate(2509 1629.454)"/><path class="b" d="M-19.206.252c3.078,0,4.9-1.854,4.9-4.032A3.68,3.68,0,0,0-16.992-7.4l-1.746-.738c-1.134-.45-2.07-.792-2.07-1.746,0-.882.738-1.4,1.908-1.4a4.249,4.249,0,0,1,2.826,1.1l1.35-1.674a5.911,5.911,0,0,0-4.176-1.71c-2.7,0-4.608,1.674-4.608,3.852a3.859,3.859,0,0,0,2.7,3.582l1.782.756c1.188.5,2,.81,2,1.8,0,.936-.738,1.53-2.124,1.53a5.241,5.241,0,0,1-3.384-1.476l-1.53,1.836A7.1,7.1,0,0,0-19.206.252Zm11.952-7.2c.4-1.386.792-2.9,1.134-4.356h.09c.378,1.44.738,2.97,1.152,4.356l.4,1.458H-7.65ZM-11.862,0h2.7l.936-3.42h4.32L-2.97,0H-.18L-4.464-13.338H-7.6ZM3.186,0h8.082V-2.232H5.85V-13.338H3.186Zm12.2,0h8.37V-2.232H18.054V-5.8h4.68V-8.028h-4.68v-3.078h5.508v-2.232H15.39Z" transform="translate(2541.066 1647.026)"/></g></g></svg>