<svg xmlns="http://www.w3.org/2000/svg" xmlns:xlink="http://www.w3.org/1999/xlink" width="57.356" height="54.083" viewBox="0 0 57.356 54.083"><defs><style>.a{fill:none;}.b{clip-path:url(#a);}.c{fill:#fff;}.d{fill:#26466d;}.e{fill:#fde67c;}.f{fill:#f3df7c;}</style><clipPath id="a"><rect class="a" width="57.356" height="54.083"/></clipPath></defs><g class="b" transform="translate(0 0)"><path class="c" d="M55.673,28.1a1.458,1.458,0,0,1-.614-1.817,8.334,8.334,0,0,0-.272-5.154c-.4-1.1-.778-2.2-1.166-3.293a2.25,2.25,0,0,0,.2-1.789,12.913,12.913,0,0,1-.694-2.829,4.519,4.519,0,0,0-3.594-4.643c-.724-.521-1.415-1.1-2.177-1.553C44.523,5.322,41.9,3.2,38.7,2.188,35.375,1.133,32.093-.239,28.467.238a1.674,1.674,0,0,1-.533-.06,9.514,9.514,0,0,0-7.06,1.491c-.88.533-1.7,1.344-2.714,1.438-2.209.2-3.731,1.59-5.452,2.711C9.06,8.194,7.274,11.662,6.533,15.807a3.487,3.487,0,0,1-.489,1.66A6.9,6.9,0,0,0,4.754,22.3c.1,2-.044,3.6-1.986,5.067-2.549,1.92-2.16,5.331.383,8.023,1.116,1.183,1.135,1.236-.265,2.08A4.611,4.611,0,0,0,.421,40.005,8.466,8.466,0,0,0,1.744,47.9c.29,1.256.661,2.427,2.191,2.706.264.048.5.356.708.581a8.584,8.584,0,0,0,7.17,2.882c2.966-.157,4.451-1.527,4.456-4.46a19.967,19.967,0,0,1,2.634,1c3.218,1.758,6.715,1.976,10.249,1.921a44.755,44.755,0,0,0,9.789-1.448,15.482,15.482,0,0,0,9.1-6.413c.877-1.19,1.693-2.424,2.524-3.648a3.893,3.893,0,0,0,1.073-2.674c-.055-.471.332-.746.725-.857,2.758-.779,3.686-3.1,4.519-5.439.807-2.265.709-2.51-1.205-3.955" transform="translate(0 0)"/><path class="d" d="M53.62,17.837c.388,1.1.772,2.2,1.166,3.293a8.325,8.325,0,0,1,.272,5.153,1.46,1.46,0,0,0,.614,1.817c1.914,1.444,2.012,1.689,1.205,3.955-.833,2.339-1.762,4.659-4.519,5.438-.393.111-.779.385-.725.857a3.888,3.888,0,0,1-1.073,2.674c-.831,1.224-1.647,2.458-2.524,3.648a15.486,15.486,0,0,1-9.1,6.413,44.79,44.79,0,0,1-9.789,1.448c-3.534.054-7.032-.163-10.249-1.921a19.877,19.877,0,0,0-2.634-1c-.593-.553-.972.036-1.367.3-4.135,2.725-8,2.336-11.447-1.183-.477-.487-.931-.982-1.711-.823A8.464,8.464,0,0,1,.421,40.006a4.611,4.611,0,0,1,2.465-2.536c1.4-.845,1.381-.9.264-2.08C.608,32.7.218,29.287,2.767,27.366,4.71,25.9,4.857,24.3,4.753,22.3a6.894,6.894,0,0,1,1.291-4.832,3.486,3.486,0,0,0,.488-1.66c.741-4.145,2.528-7.613,6.175-9.989C14.428,4.7,15.95,3.312,18.159,3.107c1.012-.094,1.834-.9,2.714-1.437A9.512,9.512,0,0,1,27.932.179a1.66,1.66,0,0,0,.533.059c3.626-.477,6.909.9,10.235,1.951C41.9,3.2,44.523,5.322,47.36,7.023c.762.457,1.453,1.032,2.177,1.553.591,1.348,1.084,2.75,1.8,4.03.934,1.678,1.388,3.549,2.286,5.231M9.548,25l-.009.007c2.592.017,4.918-1.218,7.4-1.6a13.53,13.53,0,0,0,7.317-3.919c.224-.21.645-.438.515-.726-.518-1.14.46-1.247,1.045-1.605,1.1-.676,2.426-1.175,2.809-2.553a5.128,5.128,0,0,1,1.5-2.326q1.152-1.132,2.3-2.271a31.213,31.213,0,0,0,4.3-5.675c.22-.351.386-.724.072-1.118-.33-.413-.654-.1-.961.027A2.354,2.354,0,0,1,34,3.192a1.384,1.384,0,0,0-1.783.453c-3.21,3.834-7.087,6.991-10.663,10.453a23.041,23.041,0,0,1-9.524,5.646c-.853.254-1.66.663-2.489,1-.823.09-1.728-.164-2.423.478-.965.891-1.269,4.472-.519,5.6.2.3.552.555.7.194.388-.924,1.373-1.09,1.95-1.745l.3-.274M3.06,40.933a8.111,8.111,0,0,1-1.011,1.405c-.708.837-.526,3.168.314,3.37.91.218,1.183.874,1.6,1.477A7.77,7.77,0,0,0,11.6,50.677,3.712,3.712,0,0,0,14.515,49a.937.937,0,0,0-.026-1.329c-2.232-2.2-3.628-4.974-5.257-7.589-.113-.384-.2-.778-.343-1.149-.355-.9-.338-2.408-2.021-1.288-.141.094-.5-.1-.737-.2-1.337-.542-1.862-.365-2.435.914a5.611,5.611,0,0,0-.635,2.578M29,2.073c-.644-.337-1.221.032-1.816.179-1.2.3-2.35.818-3.61-.029a1.08,1.08,0,0,0-1.615.723c-.224.925-.821,1.143-1.575,1.377a16.788,16.788,0,0,0-1.975.854c-.755.346-1.441.884-2.35.235-.434-.31-.918.072-1.038.54A2.718,2.718,0,0,1,12.7,7.9a3.013,3.013,0,0,0-2.443,2.711,1.74,1.74,0,0,1-.7,1.256,3.883,3.883,0,0,0-1.431,2.52c-.291,1.451-.5,2.917-.763,4.373-.112.621.142.842.729.758a6.631,6.631,0,0,0,2.863-1.105c1.289-.179,2.916-.149,3.646-1.089a6.249,6.249,0,0,1,3.162-1.938,5.065,5.065,0,0,0,1.459-.943A119.531,119.531,0,0,0,30.229,3.79c.527-.592,1.723-1.259,1.254-1.944-.515-.754-1.635.025-2.48.227M50.582,28.7a3.4,3.4,0,0,1-1.309-1.248c-1.273-1.688-2.253-3.6-3.82-5.065-.795-2.082-2.192-3.881-2.841-6.031.065-.344-.147-.595-.291-.869-.759-1.436-.755-1.432-2.155-.486-2.079,1.405-4.136,2.838-6.353,4.037-4.17,2.255-8.707,3.544-13.12,5.169a30.045,30.045,0,0,1-9.27,2.088,1.866,1.866,0,0,0-1.474.526,1.892,1.892,0,0,0-1.724,1.762c-.094.678-.491,1.538-1.276.677-.9-.986-2.057-1-3.159-1.292-.7-.188-.938.052-.689.752.075.208.212.525.124.64-1.094,1.419-.72,2.565.3,3.918a5.673,5.673,0,0,0,1.223,1.6c.886.595,1.981.546,2.925.965.392.174.6-.053.653-.418s.123-.789.551-.809c.529-.024.52.53.692.868a3.91,3.91,0,0,1,.3.75c1.1,4.117,2.692,7.956,5.882,10.963.549.517.952,1.23,1.649,1.552a21.516,21.516,0,0,0,6.694,2.334,38.287,38.287,0,0,0,8.863.055A50.086,50.086,0,0,0,38.728,49.9c1.92-.479,3-2.4,5.006-2.667.336-.044.532-.478.545-.86A1.711,1.711,0,0,1,45.54,44.8c.375-.156.782-.315.867-.769a4.019,4.019,0,0,1,1.722-2.324,5.987,5.987,0,0,0,2.182-3.886c.1-1.761.808-1.834,2.086-2.094a3.309,3.309,0,0,0,2.688-4.357.856.856,0,0,1-.036-.527c.661-1.3-.272-1.623-1.127-2.238-1.237-.89-2.244-.414-3.338.1m.9-1.582c1.168.031,2.408-.715,2.453-1.658.061-1.285.51-2.745-1.012-3.619a.664.664,0,0,1-.318-.7c.46-2.356-2-3.971-1.6-6.324.04-.23-.269-.553-.469-.786-.727-.846-2.158-1.333-1.434-2.9.021-.046-.063-.169-.127-.223C47.6,9.765,46.5,8.312,44.955,7.36c-.452-.279-.867-.338-1.084.242-.709,1.893-.395,3.943-.881,5.872a56.117,56.117,0,0,0,7.032,12.793,1.919,1.919,0,0,0,1.457.854M38.6,4.553a1,1,0,0,0-1.1.588c-1.935,3.342-4.941,5.918-6.7,9.39a4.413,4.413,0,0,1-1.733,2.021,10.725,10.725,0,0,0-3.882,3.732c-.191.277-.726.468-.489.847s.763.194,1.11.053c1.407-.571,2.805-1.167,4.178-1.815a2.438,2.438,0,0,0,.991-.876,2.242,2.242,0,0,1,2.479-1.148,1.73,1.73,0,0,0,2.088-1.587,1.956,1.956,0,0,1,2.708-1.453,1.042,1.042,0,0,0,1.107-.183A6,6,0,0,0,42.144,9.17a9.772,9.772,0,0,1,.111-1.739,2.127,2.127,0,0,0-1.522-2.609,18.932,18.932,0,0,0-2.127-.27" transform="translate(0 0)"/><path class="e" d="M3.345,91.836c.779-.16,1.234.336,1.711.823C8.5,96.178,12.368,96.566,16.5,93.841c.394-.26.773-.849,1.367-.3-.006,2.933-1.49,4.3-4.456,4.461a8.584,8.584,0,0,1-7.17-2.882c-.208-.226-.444-.534-.708-.582-1.531-.279-1.9-1.45-2.191-2.706" transform="translate(-1.601 -43.939)"/><path class="e" d="M99.091,25.709c-.9-1.683-1.352-3.553-2.287-5.231-.712-1.28-1.206-2.682-1.8-4.03A4.519,4.519,0,0,1,98.6,21.091,12.95,12.95,0,0,0,99.3,23.92a2.25,2.25,0,0,1-.2,1.789" transform="translate(-45.471 -7.872)"/><path class="e" d="M17.926,23.543c.828-.337,1.636-.746,2.489-1A23.041,23.041,0,0,0,29.938,16.9c3.576-3.462,7.453-6.619,10.663-10.453a1.385,1.385,0,0,1,1.783-.452,2.352,2.352,0,0,0,1.837.046c.307-.122.631-.44.961-.027.313.393.148.766-.072,1.118a31.213,31.213,0,0,1-4.3,5.674q-1.143,1.141-2.3,2.271a5.139,5.139,0,0,0-1.5,2.326c-.383,1.379-1.7,1.877-2.809,2.554-.585.358-1.562.465-1.044,1.6.13.288-.291.517-.515.727A13.539,13.539,0,0,1,25.324,26.2c-2.482.383-4.809,1.618-7.4,1.6a7.681,7.681,0,0,1,0-4.262" transform="translate(-8.434 -2.778)"/><path class="e" d="M38.964,3.51c.846-.2,1.965-.982,2.48-.228.469.686-.727,1.352-1.254,1.945A119.6,119.6,0,0,1,29.184,15.884a5.06,5.06,0,0,1-1.459.943,6.255,6.255,0,0,0-3.162,1.938c-.73.94-2.357.91-3.646,1.089a9.822,9.822,0,0,1,.448-2.892c1.671-5.251,5.51-8.339,10.481-10.107A56.986,56.986,0,0,0,38.964,3.51" transform="translate(-10.011 -1.417)"/><path class="e" d="M90.846,33.728a1.922,1.922,0,0,1-1.457-.854,56.1,56.1,0,0,1-7.032-12.793c.486-1.929.171-3.98.88-5.872.217-.581.632-.521,1.084-.242,1.545.953,2.647,2.405,4.018,3.552.064.053.148.176.127.223-.724,1.567.707,2.055,1.434,2.9.2.233.508.555.469.786-.4,2.354,2.06,3.969,1.6,6.324a.664.664,0,0,0,.318.7c1.522.874,1.073,2.334,1.012,3.619-.044.943-1.285,1.689-2.453,1.659" transform="translate(-39.417 -6.586)"/><path class="e" d="M61.13,8.755a18.908,18.908,0,0,1,2.126.27,2.126,2.126,0,0,1,1.522,2.609,9.868,9.868,0,0,0-.111,1.739,6,6,0,0,1-2.781,4.952,1.042,1.042,0,0,1-1.107.183,1.956,1.956,0,0,0-2.708,1.453,1.73,1.73,0,0,1-2.088,1.587,2.241,2.241,0,0,0-2.478,1.148,2.44,2.44,0,0,1-.991.876c-1.373.648-2.772,1.244-4.178,1.815-.347.141-.865.338-1.11-.053s.3-.57.489-.847A10.729,10.729,0,0,1,51.6,20.754a4.409,4.409,0,0,0,1.732-2.021c1.761-3.472,4.768-6.048,6.7-9.39a1,1,0,0,1,1.1-.588" transform="translate(-22.575 -4.181)"/><path class="e" d="M10.712,76.486c1.629,2.615,3.025,5.391,5.257,7.589a.936.936,0,0,1,.026,1.329,3.713,3.713,0,0,1-2.916,1.681A7.768,7.768,0,0,1,5.44,83.593c-.415-.6-.687-1.259-1.6-1.477-.84-.2-1.022-2.532-.314-3.37A8.044,8.044,0,0,0,4.54,77.341a6.662,6.662,0,0,1,6.172-.856" transform="translate(-1.479 -36.409)"/><path class="e" d="M51.744,29.524C49.369,30.95,46.99,32.369,44.62,33.8c-3.277,1.982-6.965,3.032-10.418,4.613a40.559,40.559,0,0,1-10,2.851c-2.186.386-3.545-.352-5.123-1.279a1.865,1.865,0,0,1,1.473-.525,30.042,30.042,0,0,0,9.27-2.088c4.414-1.625,8.951-2.914,13.121-5.169,2.217-1.2,4.273-2.632,6.353-4.037,1.4-.946,1.4-.95,2.155.486.144.274.356.525.291.869" transform="translate(-9.132 -13.166)"/><path class="e" d="M92.215,49.256c-.454.663-1.106.9-1.689.342-1.693-1.626-2.467-3.834-3.5-5.871-.1-.2.035-.52.062-.784,1.566,1.465,2.546,3.377,3.819,5.065a3.406,3.406,0,0,0,1.31,1.248" transform="translate(-41.633 -20.553)"/><path class="f" d="M17.745,48.219c.035-.16.114-.273.3-.273l-.3.273" transform="translate(-8.493 -22.947)"/><path class="e" d="M75.14,65.29a1.06,1.06,0,0,0,.954.378c3.186.078,4.423,2.846,3.969,5.614-.386,2.35-2.937,3.733-5.516,3.1-.26-.064-.524-.117-.786-.175a14.83,14.83,0,0,0-.875-3.725c-.282-.7-.563-1.414-1.44-1.577a3.159,3.159,0,0,1,1.863-2.8c.406-.246.933-.287,1.222-.727l.61-.087" transform="translate(-34.194 -31.248)"/><path class="e" d="M34.646,76.245c-2.508,1.259-5.085.517-6.149-1.77A4.575,4.575,0,0,1,30.529,68.2c2.324-1.013,5-.145,5.673,1.841-.332.283-.769.488-.839.979-.249,1.741-.926,3.423-.717,5.227" transform="translate(-13.397 -32.436)"/><path class="d" d="M53.741,78.156c1.207,0,2.415-.031,3.621.009.932.031,1.305.456.86,1.405-.264.563-.408,1.181-.633,1.764A4.818,4.818,0,0,1,53.241,84.4c-1.834.046-2.93-.821-3.675-2.911-1.128-3.165-1.1-3.206,2.162-3.213.671,0,1.342,0,2.013,0Zm.169,4.494c1.242.135,1.774-.826,2.2-1.923.4-1.019.1-1.457-.988-1.313a7.2,7.2,0,0,1-3.293-.026c-.579-.188-.932.2-.874.827a2.961,2.961,0,0,0,2.955,2.434" transform="translate(-23.401 -37.4)"/><path class="d" d="M54.467,61.278c-.628,0-1.257.014-1.885-.006-.272-.009-.559-.105-.586-.431-.027-.346.274-.452.534-.49a18.063,18.063,0,0,1,2.138-.243c.9-.026,1.175-.376,1-1.272-.218-1.1-.3-2.222-.454-3.333-.074-.547-.027-1.015.669-1.057a.871.871,0,0,1,1.039.815c.189,1.687.085,3.405.773,5.032.215.511-.35.789-.81.852-.8.11-1.607.145-2.411.211,0-.026,0-.052,0-.077" transform="translate(-24.885 -26.056)"/><path class="d" d="M35.952,59.342c.829.234,2.421-.147,2.5,1.339.08,1.5-1.542,1.361-2.551,1.568-1.494.307-3.1-.46-3.184-1.336S34,59.326,35.952,59.342" transform="translate(-15.657 -28.401)"/><path class="d" d="M75.3,62.3l-.61.087c-.465-.346-1.042-.16-1.546-.323-.677-.22-1.27-.6-1.356-1.327s.528-1.1,1.1-1.356a3.726,3.726,0,0,1,2.866-.1,1.607,1.607,0,0,1,1.2,1.307c.071.676-.46,1.011-.967,1.315-.229.137-.462.267-.693.4" transform="translate(-34.355 -28.256)"/></g></svg>