<svg xmlns="http://www.w3.org/2000/svg" xmlns:xlink="http://www.w3.org/1999/xlink" width="80" height="80" viewBox="0 0 80 80"><defs><style>.a{fill:none;}.b{fill:#e5e5e5;}.c{clip-path:url(#a);}.d{fill:#fff;}.e{fill:#b9bec1;}.f{fill:#26466d;}.g{fill:#7dd0fc;}.h{fill:#fde67c;}</style><clipPath id="a"><rect class="a" width="50.153" height="69.333"/></clipPath></defs><g transform="translate(-419.298 -4617.71)"><rect class="b" width="80" height="80" rx="40" transform="translate(419.298 4617.71)"/><g transform="translate(434.224 4625.71)"><g class="c"><path class="d" d="M45.856,25.226a34.243,34.243,0,0,0-.263-10.914C44.519,8.866,41.7,4.6,36.281,2.464A34.621,34.621,0,0,0,18.341.373C11.512,1.351,7.87,5.684,5.489,11.209c-1.869,4.337-1.84,9.077-1.343,13.75-.289.075-.578.154-.868.226C.544,25.863-.665,28.109.364,30.667A6.592,6.592,0,0,0,3.642,34.05a3.242,3.242,0,0,1,2.027,3.3,22.66,22.66,0,0,0,.216,2.986,10.644,10.644,0,0,0,5.959,9.171c.826.439,1.65.884,2.5,1.286.712.34,1.212.781,1.128,1.625a7.935,7.935,0,0,1,.37.944,7.935,7.935,0,0,0-.37-.944c-.505.048-1.087-.145-1.5.194a18.883,18.883,0,0,0-2.795,2.742,1.02,1.02,0,0,0,.186,1.457c2.635,2.837,5.281,5.664,7.894,8.519.4.437.669.38,1.057.05.738-.63,1.478-1.26,2.251-1.849.529-.4.958-.424.912.426a50.668,50.668,0,0,1-.2,5.35c-.451,2.81-.29,2.9,2.6,2.92.981.007,1.24-.3,1.221-1.216-.054-2.578-.016-5.159-.006-7.739,0-.232-.107-.547.19-.665s.417.182.574.366c.573.67,1.19,1.308,1.722,2.007.59.775,1.079.76,1.7.024.759-.9,1.592-1.736,2.395-2.6,1.75-1.878,3.512-3.747,5.247-5.639.394-.43.81-.91.18-1.507-.828-.784-1.632-1.594-2.439-2.4a1.267,1.267,0,0,0-1.531-.23c-.554-1.561.675-1.97,1.724-2.4,2.5-1.035,4.69-2.4,5.954-4.86a16.885,16.885,0,0,0,1.788-8.334,2.452,2.452,0,0,1,1.55-2.679,6.362,6.362,0,0,0,3.684-4.075c.893-2.94.006-4.339-3.136-4.717-.171-.358-.517-.314-.833-.341" transform="translate(0 0)"/><path class="e" d="M8.557,24.96c-.5-4.674-.526-9.413,1.343-13.75C12.282,5.685,15.923,1.352,22.751.374a34.621,34.621,0,0,1,17.94,2.091C46.114,4.6,48.93,8.866,50,14.313a34.246,34.246,0,0,1,.264,10.914c0,.09,0,.18,0,.269l-2.93.038a7.454,7.454,0,0,1-.71-2.507c-.34-2.091-.134-4.233-.675-6.308-.311-1.192-.834-1.866-2.289-1.77a27.844,27.844,0,0,1-9.894-1.131,4.572,4.572,0,0,1-1.694-.855c-.651-.548-.6-1,0-1.533a12.064,12.064,0,0,1,2.447-1.356c.346-.187.958-.272.731-.832-.2-.494-.759-.312-1.147-.233a9.537,9.537,0,0,0-3.437,1.642,3.656,3.656,0,0,1-2.369.823c-.574-.044-1.32.233-1.614-.441-.27-.62.306-1.062.678-1.51a16.23,16.23,0,0,1,4.4-3.2c.293-.177.845-.293.6-.79-.211-.43-.64-.226-1.025-.151a8.737,8.737,0,0,0-5.309,3.654c-.591.773-1.2,1.6-2.3,1.655a21.263,21.263,0,0,1-4.108-.1c-1.518-.218-2.954.112-3.538,1.718-.342.94-.76,1.853-1.136,2.781-1.4,3.444-2.78,6.89-3.065,10.635-1.319.6-2.271-.292-3.326-.767" transform="translate(-4.411 0)"/><path class="f" d="M42.922,55.682l2.93-.038a.836.836,0,0,0,.836.071c3.141.379,4.029,1.778,3.136,4.718a6.359,6.359,0,0,1-3.684,4.074,2.453,2.453,0,0,0-1.549,2.679A16.9,16.9,0,0,1,42.8,75.521c-1.265,2.458-3.45,3.825-5.954,4.86-1.049.433-2.279.842-1.724,2.4-.113.9-.47,1.451-1.525,1.016-.861-1.876-.633-2.725,1.166-3.858,1.041-.655,2.13-1.246,3.234-1.8a7.356,7.356,0,0,0,4.263-6.119c.263-2.315.533-4.629.766-6.947.083-.823.3-1.339,1.3-1.515a5.89,5.89,0,0,0,3.7-2.313,2.7,2.7,0,0,0-.726-4.136c-.287-.2-.551-.419-.921-.187-1.948,1.223-4.127.859-6.252.855-2.063,0-2.063-.006-2.03,1.981a3,3,0,0,1-3.045,3.31,20.826,20.826,0,0,1-5.989-.543,1.425,1.425,0,0,1-1.345-1.4c-.084-.952-.148-1.907-.246-2.858-.059-.567-.221-1.076-.975-1.069-.867.008-2-.4-2.443.543a16.48,16.48,0,0,0-1.59,5.378c-.1,1,.265,1.6,1.438,1.56A2.056,2.056,0,0,1,25.6,65.1a.777.777,0,0,1,.25.527c-.041.282-.341.159-.531.165-.856.032-1.714.081-2.569.057-1.532-.043-1.957-.476-1.88-2,.044-.877-.267-1.055-1.125-.927a17.2,17.2,0,0,1-4.484.147c-2.479-.28-3.155-1.033-3.091-3.459.044-1.69-.4-2.2-2.12-1.87a11.872,11.872,0,0,1-5.8-.6,2.071,2.071,0,0,0-2.778,2.384,4.132,4.132,0,0,0,1.253,2.409,6.808,6.808,0,0,0,3.588,1.832c.73.13.982.344.928,1.116a26.926,26.926,0,0,0,1.4,9.955,3.061,3.061,0,0,0,1.3,1.795c1.587.984,3.174,1.97,4.781,2.923,1.851,1.1,2.948,2.524,2.356,4.753-1.3.093-1.222-1.033-1.621-1.736.084-.843-.416-1.285-1.128-1.624-.845-.4-1.67-.847-2.5-1.287a10.643,10.643,0,0,1-5.959-9.171A22.507,22.507,0,0,1,5.669,67.5a3.243,3.243,0,0,0-2.028-3.3A6.592,6.592,0,0,1,.363,60.816c-1.028-2.558.181-4.8,2.915-5.482.29-.072.578-.15.868-.226,1.055.475,2.007,1.37,3.326.767a4.758,4.758,0,0,0,3.369.329,18.3,18.3,0,0,1,4.27-.815c8.365.328,16.793-.974,25.1.9a2.45,2.45,0,0,0,2.708-.607m-25.594.9v-.007c-.726,0-1.454-.026-2.179.005-1.513.065-2.149.764-2.259,2.435s.608,2.9,1.986,3.03a18.014,18.014,0,0,0,4.738.014c.881-.149,1.739-.493,1.9-1.432.212-1.205.546-2.486-.462-3.56a1.864,1.864,0,0,0-1.415-.483c-.771-.013-1.542,0-2.313,0m15.657.005c-.641,0-1.283,0-1.924,0-1.815.008-2.289.415-2.479,2.126-.233,2.1.267,3.04,1.94,3.338a12.718,12.718,0,0,0,5.588-.356,1.2,1.2,0,0,0,.975-1.287c0-3.372.289-3.97-3.587-3.821-.171.007-.342,0-.514,0" transform="translate(0 -30.148)"/><path class="g" d="M46.109,116.959c1.055.434,1.413-.118,1.525-1.016a1.267,1.267,0,0,1,1.53.23c.808.8,1.611,1.614,2.439,2.4.63.6.214,1.077-.18,1.507-1.734,1.892-3.5,3.761-5.247,5.639-.8.862-1.636,1.7-2.395,2.6-.622.736-1.11.751-1.7-.024-.533-.7-1.149-1.337-1.722-2.007-.157-.184-.263-.49-.574-.366s-.189.433-.19.665c-.011,2.58-.049,5.16.006,7.739.02.917-.241,1.223-1.221,1.216-2.891-.02-3.052-.11-2.6-2.92a50.667,50.667,0,0,0,.2-5.35c.047-.85-.383-.828-.912-.426-.773.588-1.513,1.219-2.251,1.849-.387.331-.656.387-1.056-.05-2.613-2.855-5.26-5.682-7.894-8.519a1.02,1.02,0,0,1-.186-1.457,18.906,18.906,0,0,1,2.795-2.742c.413-.339,1-.146,1.5-.194.4.7.318,1.828,1.622,1.736a5.237,5.237,0,0,1,1.864.792,37.814,37.814,0,0,1,4.725,3.593c1.437,1.172,1.451,1.169,2.883.035.792-.627,1.61-1.226,2.442-1.8,1.522-1.055,3.063-2.083,4.6-3.123" transform="translate(-12.51 -63.306)"/><path class="f" d="M34.429,46.889a6.522,6.522,0,0,1-2.827-.512.831.831,0,0,1-.554-.64.621.621,0,0,1,.536-.62,7.2,7.2,0,0,1,4.526-.032c.4.164.823.4.793.878-.036.563-.553.688-1.025.76-.548.085-1.1.127-1.448.166" transform="translate(-16.563 -24.469)"/><path class="f" d="M67.62,44.542c.759.127,2.032-.117,2.089.993.053,1-1.205.966-2,1.132a6.04,6.04,0,0,1-3.27-.267c-.791-.279-.789-.708-.1-1.109a6.747,6.747,0,0,1,3.283-.749" transform="translate(-34.056 -24.368)"/><path class="h" d="M27.6,82.638a3.956,3.956,0,0,1-3.341-1.515c-1.036-1.488-.576-3.233,1.077-4.3a3.727,3.727,0,0,1,4.994.932c1.057,1.476.821,2.808-.705,3.982-1.257-.675-1.323-.645-2.025.9" transform="translate(-12.649 -41.71)"/><path class="h" d="M69.355,82.349a2.05,2.05,0,0,1-1.883-1.906,2.994,2.994,0,0,1,1.075-3.134,3.962,3.962,0,0,1,4.941.1,2.983,2.983,0,0,1,.317,4.166,4.047,4.047,0,0,1-2.321,1.206c-.277-.542-.489-1.185-1.207-1.283-.582-.079-.71.462-.921.847" transform="translate(-35.954 -41.85)"/><path class="f" d="M47.351,92.524a6.054,6.054,0,0,1-4.767-2.714,2.645,2.645,0,0,1-.484-1.4c-.013-.335-.022-.741.329-.879.292-.115.56.169.739.4.383.5.743,1.016,1.1,1.533a3.627,3.627,0,0,0,5.965.483c.527-.547,1.012-1.135,1.567-1.652.3-.274.556-.911,1.1-.508.467.345.13.857-.038,1.265a5.861,5.861,0,0,1-5.515,3.473" transform="translate(-22.458 -47.87)"/><path class="f" d="M36.393,63.97c-.854-.035-1.689-.273-1.753-1.408A1.673,1.673,0,0,1,36.4,60.968c1.124-.027,2.027.611,2.044,1.443.017.875-.814,1.545-2.049,1.559" transform="translate(-18.479 -33.354)"/><path class="f" d="M66.718,63.985c-1.215.021-2.116-.614-2.109-1.446a1.878,1.878,0,0,1,1.95-1.6c1.091-.018,2.016.683,1.954,1.535-.079,1.1-.892,1.406-1.8,1.512" transform="translate(-34.469 -33.337)"/></g></g></g></svg>