<svg xmlns="http://www.w3.org/2000/svg" width="332.043" height="80" viewBox="0 0 332.043 80"><defs><style>.a{fill:#1a1311;}.b{fill:#aea6a0;}.c{fill:#e54600;}</style></defs><g transform="translate(-24.111)"><path class="a" d="M310.164,47.465v14.32h10.407V59.4H313.24V47.465Z" transform="translate(-103.824 -34.849)"/><rect class="a" width="3.074" height="14.32" transform="translate(219.068 12.616)"/><path class="a" d="M347.65,61.784h3.66L346.14,54.3l4.747-6.835h-3.342l-3.121,4.744-3.013-4.744h-3.552l4.768,6.812-5.169,7.508h3.426l3.417-5.129Z" transform="translate(-113.108 -34.848)"/><rect class="a" width="3.075" height="14.32" transform="translate(240.391 12.616)"/><path class="a" d="M371.983,47.465v14.32h10.408V59.4h-7.333V47.465Z" transform="translate(-124.849 -34.849)"/><g transform="translate(24.111)"><g transform="translate(0 0)"><path class="a" d="M530.015,46.438a2.091,2.091,0,0,0-4.18,0h-9.747v2.217h8.805v.793c0,4.951-1.961,8.241-7.177,9.346v1.965c6.3-.645,10.21-4.523,10.21-11.311v-.986a2.057,2.057,0,0,0,2.09-2.025m-2.1,1.043A1.042,1.042,0,1,1,529,46.443a1.057,1.057,0,0,1-1.076,1.038" transform="translate(-197.971 -33.811)"/><path class="a" d="M472.163,50.841c-.086,5.976-3.173,9.351-10.119,9.66v2.444c8.249-.422,12.415-3.963,12.415-12.1Z" transform="translate(-179.591 -35.997)"/><rect class="a" width="6.647" height="2.377" transform="translate(282.453 12.626)"/><rect class="a" width="6.647" height="2.375" transform="translate(282.453 16.877)"/><path class="a" d="M507.978,53l0,2.126c0,4.365-1.288,6.093-5.626,6.806v1.749c5.88-.542,8.094-3.394,8.094-8.581V53Z" transform="translate(-193.299 -36.73)"/><rect class="a" width="2.3" height="4.947" transform="translate(307.623 16.267)"/><rect class="a" width="2.3" height="4.947" transform="translate(311.117 16.267)"/><path class="a" d="M483.536,53v1.855h6V57.27H483.9v1.863h5.63v2.7h-6.091v1.84h8.564V53h-8.47Z" transform="translate(-186.869 -36.73)"/><path class="a" d="M424.825,49.476V46.7h-2.112v2.773h-.787v-.312h-2.92v-.651a20.981,20.981,0,0,0,2.457-.295V46.5a36.185,36.185,0,0,1-7.28.546v1.615c.779.02,1.782.006,2.806-.034v.537h-2.965V50.64h2.965v.6H414.4v5.544h2.585v.642h-2.562V58.9h2.562v.8c-1.126.048-2.206.076-3.008.077v1.711c2.116-.032,5.823-.269,7.576-.48v.435c2.254-1.177,3.268-3.446,3.268-8.094V51.6H425.9v6.053c0,1.3-.395,1.814-1.266,1.814h-.261v1.978h.785c1.813,0,2.733-1.054,2.733-3.264v-8.7Zm-5.818,1.163h2.506v.6h-2.506Zm0,1.93h.882v.779h-.882Zm.882,2.886h-.882v-.779h.882Zm-3.78-2.886h.882v.779h-.882Zm0,2.108h.882v.779h-.882Zm6.606-1.689c0,3.385-.028,5.009-1.169,6.161l0,.221c-.668.086-1.567.16-2.541.223V58.9h2.563V57.427h-2.562v-.642h2.587V51.6h1.12Z" transform="translate(-163.245 -34.52)"/><path class="a" d="M403.908,55.227a18.923,18.923,0,0,1-5.779-4.19,12.652,12.652,0,0,0,.782-1.334h4.918V47.455H389.759V49.7h5.891a14.313,14.313,0,0,1-6.05,6.067v2.086a19.515,19.515,0,0,0,5.922-3.81v7.733h2.542V53.818a19.71,19.71,0,0,0,5.842,3.876Z" transform="translate(-154.953 -34.845)"/><path class="a" d="M451.231,52.508V50.6h-3.136l.231-1.146h2.41V47.545H445.6v-.736h-2.244v.736h-5.138v1.909h2.411l.231,1.146h-2.97v4.324c0,2.058-.023,3.206-.742,4.27v2.355C438.969,60.41,440,58.791,440,55.339V52.508h1.1v.379a2.937,2.937,0,0,1-.683,2.384V57.2a4.133,4.133,0,0,0,1.964-1.764h2.162V56.6h-3.118v1.744h3.118v1.082h-4.774V61.3h11.311V59.431H446.8V58.349h3.175V56.6H446.8V55.435h3.7V53.586h-3.7V52.508Zm-8.363-3.054h3.214l-.231,1.146H443.1Zm1.674,4.132h-1.564a6.375,6.375,0,0,0,.047-.789v-.29h1.517Z" transform="translate(-171.122 -34.626)"/><path class="a" d="M238.629,59.376V55.534h7.384V53.258h-7.384V49.841h7.978V47.449H235.56v14.32h11.19V59.376Z" transform="translate(-102.563 -34.843)"/><path class="a" d="M268.753,61.341a2.612,2.612,0,0,1-.538-1.3,11.3,11.3,0,0,1-.19-2.166,3.952,3.952,0,0,0-.234-1.448,2.926,2.926,0,0,0-.6-.963,2.336,2.336,0,0,0-.793-.551l-.061-.024a3.156,3.156,0,0,0,.829-.6,3.817,3.817,0,0,0,.77-1.119,4.067,4.067,0,0,0,.332-1.743,3.6,3.6,0,0,0-1.3-2.943,5.914,5.914,0,0,0-3.79-1.044h-7.246v14.32H259v-5.76h3.521a3.94,3.94,0,0,1,1.356.2,1.631,1.631,0,0,1,.777.579,2.512,2.512,0,0,1,.407,1.038,9.179,9.179,0,0,1,.119,1.59c0,.342.018.774.053,1.14a2.42,2.42,0,0,0,.378,1.1l.075.115h3.48ZM265.2,51.856a1.819,1.819,0,0,1-.548,1.463,2.551,2.551,0,0,1-1.7.49H259V49.928h3.911a5.588,5.588,0,0,1,.912.074,1.911,1.911,0,0,1,.725.273,1.333,1.333,0,0,1,.475.548,2.2,2.2,0,0,1,.179.962Z" transform="translate(-109.491 -34.843)"/><path class="a" d="M287.913,61.769h3.3l-5.846-14.32H282.3l-5.825,14.32h3.2l1.4-3.728h5.461Zm-6.02-5.928,1.918-5.116,1.9,5.116Z" transform="translate(-116.478 -34.843)"/><path class="a" d="M515.481,98.1c-.214,14.926-7.925,23.357-25.274,24.128v6.1c20.6-1.053,31.006-9.9,31.006-30.23Z" transform="translate(-189.17 -52.069)"/><rect class="a" width="16.602" height="5.936" transform="translate(301.037 40.489)"/><path class="a" d="M400.811,95.149H393.6V88.026h-6.058v7.123H375.067V88.026h-6.058v7.123h-7.172v5.533h7.172v11.2h6.058v-11.2h12.471v.776c0,10.651-3.035,16.566-16.791,18.4V124.9c16.31-1.3,22.849-7.746,22.849-22.616v-1.6h7.216Z" transform="translate(-145.51 -48.644)"/><path class="a" d="M427.829,124.558h33.886v-32.1H427.829Zm27.828-5.533h-21.77V97.994h21.77Z" transform="translate(-167.954 -50.152)"/><path class="a" d="M261.239,124.636h19.033V89.075H261.239Zm13.912-25.025h-8.792V93.626h8.792Zm0,9.977h-8.792v-5.465h8.792Zm-8.792,4.512h8.792v5.985h-8.792Z" transform="translate(-111.296 -49.001)"/><path class="a" d="M246.977,87.216h-5.722v6.643H235.56v5.226h5.69a33.839,33.839,0,0,1-5.69,11.877v5.383a25.82,25.82,0,0,0,5.695-6.769v15.05h5.722V107a24.325,24.325,0,0,0,4.738,4.849v-6.282a26.546,26.546,0,0,1-4.738-6.459v-.021h4.738V93.859h-4.738Z" transform="translate(-102.562 -48.368)"/><path class="a" d="M320.8,131.883v3.907c6.427-1.015,9.66-3.181,9.66-15.669h-4.522c-.013,6.188-.366,9.844-5.137,11.763" transform="translate(-131.552 -59.559)"/><path class="a" d="M348.7,125.131h-3.767v.8c0,.989-.04,3.561-.158,4.353a.648.648,0,0,1-.712.637h-.981c-.672,0-.791-.044-.791-.8V120.12h-4.968v11.949c0,.95,0,3.363,2.849,3.363h5.451c3.047,0,3.047-2.929,3.087-8.468Z" transform="translate(-137.173 -59.559)"/><path class="a" d="M309.726,108.344l.308,1h2.537v1.25h4.287v-3.1H329.64v3.1h4.438v-7.614H312.572v2.8l-1.37-4.429h-3.639l.887,2.867h-3.571l7.149-10.866v1.091h8.73v2.715h-8.73v4.193H334.9V97.157h-9.169V94.442H334.9V90.25h-9.169V87.216h-4.975V90.25h-8.73v1.613h-3.777l-4,6.072-1.3-1.33,5.826-8.854h-4.592l-3.975,6.041-.9-.919-2.271,3.447,4.919,5.086-1.85,2.812h-3.284v4.127h5.89v16.245H307.7V108.344Z" transform="translate(-123.404 -48.368)"/><path class="a" d="M318.66,130.808a39.762,39.762,0,0,0-.711-8.171h-3.47a35.837,35.837,0,0,1,.645,8.171Z" transform="translate(-129.403 -60.415)"/><path class="a" d="M296.545,133.336h3.938c.858-2.22,1.266-5.473,1.275-10.7h-3.563c-.012,4.879-.54,8.342-1.649,10.7" transform="translate(-123.304 -60.415)"/><path class="b" d="M37.854,108.172a3.589,3.589,0,0,1-.724-.049,3.891,3.891,0,0,1-.744-.1c-.228-.1-.377-.34-.58-.48a3.7,3.7,0,0,1-.587-.435,3.8,3.8,0,0,1-.515-.536,3.892,3.892,0,0,1-.4-.64,4.183,4.183,0,0,1-.071-.754,3.844,3.844,0,0,1-.15-.727c0-.36.05-.36.05-.721s.067-.361.067-.722-.02-.362-.02-.723-.075-.361-.075-.722-.026-.361-.026-.722.117-.361.117-.722-.013-.36-.013-.721-.048-.361-.048-.721.011-.362.011-.723-.054-.361-.054-.722.067-.362.067-.723V95.79c0-.361.022-.361.022-.722s.02-.361.02-.722,0-.361,0-.723-.073-.361-.073-.723-.063-.361-.063-.722-.043-.362-.043-.723.083-.361.083-.722.058-.361.058-.723-.113-.361-.113-.723-.005-.362-.005-.723.024-.361.024-.723.069-.361.069-.722-.107-.362-.107-.723.042-.361.042-.723.119-.361.119-.723-.168-.361-.168-.723-.007-.362-.007-.723.165-.362.165-.723-.017-.36-.017-.721-.061-.361-.061-.723-.032-.361-.032-.722.047-.361.047-.722-.034-.361-.034-.723.005-.361.005-.723-.063-.362-.063-.723.127-.362.127-.723.005-.361.005-.723-.032-.362-.032-.723.03-.362.03-.723.033-.362.033-.723-.146-.362-.146-.723-.031-.362-.031-.723.013-.362.013-.723.08-.362.08-.724.055-.362.055-.724.027-.362.027-.725-.044-.362-.044-.725-.077-.363-.077-.725a3.929,3.929,0,0,1,.2-.723,2.637,2.637,0,0,1,.406-1.43c.136-.207.4-.32.571-.5.254-.258.28-.232.534-.49s.257-.255.51-.513.222-.289.475-.546.259-.252.512-.51.165-.344.418-.6.361-.152.614-.409.165-.344.418-.6.319-.193.571-.451.26-.251.513-.509.182-.328.436-.585.278-.233.533-.491.262-.249.515-.507.294-.218.548-.476.144-.367.4-.625.255-.257.508-.515.333-.179.587-.438.187-.323.441-.581.271-.241.524-.5.352-.161.605-.418.244-.268.5-.525.265-.246.519-.5.126-.383.379-.641.291-.222.545-.48.323-.189.577-.448.213-.3.467-.555.214-.3.469-.554.244-.268.5-.526.355-.158.608-.416.151-.358.405-.616.246-.266.5-.524.337-.176.591-.434.234-.277.488-.535.219-.292.473-.55.273-.24.526-.5.241-.271.494-.529.264-.248.518-.507.261-.251.515-.51.214-.3.468-.555.3-.215.552-.473.285-.228.538-.486.237-.275.491-.534.247-.265.5-.523.188-.323.441-.581.27-.242.523-.5.229-.281.482-.539.3-.212.553-.469.256-.257.509-.515.333-.181.587-.44.252-.259.506-.517.17-.341.423-.6.268-.244.521-.5.3-.212.555-.471.229-.283.483-.542.281-.231.535-.489.191-.321.445-.579.271-.243.525-.5.222-.29.476-.548.236-.277.49-.536.342-.172.6-.43.2-.315.451-.573.325-.19.579-.449.224-.288.478-.547.18-.332.434-.591.357-.156.611-.414.145-.366.4-.625.257-.257.512-.515.325-.189.58-.448.218-.295.473-.554.316-.2.571-.459.25-.264.505-.523a3.717,3.717,0,0,1,.558-.47,3.632,3.632,0,0,1,.633-.365,3.687,3.687,0,0,1,.688-.272,3.779,3.779,0,0,1,.74-.036,3.9,3.9,0,0,1,.745.008,3.834,3.834,0,0,1,.726.2,3.873,3.873,0,0,1,.6.449,3.738,3.738,0,0,1,.584.449c.253.257.189.321.443.577s.257.253.51.51.3.213.551.471.323.189.577.447.216.294.47.552.269.242.522.5.257.255.511.512.27.242.524.5.213.3.467.555.238.274.492.531.308.2.562.461.219.292.473.55.245.267.5.525.3.208.558.466.2.313.452.57.28.231.534.488.2.309.456.566.285.228.539.486.174.337.429.595.377.137.631.395.131.381.386.639.314.2.569.458a3.833,3.833,0,0,1,.48.568,3.881,3.881,0,0,1,.389.642,3.935,3.935,0,0,1,.194.727,4,4,0,0,1-.02.746,4.035,4.035,0,0,1,.029.748,3.886,3.886,0,0,1-.29.69,4.83,4.83,0,0,1-.8,1.231,3.7,3.7,0,0,1-.588.427c-.2.139-.344.4-.569.494a3.968,3.968,0,0,1-.748.073,3.839,3.839,0,0,1-.719.216,3.788,3.788,0,0,1-.73-.154,3.575,3.575,0,0,1-.668-.294,3.477,3.477,0,0,1-.645-.321c-.2-.137-.493-.175-.668-.352-.25-.254-.148-.355-.4-.608s-.267-.238-.517-.492-.3-.2-.554-.456-.182-.321-.432-.575-.256-.249-.507-.5-.3-.209-.546-.463-.257-.249-.507-.5-.178-.325-.429-.579-.315-.191-.566-.445-.241-.265-.492-.519-.237-.267-.487-.521-.326-.18-.577-.434-.174-.331-.424-.585-.257-.247-.508-.5-.253-.253-.5-.507-.22-.286-.472-.541-.181-.419-.54-.418-.272.181-.524.437-.258.25-.509.506-.247.261-.5.517-.22.288-.472.544-.252.257-.5.513-.222.285-.475.542-.232.277-.484.533-.3.21-.551.466-.242.267-.494.523-.251.257-.5.513-.249.259-.5.515-.212.295-.465.551-.3.207-.554.463-.262.246-.514.5-.241.268-.493.524-.244.266-.5.523-.264.245-.516.5-.275.234-.528.49-.3.205-.556.461-.146.36-.4.616-.253.255-.505.511-.348.162-.6.418-.255.253-.508.51-.263.246-.515.5-.221.288-.473.544-.245.263-.5.52-.173.334-.425.591-.311.2-.563.455-.288.222-.54.478-.158.35-.41.606-.323.187-.575.443-.2.3-.455.562-.311.2-.563.455-.225.284-.478.54-.191.317-.444.573-.357.154-.609.41-.165.341-.417.6-.326.183-.577.438-.2.31-.449.566-.227.281-.48.538-.37.141-.623.4-.216.292-.468.548-.236.273-.488.529-.2.306-.453.562-.323.188-.575.445-.223.286-.476.542-.249.26-.5.517-.246.263-.5.519-.322.188-.575.445-.154.354-.406.61-.254.255-.507.512-.309.2-.561.459-.295.215-.548.472-.158.35-.411.606-.254.256-.507.513-.237.273-.49.53-.276.233-.529.49-.24.271-.492.527-.317.195-.569.452-.264.246-.517.5-.231.28-.484.537-.258.254-.511.512a1.183,1.183,0,0,0-.4.573,1.22,1.22,0,0,0-.137.7c0,.366.13.366.13.732s0,.366,0,.732-.107.366-.107.732-.055.366-.055.731.166.366.166.731-.127.366-.127.731-.013.366-.013.732.129.366.129.732-.161.366-.161.731.135.366.135.732.04.366.04.731-.173.366-.173.732.143.366.143.732-.09.366-.09.732.128.366.128.732-.166.366-.166.732.134.366.134.732.025.366.025.732-.144.366-.144.732-.025.366-.025.732.053.366.053.732.11.365.11.731-.093.366-.093.732-.079.366-.079.732.054.366.054.731.088.366.088.732-.093.366-.093.732-.013.366-.013.731.074.366.074.732.009.366.009.732.048.366.048.732-.121.366-.121.732.034.366.034.732.025.367.025.733-.078.366-.078.733.043.366.043.732,0,.366,0,.733-.017.366-.017.733.127.366.127.733-.028.367-.028.734-.25.41.006.674.294.083.651.083.357-.062.713-.062.357-.022.713-.022.356.018.712.018.356.045.713.045.356.015.713.015.356.066.712.066.357-.053.713-.053.356-.1.713-.1.356.018.713.018.357.125.714.125.356-.088.713-.088.357.059.714.059.356-.079.713-.079.357-.049.714-.049.357-.011.714-.011.356.018.713.018.356.1.713.1.357-.089.715-.089.357.129.714.129.358-.1.715-.1.358-.018.716-.018.358-.042.716-.042c.234,0,.454.167.677.207a4.2,4.2,0,0,1,.7.053c.217.081.375.293.572.409a4.2,4.2,0,0,1,.642.293c.174.15.216.432.361.61s.366.3.476.506a3.874,3.874,0,0,1,.165.674c.069.216.276.407.306.638a4.115,4.115,0,0,1,.024.825,4.05,4.05,0,0,1-.171.806,3.979,3.979,0,0,1-.419.7,3.829,3.829,0,0,1-.388.712,3.809,3.809,0,0,1-.664.449,3.673,3.673,0,0,1-.651.433,3.8,3.8,0,0,1-.722.352,3.807,3.807,0,0,1-.8-.045c-.362,0-.362.16-.723.16s-.362-.07-.723-.07-.362.065-.723.065-.362-.162-.723-.162-.362.16-.723.16-.362-.162-.723-.162-.362.079-.723.079-.362.08-.724.08-.361-.1-.722-.1-.362.117-.723.117-.362-.127-.723-.127-.361.137-.722.137-.362-.036-.723-.036-.362-.133-.723-.133-.362-.017-.723-.017-.362.133-.724.133-.362-.018-.723-.018-.362.038-.724.038-.362,0-.724,0-.362-.1-.724-.1-.362.066-.724.066-.362.04-.723.04-.362-.033-.723-.033-.362.018-.725.018-.362-.09-.725-.09-.363-.006-.725-.006a6.217,6.217,0,0,1-.725.034,6.228,6.228,0,0,0-.727-.078" transform="translate(-34.016 -28.355)"/><path class="c" d="M166.472,68.316c0,.361.1.361.1.721s-.128.362-.128.723.024.361.024.723-.02.361-.02.722.028.361.028.722.069.36.069.721-.079.361-.079.722.141.36.141.721-.009.361-.009.722-.152.361-.152.723.143.361.143.723-.053.361-.053.722-.038.361-.038.722.018.361.018.722.045.361.045.722-.037.361-.037.723-.04.361-.04.723.082.361.082.722-.009.361-.009.723-.038.361-.038.722.06.362.06.723.011.361.011.722-.08.362-.08.723.1.361.1.723-.136.362-.136.723.091.362.091.723-.119.362-.119.723.029.362.029.723,0,.361,0,.723-.009.361-.009.723.077.361.077.721-.1.362-.1.723.179.361.179.723-.123.361-.123.722-.052.361-.052.722.052.362.052.723-.039.361-.039.722.12.362.12.723-.03.362-.03.723-.11.362-.11.724.092.361.092.723-.053.362-.053.723.145.362.145.724-.071.361-.071.722-.014.362-.014.723-.011.362-.011.724.018.362.018.724-.046.362-.046.724.1.363.1.725-.1.363-.1.726a4.213,4.213,0,0,1,.049.754,3.944,3.944,0,0,1-.28.7,3.986,3.986,0,0,1-.294.693c-.136.207-.422.294-.595.47a3.856,3.856,0,0,1-.492.556,3.785,3.785,0,0,1-.647.371,3.737,3.737,0,0,1-.732.131,3.556,3.556,0,0,1-.725.051c-.362,0-.362-.013-.725-.013s-.362.028-.725.028-.362.073-.725.073-.362-.076-.725-.076-.362.11-.725.11-.363-.1-.725-.1-.362.065-.725.065-.362.032-.725.032h-.725c-.363,0-.363-.113-.726-.113s-.362.045-.725.045-.363.082-.725.082-.362-.1-.725-.1-.363.042-.725.042-.362.067-.725.067-.362-.073-.725-.073-.363-.021-.725-.021-.362.116-.725.116-.363-.082-.725-.082-.363.016-.726.016-.362.077-.725.077-.363-.169-.725-.169-.362-.018-.725-.018-.362.049-.725.049-.362-.039-.725-.039-.362.15-.725.15-.363-.013-.725-.013-.363-.031-.725-.031-.363.066-.725.066-.362-.168-.725-.168-.362.079-.725.079-.362-.028-.724-.028-.362-.005-.724-.005-.362.069-.724.069-.362-.1-.724-.1-.362.124-.723.124-.362-.02-.724-.02-.362-.073-.725-.073-.362-.016-.725-.016-.362.115-.725.115-.363-.163-.726-.163-.362.023-.725.023-.362.08-.725.08-.362-.1-.725-.1-.362.079-.725.079-.362.028-.725.028-.362.015-.724.015-.362.043-.725.043-.363-.1-.725-.1-.362-.061-.725-.061-.363.1-.725.1-.363.036-.726.036-.362-.067-.725-.067-.363-.069-.725-.069-.362.152-.725.152-.362-.087-.725-.087-.363-.032-.725-.032-.363.092-.726.092-.363-.043-.726-.043-.362-.027-.725-.027-.362,0-.725,0-.363.032-.725.032-.363.036-.725.036-.363-.071-.726-.071-.363,0-.726,0-.363.052-.725.052-.363-.026-.725-.026-.363-.057-.726-.057-.363.005-.726.005-.363.03-.726.03-.363.034-.725.034-.363.077-.726.077-.363-.044-.727-.044-.362.018-.725.018-.363-.063-.726-.063-.363.069-.726.069-.363-.025-.726-.025-.363.026-.727.026-.362-.09-.725-.09-.363-.053-.725-.053-.363.025-.726.025-.362.146-.725.146h-.725c-.363,0-.363-.036-.727-.036s-.362-.061-.725-.061-.363-.007-.727-.007-.363.077-.726.077l-.727,0c-.363,0-.363-.091-.726-.091s-.364-.027-.727-.027-.364-.024-.727-.024-.364.137-.727.137-.364-.015-.727-.015-.363-.084-.727-.084-.364.074-.727.074-.364.069-.727.069-.364-.03-.728-.03-.364-.15-.729-.15a3.364,3.364,0,0,1-1.452-.185,3.753,3.753,0,0,1-.654-.356,3.845,3.845,0,0,1-.59-.46,3.907,3.907,0,0,1-.476-.581,3.537,3.537,0,0,1-.608-2.135c0-.367.055-.367.055-.733s-.1-.367-.1-.734.1-.367.1-.734,0-.367,0-.733.006-.367.006-.734-.035-.367-.035-.734,0-.367,0-.733.072-.367.072-.734-.1-.366-.1-.732.117-.367.117-.734-.139-.366-.139-.733.076-.366.076-.732-.065-.367-.065-.733-.036-.367-.036-.734,0-.367,0-.734.016-.367.016-.734.072-.367.072-.734.04-.367.04-.734V90.51c0-.367-.1-.367-.1-.734s.008-.368.008-.735-.009-.367-.009-.734.04-.367.04-.734.114-.367.114-.734-.024-.367-.024-.734-.131-.368-.131-.735.139-.368.139-.736-.1-.368-.1-.736a4.154,4.154,0,0,1,.108-.745,4.21,4.21,0,0,1,.137-.744,4.116,4.116,0,0,1,.395-.646,3.975,3.975,0,0,1,.461-.587,3.768,3.768,0,0,1,.6-.438,3.62,3.62,0,0,1,.6-.43,3.564,3.564,0,0,1,.69-.3,3.665,3.665,0,0,1,.75.034,3.747,3.747,0,0,1,.725.066,3.825,3.825,0,0,1,.736.11,3.632,3.632,0,0,1,.6.445c.2.138.508.162.684.342a1.949,1.949,0,0,1,.7,1.322,3.845,3.845,0,0,1,.284.688,3.916,3.916,0,0,1,.063.744c0,.367-.082.367-.082.734s.093.366.093.733-.028.367-.028.734.1.366.1.732-.04.366-.04.733-.121.367-.121.733.078.366.078.732.038.366.038.733.044.367.044.734-.084.366-.084.732.086.367.086.734-.009.367-.009.734-.024.367-.024.734-.15.367-.15.734.114.367.114.734.031.367.031.734.016.367.016.734-.125.366-.125.733-.008.367-.008.734.1.367.1.734-.031.367-.031.734-.006.368-.006.736-.3.512-.04.774.4.052.762.052.361-.129.722-.129.362.065.723.065.361-.056.722-.056.361-.038.722-.038.361.045.722.045.362.1.723.1.361-.127.722-.127.362.138.723.138.362-.084.723-.084.361-.04.723-.04.361.015.722.015.362.108.723.108.361-.1.722-.1.361.079.722.079.362-.137.723-.137.361.088.723.088.361.024.723.024.361-.129.722-.129.361.036.722.036.361.038.722.038.361.084.721.084.361.006.721.006.36-.028.721-.028.36-.138.721-.138.361.007.721.007.36.127.721.127.361.03.721.03.361.018.722.018.361-.04.722-.04.362-.1.723-.1.361.11.723.11.361-.147.722-.147.361.131.722.131.361-.036.722-.036.36.048.721.048.361.03.722.03.361-.09.721-.09.362-.044.723-.044.361.022.722.022.362.055.723.055.362.062.723.062.362-.1.723-.1.361.1.722.1.361-.053.722-.053.361-.064.722-.064.362.1.723.1.362-.168.723-.168.362.112.723.112.362.007.723.007h.723c.361,0,.361-.048.723-.048s.361.035.723.035.362-.1.723-.1.362.011.723.011.362.1.723.1.362.041.723.041.362.032.723.032.362-.085.723-.085.362.044.723.044.362-.017.723-.017.361.013.723.013.362.006.723.006.362-.119.723-.119.362.1.723.1.362.055.723.055.362-.135.723-.135.362.124.723.124.361-.029.722-.029.362-.033.723-.033.362-.076.723-.076.361.04.722.04.362-.053.723-.053.362.12.723.12.362-.079.723-.079.362-.044.724-.044.362.089.723.089.362-.023.724-.023.362.014.723.014.362-.042.724-.042.362.084.725.084.361.011.723.011.362-.014.723-.014.362-.1.725-.1.362.057.725.057.362.082.725.082h.726c.363,0,.459.168.715-.09s.03-.354.03-.72-.09-.366-.09-.732.069-.366.069-.732.082-.366.082-.731,0-.366,0-.731-.114-.366-.114-.731-.024-.366-.024-.732.042-.366.042-.732-.039-.366-.039-.732,0-.366,0-.731.065-.366.065-.731-.008-.366-.008-.732-.05-.366-.05-.732.134-.366.134-.731-.149-.366-.149-.732.1-.366.1-.732.028-.366.028-.732,0-.366,0-.732.028-.366.028-.732-.03-.366-.03-.732-.114-.366-.114-.732-.029-.366-.029-.732.054-.365.054-.73.11-.366.11-.732-.112-.366-.112-.732.073-.366.073-.731-.048-.366-.048-.731.057-.366.057-.732-.01-.366-.01-.732.048-.366.048-.732-.168-.366-.168-.732.1-.366.1-.732-.026-.366-.026-.732-.007-.366-.007-.732.043-.366.043-.733-.09-.366-.09-.733.092-.366.092-.732-.029-.366-.029-.733.055-.366.055-.732.036-.367.036-.734-.175-.367-.175-.734.212-.392.075-.732-.3-.2-.554-.46-.132-.374-.384-.63-.281-.227-.533-.483-.341-.169-.593-.426-.26-.248-.512-.5-.178-.329-.43-.586-.281-.228-.534-.484-.17-.337-.422-.594-.336-.174-.588-.43-.207-.3-.459-.557-.211-.3-.463-.552-.261-.247-.513-.5-.319-.19-.571-.446-.2-.311-.448-.568-.247-.261-.5-.518-.278-.232-.531-.488-.224-.283-.476-.54-.3-.211-.551-.467-.3-.211-.55-.467-.192-.315-.444-.572-.279-.23-.531-.486-.271-.238-.523-.495-.245-.264-.5-.521-.263-.246-.515-.5-.194-.313-.447-.57-.258-.25-.51-.507-.288-.221-.54-.477-.243-.266-.495-.522-.3-.216-.547-.472-.247-.261-.5-.518-.191-.317-.443-.573-.321-.188-.574-.445-.257-.251-.509-.508-.154-.354-.407-.61-.242-.268-.494-.525-.306-.2-.558-.461-.222-.284-.474-.54-.326-.183-.577-.439-.251-.257-.5-.513-.225-.283-.478-.54-.3-.209-.553-.467-.19-.317-.442-.573-.25-.259-.5-.515-.236-.272-.488-.529-.222-.287-.474-.544-.273-.238-.525-.494-.26-.249-.512-.505-.282-.228-.534-.484-.232-.278-.484-.535-.29-.22-.543-.476-.238-.271-.492-.527-.235-.274-.488-.531-.313-.2-.567-.454-.18-.328-.433-.585-.3-.213-.55-.471-.183-.325-.436-.583-.339-.171-.592-.428-.152-.356-.4-.613-.366-.146-.619-.4-.2-.306-.456-.562-.3-.207-.558-.465-.236-.275-.49-.533-.109-.517-.471-.517-.243.236-.5.494-.292.221-.546.48-.178.335-.432.593-.372.144-.626.4-.244.27-.5.529-.2.312-.455.571-.256.257-.511.515-.294.22-.549.478-.145.366-.4.624-.308.207-.562.465-.263.251-.517.509-.2.317-.451.576l-.509.519c-.255.259-.26.253-.515.513s-.266.247-.521.506-.24.273-.495.531-.3.21-.559.469-.2.313-.455.573-.286.228-.541.487-.261.253-.515.511-.266.248-.521.507l-.51.517c-.255.259-.267.248-.521.507s-.224.289-.479.548-.313.2-.568.459-.195.317-.449.575-.327.187-.581.445-.168.344-.422.6-.342.173-.6.432-.221.293-.476.552-.315.2-.57.458-.162.349-.417.608-.332.183-.586.441-.2.309-.459.568-.2.315-.453.574-.315.2-.57.458-.3.211-.559.47-.229.285-.484.544-.2.311-.457.569-.289.226-.544.486-.206.308-.461.567-.283.232-.538.492-.2.31-.459.569-.265.25-.52.509-.366.15-.622.41-.211.3-.465.562-.241.273-.5.533-.227.288-.482.548-.286.23-.542.49-.208.307-.463.566-.334.183-.59.444-.554.181-.414.518.294.084.657.084.364-.015.727-.015.364-.05.727-.05.364.1.728.1.363-.184.726-.184.364.128.727.128.364-.07.727-.07h.727c.364,0,.364.087.727.087s.364-.027.728-.027.364-.076.727-.076.364.121.728.121.364-.02.727-.02.364.038.728.038.364-.122.728-.122.364.063.728.063.364-.071.729-.071.364.125.728.125.364-.138.727-.138.364.119.729.119.364.03.729.03.364-.038.728-.038.365-.146.73-.146.657.455.784.113-.358-.251-.623-.519-.267-.267-.533-.535-.168-.364-.432-.633-.314-.22-.579-.489-.309-.226-.574-.495-.189-.344-.455-.612-.3-.234-.566-.5-.238-.3-.5-.566-.273-.262-.54-.531a3.753,3.753,0,0,1-.436-.591c-.138-.208-.368-.367-.461-.6a3.881,3.881,0,0,1-.172-.732,3.929,3.929,0,0,1-.015-.744,4.153,4.153,0,0,1-.033-.753,3.966,3.966,0,0,1,.207-.729,3.924,3.924,0,0,1,.336-.683c.137-.205.437-.282.614-.461a3.69,3.69,0,0,1,.536-.482,3.625,3.625,0,0,1,.622-.373,3.726,3.726,0,0,1,.68-.295,3.925,3.925,0,0,1,.741.064,3.971,3.971,0,0,1,.741-.064,3.8,3.8,0,0,1,.668.323,3.6,3.6,0,0,1,.625.36,3.649,3.649,0,0,1,.545.469c.253.257.309.064.632.391.143.145.224.407.418.6.155.158.289.365.472.55.16.162.46.205.638.385.162.165.33.338.5.515s.247.424.42.6.324.35.5.525.433.245.6.419.207.469.378.643.393.288.563.461.394.289.564.461.247.434.416.606.383.3.552.474.289.4.457.567.4.294.563.464.41.282.576.451.235.457.4.624.44.257.6.422c.178.181.307.395.467.557.183.185.382.329.537.486.193.2.387.346.53.491.319.323.5.513.505.516a4.084,4.084,0,0,1,.482.588,4.03,4.03,0,0,1,.358.673,4.2,4.2,0,0,1,.064.761,3.747,3.747,0,0,1,.063.73,3.8,3.8,0,0,1-.04.729,3.673,3.673,0,0,1-.255.683,4,4,0,0,1-.226.711,4.046,4.046,0,0,1-.426.623,3.967,3.967,0,0,1-.629.416,3.921,3.921,0,0,1-.618.432,4.648,4.648,0,0,1-1.477.266c-.362,0-.362-.03-.725-.03s-.363-.038-.725-.038-.363.039-.725.039-.362-.031-.725-.031-.362-.086-.724-.086-.362.088-.724.088-.362.063-.725.063-.362-.042-.725-.042-.362.018-.725.018-.362.047-.725.047-.362-.1-.725-.1-.362.051-.725.051-.362.02-.725.02-.362-.123-.725-.123-.363.019-.725.019-.363.046-.725.046-.362-.057-.725-.057-.362.052-.725.052-.362.036-.725.036l-.725,0c-.362,0-.362-.056-.725-.056s-.362.018-.725.018-.363.026-.725.026-.363.064-.726.064-.362-.057-.725-.057-.362-.081-.725-.081-.362.024-.725.024-.363.045-.725.045-.363-.051-.726-.051-.362.041-.724.041-.362-.019-.725-.019-.362-.047-.725-.047-.362.112-.725.112-.363-.027-.725-.027-.363-.049-.726-.049-.362.042-.725.042-.363-.1-.726-.1-.363.018-.725.018-.363.121-.727.121-.362.023-.725.023-.363,0-.726,0-.364-.021-.727-.021-.363-.135-.727-.135-.362.059-.725.059-.363.1-.727.1-.363-.044-.726-.044-.364.048-.727.048-.364-.076-.728-.076-.364.022-.728.022a3.784,3.784,0,0,1-.739-.067,23.795,23.795,0,0,0-1.34-.609,2.888,2.888,0,0,1-1.347-1.718,3.771,3.771,0,0,1-.24-.7,3.84,3.84,0,0,1-.1-.739,4.1,4.1,0,0,1,.013-.76,3.963,3.963,0,0,1,.327-.686,3.967,3.967,0,0,1,.263-.709,3.862,3.862,0,0,1,.546-.523s.161-.2.49-.534c.141-.144.34-.288.536-.487.153-.156.3-.346.488-.533.158-.161.366-.3.546-.478.16-.164.335-.331.511-.511.162-.165.276-.392.451-.57s.347-.323.521-.5.345-.327.519-.5.3-.376.471-.552.39-.285.563-.461.268-.406.439-.581.381-.3.552-.472.275-.4.446-.576.33-.348.5-.522.439-.242.61-.416.319-.359.49-.533.306-.373.477-.546.3-.379.471-.552.412-.269.582-.443.319-.361.49-.534.333-.348.5-.521.243-.436.414-.608.4-.283.568-.456.284-.4.454-.569.377-.3.547-.474.412-.267.582-.439.243-.436.412-.608.426-.255.6-.428.224-.455.393-.627.385-.3.554-.47.36-.321.53-.494.37-.311.538-.484.292-.389.461-.56.331-.352.5-.525.343-.34.513-.512.354-.33.523-.5.292-.391.462-.564.359-.326.529-.5.388-.3.557-.469.335-.349.5-.521l.508-.517c.17-.173.375-.31.544-.482s.293-.391.462-.563.283-.4.452-.572.41-.276.579-.447.36-.325.529-.5.344-.34.513-.512.307-.377.476-.549.261-.422.429-.593.388-.3.556-.469.363-.323.531-.494.362-.324.53-.495.314-.37.482-.541.273-.411.441-.582.391-.3.559-.467.387-.3.554-.471.3-.383.472-.553.363-.325.53-.5.264-.424.431-.593.456-.235.622-.4.29-.4.456-.568l.507-.515c.174-.177.309-.382.474-.549s.441-.255.6-.421.292-.4.454-.568c.178-.18.328-.372.489-.535.18-.183.42-.286.578-.447.184-.187.268-.443.422-.6.2-.2.422-.315.563-.459.329-.335.166-.342.419-.6a3.959,3.959,0,0,1,.615-.422,3.689,3.689,0,0,1,.659-.321,3.842,3.842,0,0,1,.67-.342,11.864,11.864,0,0,0,1.5,0,3.826,3.826,0,0,1,.68.317,3.6,3.6,0,0,1,.637.361,3.785,3.785,0,0,1,.521.509c.254.259.348.166.6.424s.267.245.52.5.262.249.515.507.22.291.473.548.275.237.527.495.143.367.4.624.359.154.612.411.162.347.416.6.239.272.492.529.278.234.531.492.252.259.505.517.285.227.538.485.227.284.481.543.286.226.54.484.2.314.45.572.3.209.557.467.278.233.532.491.218.292.472.55.282.229.536.487.3.212.553.471.158.351.412.609.294.219.548.477.209.3.463.56.273.239.527.5.3.211.556.469.271.24.525.5.262.249.516.507.263.249.516.507.139.371.393.629.383.131.637.389.137.373.391.632.327.186.581.444.259.253.513.511.223.288.477.546.294.219.548.477.231.28.485.539.282.23.536.488.253.259.507.517.179.333.432.591.333.18.587.439.264.249.518.507.15.361.4.619.3.213.553.471.228.283.48.54.223.287.476.544.271.242.524.5.315.2.568.456.2.317.449.575.315.2.569.455.206.3.459.562.268.244.522.5.229.282.483.541.308.205.562.464.277.236.531.494.247.265.5.523.209.3.463.561.22.293.474.551.354.16.608.418.161.35.415.609.344.17.6.428.24.273.494.531.232.28.487.538.222.29.476.548.261.252.515.51.257.257.511.515.29.224.544.483.291.224.546.482.253.261.507.519.141.372.4.631.251.263.506.523a3.666,3.666,0,0,1,.5.54,3.924,3.924,0,0,1,.421.621,4.128,4.128,0,0,1,.075.751,3.653,3.653,0,0,1,.1.722" transform="translate(-52.334 -28.346)"/><path class="c" d="M122.468,111.957a3.268,3.268,0,0,1-.74-.11,3.419,3.419,0,0,1-.739-.172,3.381,3.381,0,0,1-.638-.417,3.451,3.451,0,0,1-.554-.525,3.389,3.389,0,0,1-.37-.666,3.294,3.294,0,0,1-.241-.715,3.38,3.38,0,0,1-.172-.75,3.433,3.433,0,0,1,.112-.763,3.328,3.328,0,0,1,.328-.688,3.267,3.267,0,0,1,.4-.632c.16-.2.242-.477.443-.637a3.546,3.546,0,0,1,.681-.37,3.489,3.489,0,0,1,.749-.15c.245-.056.477-.275.739-.275a3.54,3.54,0,0,1,.775.121,3.458,3.458,0,0,1,.723.284,2.236,2.236,0,0,1,1.228.936,3.534,3.534,0,0,1,.35.693,3.368,3.368,0,0,1,.245.723,3.518,3.518,0,0,1,.2.758,3.6,3.6,0,0,1-.092.783,3.5,3.5,0,0,1-.309.721,1.743,1.743,0,0,1-1.016,1.138,3.509,3.509,0,0,1-.6.5,3.546,3.546,0,0,1-.729.29,3.847,3.847,0,0,1-.782-.073" transform="translate(-62.924 -54.447)"/><path class="c" d="M169.194,112.042a3.713,3.713,0,0,1-.782.039,3.543,3.543,0,0,1-.717-.313,4.556,4.556,0,0,1-1.643-1.6,3.612,3.612,0,0,1-.1-.772c-.056-.246-.253-.478-.253-.741a11.756,11.756,0,0,1,.384-1.5,3.52,3.52,0,0,1,.494-.589,3.422,3.422,0,0,1,.48-.595,2.118,2.118,0,0,1,1.379-.653,3.271,3.271,0,0,1,1.519.019,3.352,3.352,0,0,1,.732.224,3.437,3.437,0,0,1,.612.459,1.947,1.947,0,0,1,1.027,1.128,3.533,3.533,0,0,1,.147.758,3.476,3.476,0,0,1,.2.748,3.755,3.755,0,0,1,0,.794,3.617,3.617,0,0,1-.308.732c-.112.232-.418.341-.577.54a3.5,3.5,0,0,1-.447.623,2.529,2.529,0,0,1-2.145.7" transform="translate(-78.801 -54.497)"/><path class="c" d="M143.412,125.762c-.252-.005-.495-.135-.746-.16s-.485-.114-.734-.156-.5-.05-.741-.11-.538.055-.779-.022-.429-.3-.664-.395-.5-.11-.729-.218-.375-.364-.595-.488-.5-.137-.713-.276-.317-.414-.517-.568-.414-.277-.6-.445a2.352,2.352,0,0,1-.529-.521,2.474,2.474,0,0,1-.348-.684,2.536,2.536,0,0,1,.074-.763,2.288,2.288,0,0,1,.2-.712,2.353,2.353,0,0,1,.333-.68,2.434,2.434,0,0,1,.566-.372,1.517,1.517,0,0,1,1.258-.358,2.267,2.267,0,0,1,.835.183,2.413,2.413,0,0,1,.793.368c.17.152.278.4.466.531s.512.042.714.15.345.333.558.417a6.154,6.154,0,0,0,.668.166c.221.059.422.249.649.282s.474-.112.7-.107c.058,0,.057.067.115.067a5.834,5.834,0,0,0,.665-.081,6.077,6.077,0,0,0,.634-.21,6.24,6.24,0,0,0,.661-.094c.21-.075.5.008.7-.089a6.091,6.091,0,0,0,.589-.351c.189-.12.3-.368.469-.508a2.384,2.384,0,0,1,.769-.274,2.172,2.172,0,0,1,.769-.162,2.233,2.233,0,0,1,.674.1,2.39,2.39,0,0,1,.674.2,2.448,2.448,0,0,1,.457.538c.166.2.535.3.625.53a2.754,2.754,0,0,1,0,.807,2.578,2.578,0,0,1-.005.777,1.719,1.719,0,0,1-.859,1.279c-.177.146-.324.341-.511.475s-.362.3-.558.422-.417.213-.62.321-.49.051-.7.146-.341.385-.556.467-.463.091-.682.159-.444.14-.668.194-.493-.121-.72-.082-.429.222-.658.247-.465-.1-.695-.086c-.148.007-.292.119-.44.119a1.168,1.168,0,0,1-.242.03" transform="translate(-68.599 -59.12)"/></g></g></g></svg>