<svg xmlns="http://www.w3.org/2000/svg" xmlns:xlink="http://www.w3.org/1999/xlink" width="131.026" height="82.893" viewBox="0 0 131.026 82.893"><defs><style>.a{fill:none;}.b{clip-path:url(#a);}.c{clip-path:url(#b);}.d{opacity:0.3;mix-blend-mode:multiply;isolation:isolate;}.e{clip-path:url(#c);}.f{fill:#fff;}.g{fill:#a19f9f;}.h{fill:#e60012;}</style><clipPath id="a"><rect class="a" width="131.026" height="82.893"/></clipPath><clipPath id="b"><rect class="a" width="131.025" height="82.893"/></clipPath><clipPath id="c"><rect class="a" width="129.795" height="81.662"/></clipPath></defs><g class="b"><g class="c"><g class="d" transform="translate(1.231 1.231)"><g class="e"><path d="M128.94,7.354,95.616,3.036A4.481,4.481,0,0,0,95.052,3a4.435,4.435,0,0,0-4.387,3.855l-.284,2.19-1.909-.7A8.185,8.185,0,0,0,83.1,8.256l-23.12,7.623-24.391-7.6a9.281,9.281,0,0,0-5.61.023L5.9,16.013a4.2,4.2,0,0,0-2.729,5.171L19.691,76.752a4.314,4.314,0,0,0,2.158,2.613,4.337,4.337,0,0,0,3.372.271l23.317-7.718a1.083,1.083,0,0,1,.338-.053,1.064,1.064,0,0,1,.352.058L71.2,79.588a6.219,6.219,0,0,0,4.044.015l6.731-2.293a4.407,4.407,0,0,0,3.628,3l33.323,4.318a4.481,4.481,0,0,0,.569.037,4.424,4.424,0,0,0,4.383-3.855l.176-1.361a4.754,4.754,0,0,0,4.452-6.111l-2.549-8.576,6.8-52.451a4.429,4.429,0,0,0-3.818-4.955" transform="translate(-3 -3)"/></g></g><path class="f" d="M125.94,4.354,92.616.036A4.48,4.48,0,0,0,92.052,0a4.435,4.435,0,0,0-4.387,3.855l-.284,2.19-1.909-.7A8.185,8.185,0,0,0,80.1,5.256l-23.12,7.623-24.391-7.6a9.281,9.281,0,0,0-5.61.023L2.9,13.013A4.2,4.2,0,0,0,.172,18.184L16.691,73.752a4.314,4.314,0,0,0,2.158,2.613,4.337,4.337,0,0,0,3.372.271l23.317-7.718a1.083,1.083,0,0,1,.338-.053,1.064,1.064,0,0,1,.352.058L68.2,76.588a6.219,6.219,0,0,0,4.044.015l6.731-2.293a4.407,4.407,0,0,0,3.628,3l33.323,4.318a4.482,4.482,0,0,0,.569.037,4.424,4.424,0,0,0,4.383-3.855l.176-1.361a4.754,4.754,0,0,0,4.452-6.111l-2.549-8.576,6.8-52.451a4.429,4.429,0,0,0-3.818-4.955" transform="translate(0)"/><path class="f" d="M25.044,84.738,8.524,29.172a.693.693,0,0,1,.452-.857L33.057,20.6a5.824,5.824,0,0,1,3.51-.014l24.717,7.7a2.421,2.421,0,0,0,1.478-.012l23.445-7.73a4.676,4.676,0,0,1,3.075.051l20.782,7.618a1.758,1.758,0,0,1,1.08,1.15L127.18,83.31a1.273,1.273,0,0,1-1.594,1.58L101.706,77.58a5.036,5.036,0,0,0-3.1.048L76.134,85.284a2.72,2.72,0,0,1-1.772-.007L52.386,77.613a4.554,4.554,0,0,0-2.931-.023L26.136,85.308a.858.858,0,0,1-1.092-.57" transform="translate(-5.011 -11.982)"/><path d="M73.784,84.981a3.746,3.746,0,0,1-1.233-.208L50.575,77.109a3.55,3.55,0,0,0-2.272-.018L24.984,84.809a1.884,1.884,0,0,1-2.4-1.251h0L6.068,27.992a1.727,1.727,0,0,1,1.122-2.126l24.08-7.714a6.818,6.818,0,0,1,4.128-.016l24.718,7.7a1.385,1.385,0,0,0,.852-.007L84.412,18.1a5.722,5.722,0,0,1,3.749.062l20.782,7.618a2.8,2.8,0,0,1,1.71,1.82l16.037,53.943a2.3,2.3,0,0,1-2.876,2.853L99.932,77.088a3.983,3.983,0,0,0-2.468.039L74.991,84.782a3.748,3.748,0,0,1-1.207.2M24.553,82.972h0m24.859-8.11a5.6,5.6,0,0,1,1.838.309l21.976,7.665a1.7,1.7,0,0,0,1.1,0L96.8,75.185a6.02,6.02,0,0,1,3.728-.058l23.881,7.311a.233.233,0,0,0,.247-.061.236.236,0,0,0,.063-.247L108.687,28.188a.737.737,0,0,0-.45-.479L87.455,20.09a3.665,3.665,0,0,0-2.4-.039L61.61,27.78a3.43,3.43,0,0,1-2.1.017l-24.717-7.7A4.776,4.776,0,0,0,31.9,20.1L8.127,27.72,24.5,82.807l23.156-7.664a5.579,5.579,0,0,1,1.753-.281" transform="translate(-3.538 -10.509)"/><path class="g" d="M217.179,85.162a.938.938,0,0,1-.909-.708L205.1,40.321a.938.938,0,1,1,1.819-.461l11.173,44.133a.938.938,0,0,1-.679,1.14.955.955,0,0,1-.231.029" transform="translate(-120.954 -23.093)"/><path class="f" d="M200.5,77.814l8.876-68.5a.937.937,0,0,1,1.049-.809l33.32,4.318a.937.937,0,0,1,.808,1.049l-8.876,68.5a.936.936,0,0,1-1.049.808l-33.32-4.318a.937.937,0,0,1-.808-1.049" transform="translate(-118.258 -5.013)"/><path d="M233.282,82.741a2,2,0,0,1-.256-.017l-33.321-4.317a1.963,1.963,0,0,1-1.694-2.2l8.875-68.5a1.966,1.966,0,0,1,2.2-1.694l33.32,4.318a1.964,1.964,0,0,1,1.694,2.2l-8.876,68.5a1.963,1.963,0,0,1-1.942,1.71m-33.225-6.357L233.2,80.679l8.853-68.323L208.91,8.061Zm-.011.087h0Zm-1.017-.131h0Z" transform="translate(-116.783 -3.539)"/><path class="g" d="M151.557,98.828a.939.939,0,0,1-.909-.708L139.475,53.987a.938.938,0,1,1,1.819-.461l11.173,44.133a.938.938,0,0,1-.679,1.14.952.952,0,0,1-.231.029" transform="translate(-82.249 -31.154)"/><path class="g" d="M89.467,82.028a.938.938,0,0,1-.9-.668L75.426,37.774a.938.938,0,0,1,1.8-.541L90.365,80.819a.939.939,0,0,1-.9,1.209" transform="translate(-44.464 -21.567)"/><path class="h" d="M62.28,142.97a.469.469,0,0,1-.452-.346l-.465-1.71a1.029,1.029,0,0,0-1.26-.722l-2.038.554a.469.469,0,1,1-.246-.905l2.039-.554a1.968,1.968,0,0,1,2.411,1.381l.465,1.71a.469.469,0,0,1-.33.575.475.475,0,0,1-.123.016" transform="translate(-33.899 -82.114)"/><path class="h" d="M54.694,148.615a1.968,1.968,0,0,1-1.9-1.45l-.881-3.242a1.964,1.964,0,0,1,1.381-2.411.469.469,0,0,1,.246.905,1.027,1.027,0,0,0-.721,1.26l.881,3.242a1.028,1.028,0,0,0,1.26.721.469.469,0,1,1,.246.905,1.961,1.961,0,0,1-.515.069" transform="translate(-30.581 -83.457)"/><path class="h" d="M62.537,153.082a.469.469,0,0,1-.123-.922l1.82-.495a1.027,1.027,0,0,0,.721-1.26.469.469,0,1,1,.905-.246,1.965,1.965,0,0,1-1.381,2.411l-1.819.495a.476.476,0,0,1-.123.016" transform="translate(-36.609 -88.364)"/><path d="M251.97,55.486c-.486-.068-.852-.205-.794-.767l.21-1.746c.049-.4.264-.64.952-.557l2.767.332c.689.083.842.363.794.767l-.21,1.747c-.048.4-.263.639-.952.557l-.542-.065a.5.5,0,0,1,.14.073,8.832,8.832,0,0,0,1.252.6.327.327,0,0,1,.247.347.294.294,0,0,1-.338.258.462.462,0,0,1-.109-.032,6.822,6.822,0,0,1-1.431-.731.351.351,0,0,1-.169-.309.257.257,0,0,1,.242-.223l-1.489-.178a.265.265,0,0,1,.209.276.289.289,0,0,1-.2.218,6.666,6.666,0,0,1-1.443.368l-.029.006a12.154,12.154,0,0,0,2.6.518c.984.119,1.769.176,2.476.2a.31.31,0,0,1,.33.356.317.317,0,0,1-.343.294c-.724-.022-1.509-.088-2.511-.208-2.454-.295-3.458-.713-4.049-1.53a6.6,6.6,0,0,1-1.211.918.357.357,0,0,1-.24.055.3.3,0,0,1-.266-.34.413.413,0,0,1,.231-.3,5.5,5.5,0,0,0,1.2-.853l.231-1.921c.025-.211-.025-.264-.282-.295l-.588-.071a.3.3,0,0,1,.07-.588l.726.087c.588.071.773.317.71.84l-.242,2.022a2.218,2.218,0,0,0,.893.713.292.292,0,0,1-.075-.224c.013-.11.1-.2.27-.229a5.629,5.629,0,0,0,1.172-.288.637.637,0,0,1,.173-.045Zm-1.407-5.213a.436.436,0,0,1,.077.3.341.341,0,0,1-.364.311.4.4,0,0,1-.274-.2,5.675,5.675,0,0,0-.637-.832.335.335,0,0,1-.107-.274.316.316,0,0,1,.349-.265.385.385,0,0,1,.21.109,5.118,5.118,0,0,1,.746.854m3.157-.749a.3.3,0,0,1,.589.071l-.033.276,1.287.155c.579.07.729.292.687.642l-.046.386c-.042.349-.241.53-.82.461l-1.287-.155-.044.368,2.711.325a.25.25,0,0,1,.225.3.254.254,0,0,1-.289.235l-5.91-.71a.253.253,0,0,1-.216-.3.248.248,0,0,1,.28-.237l2.61.313.044-.368-1.139-.137c-.4-.057-.734-.172-.687-.642l.046-.386c.042-.349.241-.53.82-.461l1.139.137Zm.984,5.786c.176.012.358.043.384-.177l.021-.175-3.3-.4-.021.175c-.018.156.048.229.332.263ZM251.866,54.1l3.3.4.045-.377-3.3-.4Zm3.42-.605c.019-.157-.047-.23-.332-.264l-2.583-.31c-.285-.034-.366.021-.385.178l-.02.165,3.3.4Zm-2.73-3.349c-.184-.022-.235.009-.251.147l-.022.184c-.016.138.025.18.208.2l1.075.129.064-.533Zm1.6.733,1.222.147c.147.018.231.018.251-.147l.022-.184c.016-.138-.025-.18-.209-.2l-1.223-.147Z" transform="translate(-146.195 -29.072)"/><path d="M255.34,73.936a.277.277,0,0,1,.24.327.279.279,0,0,1-.312.271l-7.472-.9a.3.3,0,0,1,.071-.6Zm-6.2,5.717c-.587-.08-.993-.268-.932-.932l.1-.809c.065-.542.4-.772,1.126-.685l3.4.409c.726.087,1,.39.932.932l-.1.809c-.065.542-.4.772-1.126.685Zm4.476-3.266a.3.3,0,0,1-.071.588l-4.659-.56a.3.3,0,0,1,.071-.588Zm.157-1.305a.3.3,0,0,1-.071.588l-4.66-.559a.3.3,0,0,1,.071-.588Zm-1.347,4.388c.284.034.542.065.593-.283l.071-.588c.03-.249-.05-.361-.51-.416l-3.033-.364c-.46-.055-.564.035-.593.283l-.071.588c-.03.248.05.36.509.416Zm1.837-7a.3.3,0,0,1-.072.6l-5.009-.6a.3.3,0,0,1,.072-.6Z" transform="translate(-146.013 -42.391)"/><path d="M245.256,96.6a.26.26,0,0,1-.226-.3.255.255,0,0,1,.289-.236l2.371.285.059-.5-3.511-.422a.252.252,0,0,1-.216-.3.247.247,0,0,1,.28-.237l3.511.422.058-.487-2.279-.274a.26.26,0,0,1-.225-.3.255.255,0,0,1,.289-.236l2.279.274.052-.432a.316.316,0,0,1,.625.075l-.052.432,1.526.183c.717.086.927.354.878.758l-.045.377,1.158.139a.248.248,0,0,1,.216.3.252.252,0,0,1-.28.236l-1.158-.139-.046.377c-.051.423-.317.624-1.034.538l-1.526-.183-.057.469,2.913.35a.245.245,0,0,1,.217.287.248.248,0,0,1-.28.237l-2.913-.35-.055.459,3.676.441a.248.248,0,0,1,.216.3.253.253,0,0,1-.28.237l-7.867-.945a.253.253,0,0,1-.216-.3.247.247,0,0,1,.28-.237l3.566.428.055-.459-2.738-.329a.248.248,0,0,1-.217-.3.245.245,0,0,1,.279-.227l2.738.329.056-.469Zm.324,5.223c-.5-.07-.941-.234-.88-.823l.153-1.278c.054-.45.368-.664,1.049-.583l3.667.441c.68.082.935.364.881.814l-.153,1.278c-.056.468-.37.674-1.05.592Zm3.655-.083c.212.016.4.038.427-.219l.04-.331-4.311-.518-.039.331c-.023.193.041.276.363.314Zm.562-1.34c.023-.193-.041-.275-.363-.314l-3.52-.422c-.322-.039-.4.026-.427.219l-.034.285,4.311.518Zm-1.421-4.469-.06.5,1.425.171c.34.041.436.015.457-.16l.034-.285Zm.064-.533,1.856.223.034-.285c.02-.166-.067-.213-.407-.254l-1.425-.171Z" transform="translate(-143.684 -55.218)"/></g></g></svg>