<svg xmlns="http://www.w3.org/2000/svg" xmlns:xlink="http://www.w3.org/1999/xlink" width="133.226" height="111.989" viewBox="0 0 133.226 111.989"><defs><style>.a,.u{fill:none;}.b{opacity:0.8;}.c,.s{fill:#fff;}.d{fill:#150c15;}.e{clip-path:url(#a);}.f,.v{fill:#8e775d;}.g{fill:#e0f1f1;}.h{fill:#e6cd8c;}.i{fill:#e4c6a6;}.j{fill:#dc5f36;}.k{fill:#70372c;}.l{fill:#a2a2ad;}.m{fill:#f7e3af;}.n{fill:#d9eaec;}.o{fill:#f3eed5;}.p{fill:#d4dfbb;}.q{fill:#e60012;}.r{fill:#acacac;}.s{stroke:#707070;}.t{fill:#292929;}.u,.v{stroke:#8e775d;}.w{stroke:none;}</style><clipPath id="a"><rect class="a" width="100.853" height="68.734"/></clipPath></defs><g transform="translate(-960.194 -1714.5)"><g class="b" transform="translate(960.194 1714.5)"><path class="c" d="M177.478,66.513H122.227V40.989l27.759-5.962V20.018L164.331,9.69l13.147,10.327Z" transform="translate(-91.635 -7.265)"/><path class="d" d="M176.729,65.481h-56v-26.2l27.759-5.962v-14.9l14.73-10.6,13.512,10.615Zm-55.251-.751h54.5V18.793L163.2,8.753,149.237,18.8V33.924l-27.759,5.962Z" transform="translate(-90.511 -5.858)"/><g class="e"><path class="f" d="M227.638,11.938l13.75-9.9a2.949,2.949,0,0,1,3.545.074l12.541,9.851a1.064,1.064,0,0,1-.657,1.9h-.342a1.064,1.064,0,0,1-.672-.24L244.965,4.781a2.95,2.95,0,0,0-3.588-.109l-12.5,8.992a1.064,1.064,0,0,1-1.243-1.726" transform="translate(-170.331 -1.112)"/><path class="d" d="M255.69,13.128h-.342a1.443,1.443,0,0,1-.91-.324L243.6,3.96a2.578,2.578,0,0,0-3.131-.095l-12.5,8.992a1.439,1.439,0,1,1-1.681-2.336l13.75-9.9a3.341,3.341,0,0,1,4,.084l12.54,9.851a1.439,1.439,0,0,1-.889,2.571m-13.718-10.5a3.321,3.321,0,0,1,2.1.748l10.838,8.844a.69.69,0,0,0,.435.155h.342a.688.688,0,0,0,.425-1.229L243.574,1.3a2.587,2.587,0,0,0-3.094-.065l-13.75,9.9a.688.688,0,0,0,.4,1.247.682.682,0,0,0,.4-.129l12.5-8.993a3.32,3.32,0,0,1,1.941-.625" transform="translate(-169.203 0)"/><path class="f" d="M227.638,135l13.75-9.9a2.95,2.95,0,0,1,3.545.074l12.541,9.851a1.064,1.064,0,0,1-.657,1.9h-.342a1.064,1.064,0,0,1-.672-.24l-10.838-8.844a2.95,2.95,0,0,0-3.588-.109l-12.5,8.992A1.064,1.064,0,0,1,227.638,135" transform="translate(-170.331 -93.374)"/><path class="d" d="M255.69,136.19h-.342a1.443,1.443,0,0,1-.91-.324L243.6,127.022a2.578,2.578,0,0,0-3.131-.095l-12.5,8.992a1.439,1.439,0,1,1-1.681-2.336l13.75-9.9a3.342,3.342,0,0,1,4,.084l12.54,9.851a1.439,1.439,0,0,1-.889,2.571m-13.718-10.5a3.321,3.321,0,0,1,2.1.748l10.838,8.844a.69.69,0,0,0,.435.155h.342a.688.688,0,0,0,.425-1.229l-12.541-9.851a2.587,2.587,0,0,0-3.094-.065l-13.75,9.9a.688.688,0,0,0,.4,1.247.682.682,0,0,0,.4-.129l12.5-8.993a3.32,3.32,0,0,1,1.941-.625" transform="translate(-169.203 -92.261)"/><path class="f" d="M139.427,103.948,109,110.575a1.365,1.365,0,0,1-.581-2.668l30.431-6.627a1.365,1.365,0,0,1,.581,2.668" transform="translate(-80.474 -75.907)"/><path class="d" d="M107.577,109.858a1.741,1.741,0,0,1-.368-3.442l30.431-6.627a1.741,1.741,0,1,1,.741,3.4l-30.431,6.627a1.755,1.755,0,0,1-.373.04m30.436-9.358a.991.991,0,0,0-.212.023l-30.431,6.627a1,1,0,0,0-.779.967.99.99,0,0,0,1.2.967l30.431-6.627a.99.99,0,0,0-.209-1.957" transform="translate(-79.349 -74.783)"/><path class="g" d="M261.438,64.787H248.452a1.173,1.173,0,0,1-1.173-1.173V54.036a1.173,1.173,0,0,1,1.173-1.172h12.987Z" transform="translate(-185.389 -39.633)"/><path class="d" d="M260.688,64.288H247.7a1.424,1.424,0,0,1-1.423-1.423V53.287a1.424,1.424,0,0,1,1.423-1.423h12.986a.25.25,0,0,1,.25.25V64.038a.25.25,0,0,1-.25.25M247.7,52.365a.923.923,0,0,0-.922.922v9.578a.923.923,0,0,0,.922.922h12.736V52.365Z" transform="translate(-184.639 -38.883)"/><path class="h" d="M309.7,64.787h-5.636V52.864H309.7a.953.953,0,0,1,.953.953V63.834a.953.953,0,0,1-.953.953" transform="translate(-227.962 -39.633)"/><path class="d" d="M308.95,64.288h-5.886V51.864h5.886a1.2,1.2,0,0,1,1.2,1.2V63.084a1.2,1.2,0,0,1-1.2,1.2m-5.385-.5h5.385a.7.7,0,0,0,.7-.7V53.067a.7.7,0,0,0-.7-.7h-5.385Z" transform="translate(-227.212 -38.883)"/><rect class="d" width="0.501" height="11.551" transform="translate(68.533 13.231)"/><path class="g" d="M158.8,172.727h14.08a1.172,1.172,0,0,0,1.173-1.173V155.269a1.172,1.172,0,0,0-1.173-1.172H158.8Z" transform="translate(-119.053 -115.529)"/><path class="d" d="M172.128,172.228h-14.08a.25.25,0,0,1-.25-.25v-18.63a.25.25,0,0,1,.25-.25h14.08a1.424,1.424,0,0,1,1.423,1.423V170.8a1.424,1.424,0,0,1-1.423,1.423m-13.829-.5h13.829a.923.923,0,0,0,.922-.922V154.52a.923.923,0,0,0-.922-.922H158.3Z" transform="translate(-118.304 -114.779)"/><path class="h" d="M131.163,172.727h6.144V154.1h-6.144a.953.953,0,0,0-.953.953v16.724a.953.953,0,0,0,.953.953" transform="translate(-97.62 -115.529)"/><path class="d" d="M136.808,172.228h-6.395a1.205,1.205,0,0,1-1.2-1.2V154.3a1.205,1.205,0,0,1,1.2-1.2h6.395Zm-6.395-18.63a.7.7,0,0,0-.7.7v16.724a.7.7,0,0,0,.7.7h5.894V153.6Z" transform="translate(-96.871 -114.779)"/><rect class="d" width="0.501" height="18.048" transform="translate(47.321 38.568)"/><path class="i" d="M268.889,183.7H249.513V167.59a1.584,1.584,0,0,1,1.584-1.584H267.3a1.585,1.585,0,0,1,1.585,1.584Z" transform="translate(-187.064 -124.457)"/><path class="d" d="M268.139,182.956H248.013v-16.49a1.962,1.962,0,0,1,1.959-1.96h16.207a1.962,1.962,0,0,1,1.96,1.96Zm-19.375-.751h18.624V166.467a1.21,1.21,0,0,0-1.209-1.209H249.972a1.21,1.21,0,0,0-1.209,1.209Z" transform="translate(-185.939 -123.333)"/><path class="d" d="M268.324,181.139H249.507a.25.25,0,1,1,0-.5h18.817a.25.25,0,1,1,0,.5" transform="translate(-186.872 -135.427)"/><path class="d" d="M288.157,184.136a.25.25,0,0,1-.25-.25v-17.14a.25.25,0,1,1,.5,0v17.14a.25.25,0,0,1-.25.25" transform="translate(-215.848 -124.825)"/><path class="d" d="M314.582,196.786a.25.25,0,0,1-.25-.25V183.122a.25.25,0,1,1,.5,0v13.414a.25.25,0,0,1-.25.25" transform="translate(-235.66 -137.102)"/><path class="d" d="M301.37,196.786a.25.25,0,0,1-.25-.25V183.122a.25.25,0,1,1,.5,0v13.414a.25.25,0,0,1-.25.25" transform="translate(-225.754 -137.102)"/><path class="d" d="M274.945,196.786a.25.25,0,0,1-.25-.25V183.122a.25.25,0,1,1,.5,0v13.414a.25.25,0,0,1-.25.25" transform="translate(-205.943 -137.102)"/><path class="d" d="M261.732,196.786a.25.25,0,0,1-.25-.25V183.122a.25.25,0,0,1,.5,0v13.414a.25.25,0,0,1-.25.25" transform="translate(-196.037 -137.102)"/><path class="j" d="M45.324,160.446c6.988,0,10.038,7.774,10.746,9.919a1.417,1.417,0,0,0,.7.821,37.255,37.255,0,0,0,4.22,1.881,3.743,3.743,0,0,1,2.52,3.541v5.338a2.933,2.933,0,0,1-2.933,2.933h-52A2.683,2.683,0,0,1,5.9,182.2v-2.378a18.109,18.109,0,0,1,.7-3.548,4.232,4.232,0,0,1,3.446-3.086l9.539-1.46a2.042,2.042,0,0,0,1.495-1.311l2.5-7.023c.879-2.589,3.061-2.943,5.394-2.943Z" transform="translate(-4.422 -120.289)"/><path class="d" d="M59.83,184.379h-52A2.937,2.937,0,0,1,4.9,181.445v-2.378a17.169,17.169,0,0,1,.711-3.613,4.484,4.484,0,0,1,3.65-3.268l9.54-1.46a1.776,1.776,0,0,0,1.3-1.148l2.5-7.023c.928-2.732,3.254-3.109,5.63-3.109H44.574c7.1,0,10.2,7.724,10.983,10.091a1.166,1.166,0,0,0,.579.677,36.75,36.75,0,0,0,4.188,1.867,3.994,3.994,0,0,1,2.689,3.778V181.2a3.187,3.187,0,0,1-3.183,3.183m-31.6-24.432c-2.53,0-4.375.472-5.157,2.773l-2.5,7.027a2.277,2.277,0,0,1-1.678,1.472l-9.554,1.462a3.985,3.985,0,0,0-3.242,2.9,17.136,17.136,0,0,0-.694,3.482v2.378a2.436,2.436,0,0,0,2.433,2.433h52a2.686,2.686,0,0,0,2.683-2.683v-5.338a3.493,3.493,0,0,0-2.351-3.3,37.256,37.256,0,0,1-4.253-1.895,1.661,1.661,0,0,1-.826-.965,19.859,19.859,0,0,0-2.978-5.689c-2.1-2.693-4.634-4.059-7.531-4.059Z" transform="translate(-3.672 -119.539)"/><path class="k" d="M60.4,236.753H1.578A.578.578,0,0,1,1,236.175v-.768a.578.578,0,0,1,.578-.578H60.4a.578.578,0,0,1,.578.578v.768a.578.578,0,0,1-.578.578" transform="translate(-0.75 -176.054)"/><path class="d" d="M59.655,236.253H.829A.83.83,0,0,1,0,235.425v-.768a.83.83,0,0,1,.829-.829H59.655a.83.83,0,0,1,.829.829v.768a.83.83,0,0,1-.829.829M.829,234.329a.329.329,0,0,0-.328.328v.768a.329.329,0,0,0,.328.328H59.655a.328.328,0,0,0,.328-.328v-.768a.328.328,0,0,0-.328-.328Z" transform="translate(0 -175.304)"/><path class="g" d="M76.985,176.776a.552.552,0,0,1-.531-.7l1.788-5.594c.906-2.487,1.508-3.013,3.971-2.943H89.7a1.031,1.031,0,0,1,1.032,1.031v7.176a1.032,1.032,0,0,1-1.032,1.032Z" transform="translate(-57.303 -125.601)"/><path class="d" d="M88.948,176.273H76.235a.8.8,0,0,1-.772-1.021l1.791-5.6c1.014-2.785,1.854-3.187,4.216-3.117h7.478a1.283,1.283,0,0,1,1.282,1.282v7.176a1.283,1.283,0,0,1-1.282,1.282m-7.916-9.246c-1.957,0-2.468.49-3.3,2.785L75.943,175.4a.3.3,0,0,0,.293.376H88.948a.782.782,0,0,0,.781-.781v-7.176a.782.782,0,0,0-.781-.781H81.463q-.227-.006-.431-.007" transform="translate(-56.553 -124.848)"/><path class="g" d="M146.917,168.259c7.2,0,10.056,8.273,10.056,8.273a.662.662,0,0,1-.588.966h-12.2a.879.879,0,0,1-.879-.879v-7.482a.879.879,0,0,1,.879-.879Z" transform="translate(-107.439 -126.146)"/><path class="d" d="M155.636,177h-12.2a1.13,1.13,0,0,1-1.129-1.129v-7.482a1.13,1.13,0,0,1,1.129-1.129h2.732c7.132,0,10.131,8,10.286,8.424a.912.912,0,0,1-.818,1.316m-12.2-9.239a.629.629,0,0,0-.628.628v7.482a.629.629,0,0,0,.628.628h12.2a.412.412,0,0,0,.365-.6.218.218,0,0,1-.015-.033c-.028-.081-2.887-8.1-9.819-8.1Z" transform="translate(-106.689 -125.397)"/><path class="l" d="M46.573,238.906a4.966,4.966,0,1,1-4.966-4.966,4.966,4.966,0,0,1,4.966,4.966" transform="translate(-27.47 -175.388)"/><path class="d" d="M40.857,243.373a5.216,5.216,0,1,1,5.216-5.216,5.222,5.222,0,0,1-5.216,5.216m0-9.932a4.716,4.716,0,1,0,4.716,4.716,4.721,4.721,0,0,0-4.716-4.716" transform="translate(-26.721 -174.639)"/><path class="c" d="M51.7,246.608a2.395,2.395,0,1,1-2.395-2.395,2.395,2.395,0,0,1,2.395,2.395" transform="translate(-35.173 -183.09)"/><path class="l" d="M184.247,238.354a4.966,4.966,0,1,1-4.966-4.966,4.966,4.966,0,0,1,4.966,4.966" transform="translate(-130.687 -174.975)"/><path class="d" d="M178.531,242.821a5.216,5.216,0,1,1,5.216-5.216,5.222,5.222,0,0,1-5.216,5.216m0-9.932a4.716,4.716,0,1,0,4.716,4.716,4.721,4.721,0,0,0-4.716-4.716" transform="translate(-129.937 -174.225)"/><path class="c" d="M189.379,246.056a2.395,2.395,0,1,1-2.395-2.395,2.395,2.395,0,0,1,2.395,2.395" transform="translate(-138.389 -182.676)"/><path class="m" d="M6.964,221.988H8.319a1.354,1.354,0,0,1,0,2.709h-2a.978.978,0,0,1-.744-1.613l.641-.752a.978.978,0,0,1,.744-.343" transform="translate(-4.005 -166.428)"/><path class="d" d="M7.944,224.448h-2a1.1,1.1,0,0,1-.839-1.82l.641-.752a1.1,1.1,0,0,1,.839-.387H7.944a1.48,1.48,0,0,1,0,2.959M6.59,221.739a.852.852,0,0,0-.649.3l-.642.752a.853.853,0,0,0,.649,1.407h2a1.229,1.229,0,0,0,0-2.459Z" transform="translate(-3.631 -166.054)"/><path class="j" d="M75.792,191.925h2.121a1.07,1.07,0,0,1,1.046.846l.218,1.02a1.07,1.07,0,0,1-1.046,1.294H75.776a1.653,1.653,0,0,0-1.169.484l-.351.351a.617.617,0,0,1-.991-.706l1.195-2.457a1.481,1.481,0,0,1,1.332-.833" transform="translate(-54.881 -143.889)"/><path class="d" d="M73.07,195.6a.867.867,0,0,1-.78-1.246l1.2-2.456a1.741,1.741,0,0,1,1.557-.974h2.121a1.327,1.327,0,0,1,1.291,1.043l.219,1.021a1.32,1.32,0,0,1-1.291,1.6H75.027a1.4,1.4,0,0,0-.992.411l-.351.351a.861.861,0,0,1-.613.254m1.972-4.176a1.237,1.237,0,0,0-1.107.692l-1.2,2.456a.36.36,0,0,0,.019.355.377.377,0,0,0,.57.065l.351-.351a1.892,1.892,0,0,1,1.346-.558h2.356a.819.819,0,0,0,.8-.991l-.219-1.02a.823.823,0,0,0-.8-.648Z" transform="translate(-54.131 -143.139)"/><path class="m" d="M219.524,212.843a3.735,3.735,0,0,0-2.177-1.971H216.22a1.77,1.77,0,0,0,0,3.541h2.292a1.11,1.11,0,0,0,1.011-1.57" transform="translate(-160.776 -158.094)"/><path class="d" d="M218.138,214.163h-2.292a1.9,1.9,0,0,1,0-3.791l1.168.007a3.882,3.882,0,0,1,2.249,2.037h0a1.235,1.235,0,0,1-1.125,1.747m-2.292-3.541a1.645,1.645,0,1,0,0,3.29h2.292a.985.985,0,0,0,.9-1.392,3.631,3.631,0,0,0-2.084-1.9Z" transform="translate(-160.402 -157.719)"/><path class="n" d="M383.344,131.464a1.719,1.719,0,1,1-1.357-2.017,1.719,1.719,0,0,1,1.357,2.017" transform="translate(-284.845 -97.024)"/><path class="d" d="M380.911,132.353a1.969,1.969,0,0,1-1.1-3.6,1.969,1.969,0,1,1,1.1,3.6m-.007-3.438a1.47,1.47,0,1,0,.285.028,1.49,1.49,0,0,0-.285-.028" transform="translate(-284.095 -96.274)"/><path class="n" d="M391.622,142.548a1.719,1.719,0,1,1-1.357-2.017,1.719,1.719,0,0,1,1.357,2.017" transform="translate(-291.052 -105.334)"/><path class="d" d="M389.189,143.438a1.979,1.979,0,0,1-.382-.037,1.958,1.958,0,1,1,.382.037M389.182,140a1.471,1.471,0,1,0,.285.028,1.458,1.458,0,0,0-.285-.028" transform="translate(-290.301 -104.584)"/><path class="n" d="M389.409,153.866a1.719,1.719,0,1,1-1.357-2.017,1.719,1.719,0,0,1,1.357,2.017" transform="translate(-289.392 -113.82)"/><path class="d" d="M386.973,154.756a1.969,1.969,0,1,1,1.931-1.591,1.978,1.978,0,0,1-1.931,1.591m0-3.437a1.469,1.469,0,1,0,.282.027,1.488,1.488,0,0,0-.282-.027m1.687,1.8h0Z" transform="translate(-288.643 -113.071)"/><path class="n" d="M373.512,128.773a1.719,1.719,0,1,1-1.357-2.017,1.719,1.719,0,0,1,1.357,2.017" transform="translate(-277.474 -95.007)"/><path class="d" d="M371.078,129.662a1.979,1.979,0,0,1-.382-.037,1.958,1.958,0,1,1,.382.037m-.007-3.438a1.473,1.473,0,1,0,.285.028,1.49,1.49,0,0,0-.285-.028" transform="translate(-276.723 -94.257)"/><path class="n" d="M361.629,130.041a1.719,1.719,0,1,1-1.357-2.017,1.718,1.718,0,0,1,1.357,2.017" transform="translate(-268.565 -95.958)"/><path class="d" d="M359.193,130.931a1.978,1.978,0,0,1-.379-.037,1.968,1.968,0,1,1,.379.037m0-3.437a1.469,1.469,0,1,0,.283.028,1.471,1.471,0,0,0-.283-.028m1.687,1.8h0Z" transform="translate(-267.815 -95.209)"/><path class="n" d="M349.857,134.115A1.719,1.719,0,1,1,348.5,132.1a1.719,1.719,0,0,1,1.357,2.017" transform="translate(-259.74 -99.012)"/><path class="d" d="M347.424,135a1.981,1.981,0,0,1-.382-.037,1.958,1.958,0,1,1,.382.037m-.007-3.438a1.472,1.472,0,1,0,.285.028,1.491,1.491,0,0,0-.285-.028" transform="translate(-258.99 -98.262)"/><path class="n" d="M338.191,139.822a1.719,1.719,0,1,1-1.357-2.017,1.719,1.719,0,0,1,1.357,2.017" transform="translate(-250.994 -103.291)"/><path class="d" d="M335.757,140.711a1.98,1.98,0,0,1-.382-.037,1.958,1.958,0,1,1,.382.037m-.007-3.438a1.473,1.473,0,1,0,.285.028,1.489,1.489,0,0,0-.285-.028" transform="translate(-250.243 -102.541)"/><path class="n" d="M329.221,146.446a1.719,1.719,0,1,1-1.357-2.017,1.719,1.719,0,0,1,1.357,2.017" transform="translate(-244.269 -108.257)"/><path class="d" d="M326.784,147.334a1.979,1.979,0,0,1-.379-.037,1.968,1.968,0,1,1,.379.037m0-3.438a1.471,1.471,0,1,0,.285.028,1.489,1.489,0,0,0-.285-.028m1.69,1.8h0Z" transform="translate(-243.518 -107.506)"/><path class="n" d="M320.665,155.08a2.019,2.019,0,1,1-1.594-2.369,2.02,2.02,0,0,1,1.594,2.369" transform="translate(-237.408 -114.462)"/><path class="d" d="M317.934,156.212a2.277,2.277,0,0,1-.436-.043,2.267,2.267,0,1,1,.436.043m0-4.039a1.771,1.771,0,1,0,.343.033,1.79,1.79,0,0,0-.343-.033m1.985,2.157h0Z" transform="translate(-236.658 -113.711)"/><path class="n" d="M311.788,165.421a2.019,2.019,0,1,1-1.594-2.369,2.019,2.019,0,0,1,1.594,2.369" transform="translate(-230.753 -122.215)"/><path class="d" d="M309.057,166.553a2.285,2.285,0,0,1-.436-.043,2.267,2.267,0,1,1,.436.043m0-4.039a1.772,1.772,0,1,0,.343.034,1.774,1.774,0,0,0-.343-.034m1.986,2.157h0Z" transform="translate(-230.003 -121.464)"/><path class="n" d="M303.035,175.134a2.019,2.019,0,1,1-1.594-2.369,2.019,2.019,0,0,1,1.594,2.369" transform="translate(-224.19 -129.496)"/><path class="d" d="M300.3,176.266a2.27,2.27,0,1,1,2.226-1.834,2.261,2.261,0,0,1-2.226,1.834m0-4.039a1.77,1.77,0,1,0,.34.033,1.8,1.8,0,0,0-.34-.033" transform="translate(-223.44 -128.746)"/><path class="n" d="M296.646,187.12a2.324,2.324,0,1,1-1.835-2.727,2.324,2.324,0,0,1,1.835,2.727" transform="translate(-218.947 -138.21)"/><path class="d" d="M293.616,188.5a2.589,2.589,0,0,1-.495-.048,2.573,2.573,0,1,1,.495.048m-.005-4.649a2.076,2.076,0,1,0,.4.039,2.11,2.11,0,0,0-.4-.039m2.285,2.52h0Z" transform="translate(-218.197 -137.459)"/><path class="n" d="M293.825,203.215a2.324,2.324,0,1,1-1.835-2.727,2.324,2.324,0,0,1,1.835,2.727" transform="translate(-216.833 -150.277)"/><path class="d" d="M290.794,204.593a2.574,2.574,0,1,1,2.525-2.08,2.569,2.569,0,0,1-2.525,2.08m-.005-4.649a2.082,2.082,0,1,0,.4.039,2.092,2.092,0,0,0-.4-.039" transform="translate(-216.082 -149.526)"/><path class="n" d="M300.045,218.141a2.324,2.324,0,1,1-1.835-2.727,2.324,2.324,0,0,1,1.835,2.727" transform="translate(-221.496 -161.467)"/><path class="d" d="M297.015,219.52a2.574,2.574,0,1,1,2.525-2.08,2.574,2.574,0,0,1-2.525,2.08m0-4.648a2.074,2.074,0,1,0,.4.039,2.077,2.077,0,0,0-.4-.039m2.281,2.52h0Z" transform="translate(-220.745 -160.717)"/><path class="n" d="M312.526,227.762a2.324,2.324,0,1,1-1.835-2.727,2.324,2.324,0,0,1,1.835,2.727" transform="translate(-230.853 -168.68)"/><path class="d" d="M309.5,229.14a2.588,2.588,0,0,1-.495-.048,2.572,2.572,0,1,1,.495.048m-.005-4.648a2.076,2.076,0,1,0,.4.039,2.094,2.094,0,0,0-.4-.039m2.285,2.52h0Z" transform="translate(-230.102 -167.929)"/><path class="n" d="M329.34,232.668a2.324,2.324,0,1,1-1.835-2.727,2.324,2.324,0,0,1,1.835,2.727" transform="translate(-243.459 -172.358)"/><path class="d" d="M326.31,234.046a2.574,2.574,0,1,1,2.526-2.08,2.57,2.57,0,0,1-2.526,2.08m0-4.648a2.075,2.075,0,1,0,.4.039,2.077,2.077,0,0,0-.4-.039m2.281,2.52h0Z" transform="translate(-242.709 -171.608)"/><path class="n" d="M345.229,231.532a2.324,2.324,0,1,1-1.835-2.727,2.324,2.324,0,0,1,1.835,2.727" transform="translate(-255.371 -171.506)"/><path class="d" d="M342.2,232.912a2.6,2.6,0,0,1-.5-.049,2.56,2.56,0,1,1,.5.049m-.006-4.649a2.075,2.075,0,1,0,.4.039,2.077,2.077,0,0,0-.4-.039" transform="translate(-254.622 -170.758)"/><path class="n" d="M359.366,225.342a2.238,2.238,0,1,1-1.767-2.626,2.238,2.238,0,0,1,1.767,2.626" transform="translate(-266.097 -166.942)"/><path class="d" d="M356.422,226.652a2.489,2.489,0,1,1,2.441-2.011,2.485,2.485,0,0,1-2.441,2.011m0-4.477a1.988,1.988,0,1,0,.382.037,1.991,1.991,0,0,0-.382-.037m2.2,2.418h0Z" transform="translate(-265.348 -166.193)"/><path class="n" d="M368.113,214a2.238,2.238,0,1,1-1.767-2.626A2.238,2.238,0,0,1,368.113,214" transform="translate(-272.655 -158.436)"/><path class="d" d="M365.173,215.307a2.489,2.489,0,1,1,.473-4.931,2.489,2.489,0,0,1-.473,4.931m-.006-4.477a1.989,1.989,0,1,0,.382.037,1.991,1.991,0,0,0-.382-.037" transform="translate(-271.906 -157.687)"/><path class="n" d="M370,199.35a2.238,2.238,0,1,1-1.767-2.626A2.238,2.238,0,0,1,370,199.35" transform="translate(-274.068 -147.456)"/><path class="d" d="M367.057,200.661a2.489,2.489,0,1,1,.473-4.931,2.489,2.489,0,0,1-.473,4.931m-.006-4.477a1.989,1.989,0,1,0,.382.037,1.991,1.991,0,0,0-.382-.037" transform="translate(-273.319 -146.707)"/><path class="n" d="M371.475,185.464a1.957,1.957,0,1,1-1.545-2.3,1.957,1.957,0,0,1,1.545,2.3" transform="translate(-275.593 -137.296)"/><path class="d" d="M368.806,186.546a2.186,2.186,0,0,1-.424-.041,2.205,2.205,0,1,1,.424.041m0-3.914a1.71,1.71,0,1,0,.328.032,1.709,1.709,0,0,0-.328-.032" transform="translate(-274.844 -136.546)"/><path class="n" d="M375.254,172.82a1.957,1.957,0,1,1-1.545-2.3,1.957,1.957,0,0,1,1.545,2.3" transform="translate(-278.426 -127.817)"/><path class="d" d="M372.584,173.9a2.207,2.207,0,1,1,2.165-1.784,2.2,2.2,0,0,1-2.165,1.784m0-3.914a1.708,1.708,0,1,0,.328.032,1.71,1.71,0,0,0-.328-.032m1.921,2.083h0Z" transform="translate(-277.676 -127.067)"/><path class="n" d="M383.371,161.351a1.957,1.957,0,1,1-1.545-2.3,1.957,1.957,0,0,1,1.545,2.3" transform="translate(-284.512 -119.218)"/><path class="d" d="M380.706,162.432a2.222,2.222,0,0,1-.428-.042,2.2,2.2,0,1,1,.428.042m-.009-3.915a1.709,1.709,0,1,0,.331.032,1.732,1.732,0,0,0-.331-.032m1.924,2.083h0Z" transform="translate(-283.762 -118.467)"/><path class="c" d="M389.5,165.007a.6.6,0,1,1-.6-.6.6.6,0,0,1,.6.6" transform="translate(-291.124 -123.262)"/><path class="c" d="M316.552,228.76a.6.6,0,1,1-.6-.6.6.6,0,0,1,.6.6" transform="translate(-236.431 -171.059)"/><path class="c" d="M304.526,218.6a.6.6,0,1,1-.6-.6.6.6,0,0,1,.6.6" transform="translate(-227.415 -163.439)"/><path class="c" d="M299.923,204.8a.6.6,0,1,1-.6-.6.6.6,0,0,1,.6.6" transform="translate(-223.964 -153.097)"/><path class="c" d="M302.3,189.934a.6.6,0,1,1-.6-.6.6.6,0,0,1,.6.6" transform="translate(-225.748 -141.95)"/><path class="c" d="M307.7,177.046a.6.6,0,1,1-.6-.6.6.6,0,0,1,.6.6" transform="translate(-229.793 -132.288)"/><path class="c" d="M314.919,167.518a.6.6,0,1,1-.6-.6.6.6,0,0,1,.6.6" transform="translate(-235.207 -125.145)"/><path class="c" d="M380.966,177.046a.6.6,0,1,1-.6-.6.6.6,0,0,1,.6.6" transform="translate(-284.723 -132.288)"/><path class="c" d="M377.642,189.422a.6.6,0,1,1-.6-.6.6.6,0,0,1,.6.6" transform="translate(-282.231 -141.567)"/><path class="c" d="M376.77,202.464a.6.6,0,1,1-.6-.6.6.6,0,0,1,.6.6" transform="translate(-281.577 -151.344)"/><path class="c" d="M374.677,218.178a.6.6,0,1,1-.6-.6.6.6,0,0,1,.6.6" transform="translate(-280.008 -163.125)"/><path class="o" d="M89.92,77.317,58.634,76.082a1.461,1.461,0,0,1-1.4-1.518l.682-17.274a1.461,1.461,0,0,1,1.518-1.4l31.286,1.235a1.461,1.461,0,0,1,1.4,1.518l-.682,17.274a1.462,1.462,0,0,1-1.518,1.4" transform="translate(-42.907 -41.899)"/><path class="d" d="M88.853,76.568l-.074,0L57.494,75.332a1.839,1.839,0,0,1-1.763-1.908l.682-17.274a1.839,1.839,0,0,1,1.908-1.763l31.286,1.235a1.837,1.837,0,0,1,1.763,1.908L90.688,74.8a1.84,1.84,0,0,1-1.834,1.765M58.248,55.137a1.088,1.088,0,0,0-1.085,1.043l-.682,17.274a1.087,1.087,0,0,0,1.042,1.128l31.286,1.235a1.083,1.083,0,0,0,1.128-1.042L90.619,57.5a1.086,1.086,0,0,0-1.042-1.128L58.291,55.138h-.043" transform="translate(-41.781 -40.774)"/><path class="p" d="M63.786,65.087l.144-3.661a1.265,1.265,0,0,1,1.314-1.214l3.3.13a.215.215,0,0,1,.193.288l-.072.2a3.136,3.136,0,0,1-2.32,2l-.145.437A3.138,3.138,0,0,1,64.059,65.3a.215.215,0,0,1-.272-.216" transform="translate(-47.822 -45.14)"/><path class="p" d="M177.593,69.435l.144-3.662a1.265,1.265,0,0,0-1.214-1.314l-3.3-.13a.215.215,0,0,0-.215.272l.056.2a3.138,3.138,0,0,0,2.155,2.179l.11.448a3.138,3.138,0,0,0,1.972,2.2.215.215,0,0,0,.288-.193" transform="translate(-129.704 -48.228)"/><path class="p" d="M62.075,111.417l-.144,3.662a1.265,1.265,0,0,0,1.214,1.314l3.3.13a.215.215,0,0,0,.215-.272l-.056-.2a3.138,3.138,0,0,0-2.155-2.179l-.11-.448a3.137,3.137,0,0,0-1.972-2.2.215.215,0,0,0-.288.193" transform="translate(-46.43 -83.376)"/><path class="p" d="M175.2,116.4l-.144,3.662a1.265,1.265,0,0,1-1.315,1.214l-3.3-.13a.215.215,0,0,1-.193-.288l.072-.2a3.137,3.137,0,0,1,2.32-2l.145-.437a3.137,3.137,0,0,1,2.139-2.036.215.215,0,0,1,.272.215" transform="translate(-127.633 -87.1)"/><path class="p" d="M91.349,64.764a1.862,1.862,0,0,1-1.545-.626,1.1,1.1,0,0,1,.224-1.5.25.25,0,0,1,.344.364c-.294.278-.354.583-.166.837.332.447,1.528.774,3.329-.251,2.135-1.216,3.977-1.224,4.693-.6a.852.852,0,0,1,.249,1,.781.781,0,0,1-.7.487.882.882,0,0,1-.822-.385.6.6,0,0,1,.063-.655.25.25,0,1,1,.407.291c-.056.078-.039.109-.033.12a.4.4,0,0,0,.351.13.287.287,0,0,0,.268-.171.355.355,0,0,0-.111-.441c-.487-.422-2.086-.5-4.117.661a5.031,5.031,0,0,1-2.434.74" transform="translate(-67.174 -46.911)"/><path class="p" d="M138.306,65.784a4.786,4.786,0,0,1-2.6-.939c-1.933-1.313-3.534-1.365-4.053-.983a.355.355,0,0,0-.146.43.288.288,0,0,0,.254.192.4.4,0,0,0,.36-.1c.007-.011.027-.04-.023-.122a.25.25,0,1,1,.429-.258.6.6,0,0,1,.011.658.882.882,0,0,1-.849.319.782.782,0,0,1-.66-.541.853.853,0,0,1,.328-.979c.763-.562,2.6-.408,4.631.972,1.715,1.164,2.933.932,3.3.513.208-.239.171-.547-.1-.848a.25.25,0,1,1,.372-.335,1.1,1.1,0,0,1,.105,1.511,1.75,1.75,0,0,1-1.353.512" transform="translate(-98.198 -47.347)"/><path class="p" d="M94.535,126.995a6.52,6.52,0,0,1-3.477-1.277c-1.715-1.164-2.934-.933-3.3-.513-.207.238-.171.547.1.847a.25.25,0,1,1-.372.335,1.1,1.1,0,0,1-.105-1.511c.615-.706,2.171-.785,3.958.427,1.934,1.313,3.534,1.365,4.053.983a.355.355,0,0,0,.146-.43.287.287,0,0,0-.254-.192.4.4,0,0,0-.36.1c-.007.011-.027.04.023.122a.25.25,0,0,1-.429.258.6.6,0,0,1-.011-.658.883.883,0,0,1,.85-.32.782.782,0,0,1,.66.541.852.852,0,0,1-.327.979,1.947,1.947,0,0,1-1.154.305" transform="translate(-65.32 -93.238)"/><path class="p" d="M136.792,129.07a.25.25,0,0,1-.172-.432c.294-.278.354-.583.166-.837-.331-.447-1.528-.774-3.329.251-2.135,1.216-3.977,1.224-4.693.6a.852.852,0,0,1-.249-1,.781.781,0,0,1,.7-.487.879.879,0,0,1,.822.385.6.6,0,0,1-.063.655.25.25,0,0,1-.407-.291c.056-.078.039-.109.033-.12a.4.4,0,0,0-.351-.13.287.287,0,0,0-.268.171.355.355,0,0,0,.111.44c.487.422,2.086.5,4.117-.66,1.876-1.068,3.422-.866,3.979-.114a1.1,1.1,0,0,1-.224,1.5.249.249,0,0,1-.172.069" transform="translate(-96.298 -95.122)"/><path class="p" d="M99.825,95.569l-18.6-.734a.342.342,0,0,1-.328-.355l.024-.6a.342.342,0,0,1,.355-.328l18.6.734a.342.342,0,0,1,.328.355l-.024.6a.342.342,0,0,1-.355.328" transform="translate(-60.653 -70.138)"/><path class="p" d="M99.493,103.985l-18.6-.734a.342.342,0,0,1-.328-.355l.024-.6a.341.341,0,0,1,.355-.328l18.6.734a.342.342,0,0,1,.328.355l-.024.6a.342.342,0,0,1-.355.328" transform="translate(-60.405 -76.448)"/><path class="q" d="M157.473,108.854h-.036l-3.347-.132a.879.879,0,0,1-.844-.913l.132-3.347a.879.879,0,0,1,.913-.844l3.347.132a.88.88,0,0,1,.844.913l-.132,3.347a.879.879,0,0,1-.878.844m-3.216-4.987a.63.63,0,0,0-.628.6l-.132,3.347a.629.629,0,0,0,.6.653l3.347.132a.629.629,0,0,0,.653-.6l.132-3.347a.629.629,0,0,0-.6-.653l-3.347-.132h-.025" transform="translate(-114.891 -77.683)"/><path class="q" d="M159.039,110.362H159l-1.893-.075a.88.88,0,0,1-.844-.913l.075-1.893a.879.879,0,0,1,.913-.844l1.893.075a.881.881,0,0,1,.844.913l-.075,1.893a.88.88,0,0,1-.878.844m-1.82-3.476a.629.629,0,0,0-.628.6l-.075,1.893a.629.629,0,0,0,.6.653l1.893.075a.63.63,0,0,0,.653-.6l.075-1.893a.63.63,0,0,0-.6-.654l-1.893-.075h-.026" transform="translate(-117.155 -79.946)"/><path class="o" d="M68.752,46.849,38.006,52.771A1.461,1.461,0,0,1,36.3,51.613l-3.27-16.975a1.462,1.462,0,0,1,1.159-1.711L64.929,27a1.461,1.461,0,0,1,1.711,1.159L69.91,45.138a1.461,1.461,0,0,1-1.159,1.711" transform="translate(-24.74 -20.225)"/><path class="d" d="M36.6,52.049a1.839,1.839,0,0,1-1.8-1.49L31.532,33.583a1.839,1.839,0,0,1,1.456-2.151l30.745-5.922a1.837,1.837,0,0,1,2.151,1.456l3.269,16.975A1.837,1.837,0,0,1,67.7,46.093l-.071-.368.071.368L36.953,52.015a1.839,1.839,0,0,1-.351.034M64.083,26.228a1.086,1.086,0,0,0-.208.02L33.131,32.17a1.087,1.087,0,0,0-.861,1.272l3.269,16.975a1.085,1.085,0,0,0,1.272.861l30.745-5.921a1.086,1.086,0,0,0,.861-1.272l-3.27-16.975a1.087,1.087,0,0,0-1.064-.881" transform="translate(-23.615 -19.101)"/><path class="p" d="M38.832,57.334l-.693-3.6a1.265,1.265,0,0,1,1-1.482l3.238-.624a.215.215,0,0,1,.254.237l-.025.209a3.137,3.137,0,0,1-1.8,2.478l-.042.459a3.137,3.137,0,0,1-1.619,2.469.215.215,0,0,1-.314-.148" transform="translate(-28.576 -38.705)"/><path class="p" d="M149.587,36.436l-.693-3.6a1.266,1.266,0,0,0-1.482-1l-3.239.624a.215.215,0,0,0-.148.314l.1.185a3.136,3.136,0,0,0,2.595,1.631l.209.411a3.138,3.138,0,0,0,2.42,1.691.215.215,0,0,0,.237-.254" transform="translate(-107.958 -23.85)"/><path class="p" d="M47.086,105.448l.693,3.6a1.265,1.265,0,0,0,1.482,1l3.239-.624a.215.215,0,0,0,.148-.314l-.1-.185a3.137,3.137,0,0,0-2.594-1.631l-.209-.411a3.137,3.137,0,0,0-2.42-1.691.215.215,0,0,0-.237.254" transform="translate(-35.298 -78.865)"/><path class="p" d="M161.051,81.549l.693,3.6a1.265,1.265,0,0,1-1,1.482l-3.238.624a.215.215,0,0,1-.254-.237l.025-.209a3.136,3.136,0,0,1,1.8-2.478l.042-.459a3.137,3.137,0,0,1,1.619-2.469.215.215,0,0,1,.314.148" transform="translate(-117.89 -61.008)"/><path class="p" d="M64.378,48.527a1.572,1.572,0,0,1-1.033-.332,1.1,1.1,0,0,1-.123-1.51.25.25,0,1,1,.418.276.6.6,0,0,0,.029.852c.424.36,1.664.406,3.184-1,1.8-1.67,3.594-2.1,4.432-1.657a.852.852,0,0,1,.471.919.781.781,0,0,1-.571.634.883.883,0,0,1-.888-.188.6.6,0,0,1-.088-.652.25.25,0,1,1,.463.191c-.037.089-.013.114,0,.124a.405.405,0,0,0,.371.046A.287.287,0,0,0,71.262,46a.355.355,0,0,0-.208-.4c-.57-.3-2.144-.008-3.859,1.58a4.378,4.378,0,0,1-2.815,1.35" transform="translate(-47.218 -33.73)"/><path class="p" d="M104.277,40.434a.77.77,0,0,1-.685-.38.852.852,0,0,1,.1-1.028c.614-.721,2.437-.989,4.73-.109,1.934.744,3.069.24,3.329-.251.148-.28.042-.572-.29-.8a.25.25,0,0,1,.286-.411,1.1,1.1,0,0,1,.447,1.448c-.438.827-1.936,1.259-3.951.485-2.182-.838-3.752-.525-4.17-.035a.355.355,0,0,0-.044.453.286.286,0,0,0,.291.129.4.4,0,0,0,.328-.181c0-.012.017-.045-.05-.114a.25.25,0,1,1,.359-.349.6.6,0,0,1,.16.638.881.881,0,0,1-.754.5c-.027,0-.054,0-.08,0" transform="translate(-77.567 -28.045)"/><path class="p" d="M75.553,111.268a.249.249,0,0,1-.142-.045,1.1,1.1,0,0,1-.447-1.448c.438-.827,1.936-1.259,3.951-.485,2.182.838,3.752.524,4.17.034a.355.355,0,0,0,.044-.452.287.287,0,0,0-.291-.129.4.4,0,0,0-.327.181c0,.013-.017.045.05.114a.25.25,0,0,1-.359.349.6.6,0,0,1-.16-.638.882.882,0,0,1,.754-.5.783.783,0,0,1,.766.377.853.853,0,0,1-.1,1.028c-.614.721-2.437.989-4.73.108-1.935-.743-3.069-.24-3.329.252-.148.279-.042.572.29.8a.25.25,0,0,1-.143.456" transform="translate(-56.109 -81.151)"/><path class="p" d="M116.853,102.34a1.634,1.634,0,0,1-.76-.162.852.852,0,0,1-.471-.919.781.781,0,0,1,.571-.634.882.882,0,0,1,.888.188.6.6,0,0,1,.088.652.25.25,0,1,1-.463-.191c.037-.089.013-.115,0-.124a.405.405,0,0,0-.371-.046.288.288,0,0,0-.222.228.355.355,0,0,0,.209.4c.571.3,2.144.008,3.859-1.581,1.583-1.468,3.134-1.623,3.848-1.017a1.1,1.1,0,0,1,.123,1.51.25.25,0,1,1-.418-.276.6.6,0,0,0-.029-.853c-.424-.359-1.665-.405-3.184,1a5.921,5.921,0,0,1-3.672,1.819" transform="translate(-86.675 -74.075)"/><path class="p" d="M79.959,70.863l-18.274,3.52a.342.342,0,0,1-.4-.271l-.113-.588a.342.342,0,0,1,.271-.4L79.716,69.6a.342.342,0,0,1,.4.271l.113.588a.342.342,0,0,1-.271.4" transform="translate(-45.856 -52.178)"/><path class="p" d="M81.552,79.134,63.278,82.654a.342.342,0,0,1-.4-.271l-.113-.588a.342.342,0,0,1,.271-.4l18.274-3.52a.342.342,0,0,1,.4.271l.113.588a.342.342,0,0,1-.271.4" transform="translate(-47.051 -58.379)"/><path class="q" d="M136.265,79.492a.88.88,0,0,1-.861-.713l-.634-3.289a.881.881,0,0,1,.7-1.03l3.289-.633a.88.88,0,0,1,1.03.7l.633,3.289a.879.879,0,0,1-.7,1.03l-3.289.633a.892.892,0,0,1-.168.016m2.658-5.431a.646.646,0,0,0-.119.012l-3.289.633a.629.629,0,0,0-.5.737l.633,3.289a.629.629,0,0,0,.736.5l3.289-.634a.629.629,0,0,0,.5-.736l-.634-3.289a.63.63,0,0,0-.617-.51" transform="translate(-101.027 -55.337)"/><path class="q" d="M139.4,81.192a.881.881,0,0,1-.863-.713l-.358-1.86a.879.879,0,0,1,.7-1.029l1.86-.358a.879.879,0,0,1,1.03.7l.358,1.86a.879.879,0,0,1-.7,1.03l-1.86.358a.88.88,0,0,1-.167.016m1.5-3.727a.633.633,0,0,0-.12.012l-1.86.358a.629.629,0,0,0-.5.736l.358,1.86a.63.63,0,0,0,.736.5l1.86-.358a.629.629,0,0,0,.5-.736l-.358-1.86a.629.629,0,0,0-.616-.51" transform="translate(-103.579 -57.889)"/></g></g><g transform="translate(463.042 -216.375) rotate(14)"><g transform="translate(1027 1755.5)"><rect class="r" width="59.487" height="76.506" rx="1" transform="translate(1.421 2.152)"/><rect class="c" width="58.487" height="76.506" rx="1" transform="translate(0.733 0.293)"/><g class="s"><rect class="w" width="57.487" height="75.506" rx="1"/><rect class="a" x="0.5" y="0.5" width="56.487" height="74.506" rx="0.5"/></g><path class="t" d="M.794-5.924A19.607,19.607,0,0,1-.277-3.638l.556.124H-3.777l.783-.227a8.383,8.383,0,0,0-.988-2.183ZM-5.219-9.692H1.8v1.833H-5.219Zm7.7,3.768H4.336v-5.7H-7.587v5.7h2.245l-1.071.268a9.853,9.853,0,0,1,.947,2.142h-4.983V-1.5H7.26V-3.514H2.092c.35-.6.762-1.4,1.194-2.245Zm3.357-11.82a18.054,18.054,0,0,1-2.306,2.121c-.329-.329-.659-.68-.968-1.05.906-.618,1.936-1.4,2.821-2.142L3.533-20.132a17.234,17.234,0,0,1-2.059,1.956,13.341,13.341,0,0,1-1.091-2.08l-2.1.659A19.886,19.886,0,0,0,1.1-14.84H-4.189a13.862,13.862,0,0,0,2.327-4.016l-1.586-.824-.412.1h-5.4V-17.6h4.221a12.96,12.96,0,0,1-1.544,2.039A12.431,12.431,0,0,0-8.9-17.229l-1.339,1.339a14.345,14.345,0,0,1,2.2,1.73,14.348,14.348,0,0,1-3.48,2.121,8.7,8.7,0,0,1,1.462,1.792A18.1,18.1,0,0,0-5.4-13.5v.7H2.174v-.844a14.641,14.641,0,0,0,4.407,3.109,8.754,8.754,0,0,1,1.627-2.039,14.562,14.562,0,0,1-3.233-1.792,32.124,32.124,0,0,0,2.656-2.1ZM-3.592,4.345H-10.14V6.2h6.548Zm-2.265,13.22v2.368H-8.2V17.565Zm2.142-1.936h-6.61v7.022H-8.2v-.8h4.489Zm-6.548-1.009h6.61V12.788h-6.61Zm0-2.78h6.61V9.967h-6.61Zm-.988-2.8H-2.83V7.1h-8.422ZM1.639,20.448c-.968,0-1.133-.144-1.133-1.009V13.694H4.522V14.7H6.972V4.736h-9V7.063H4.522v4.3H-1.986v8.072c0,2.636.8,3.315,3.357,3.315h3.4c2.327,0,2.986-.988,3.295-4.407A7.341,7.341,0,0,1,5.8,17.4c-.144,2.574-.288,3.048-1.215,3.048Z" transform="translate(30.808 40.629)"/><g class="u" transform="translate(4.29 3.432)"><rect class="w" width="48.907" height="68.642" rx="1"/><rect class="a" x="0.5" y="0.5" width="47.907" height="67.642" rx="0.5"/></g><rect class="h" width="24.883" height="5.148" transform="translate(16.302 8.58)"/></g><g transform="translate(1028.716 1772.661)"><g class="v" transform="translate(0 5.148) rotate(-90)"><rect class="w" width="5.148" height="1.716"/><rect class="a" x="0.5" y="0.5" width="4.148" height="0.716"/></g><g class="v" transform="translate(0 42.043) rotate(-90)"><rect class="w" width="5.148" height="1.716"/><rect class="a" x="0.5" y="0.5" width="4.148" height="0.716"/></g></g></g></g></svg>