<svg xmlns="http://www.w3.org/2000/svg" xmlns:xlink="http://www.w3.org/1999/xlink" width="50.043" height="66.784" viewBox="0 0 50.043 66.784"><defs><style>.a{fill:none;}.b{clip-path:url(#a);}.c{fill:#fff;}.d{fill:#b9bec1;}.e{fill:#26466d;}.f{fill:#fde67c;}</style><clipPath id="a"><rect class="a" width="50.043" height="66.784"/></clipPath></defs><g class="b"><path class="c" d="M46.4,26.479a55.845,55.845,0,0,1,.17-6.761,18.074,18.074,0,0,0-.091-5.235A13.707,13.707,0,0,0,42.74,7.672C39.978,4.666,37.1,1.835,32.874.942A31.1,31.1,0,0,0,21.519.271c-3.7.582-7.338,1.351-10.36,3.821C10.121,4.94,9.4,6.068,8.321,6.9A13.255,13.255,0,0,0,3.113,17.7a53.485,53.485,0,0,0,.678,8.658c-3.969,1.81-4.831,4.69-2.538,8.475a8.466,8.466,0,0,0,2.433,2.8A3.793,3.793,0,0,1,5.5,41.208a7.451,7.451,0,0,0,.1.825,11.709,11.709,0,0,0,8.912,10.319c.223.057.441.134.662.2.709.2.842.827.928,1.407.1.677-.4,1-.965,1.153-.754.206-1.532.325-2.291.517-1.272.322-2.363.853-2.476,2.387a8.046,8.046,0,0,0-2.9.86c-1.436.732-1.452.763-.23,1.756,6.128,4.98,13.078,7.1,20.912,5.756A26.067,26.067,0,0,0,41.684,59.3c.233-.22.689-.428.344-.892a2.788,2.788,0,0,0-3.176-.088c-4.563,5.152-10.214,7.673-17.114,6.713-4.5-.626-8.217-2.678-10.381-6.927.183-.2.351-.425.553-.609,1.611-1.472,3.121-1.432,4.3.27,1.147,1.656,3.068,2.284,5.029,2.61a23.515,23.515,0,0,0,9.038-.726,3.918,3.918,0,0,0,2.287-1.189c1.6-1.944,3.381-2.9,5.808-1.459.179.107.5.2.6-.057a.824.824,0,0,0-.172-.629c-.534-.751-1.395-.785-2.2-1-1.056-.287-2.74.141-2.774-1.582-.033-1.682,1.546-1.707,2.74-1.928a5.771,5.771,0,0,0,3.418-1.644,15.4,15.4,0,0,0,4.453-10.294,1.842,1.842,0,0,1,1.051-1.756,9.052,9.052,0,0,0,4.083-4.884c1.193-3.257.092-5.574-3.177-6.745" transform="translate(0 0)"/><path class="d" d="M7.362,26.354A53.433,53.433,0,0,1,6.684,17.7,13.255,13.255,0,0,1,11.892,6.9c1.077-.831,1.8-1.958,2.838-2.807C17.752,1.622,21.389.853,25.09.271A31.1,31.1,0,0,1,36.446.942c4.222.893,7.1,3.725,9.865,6.73a13.708,13.708,0,0,1,3.738,6.811,18.074,18.074,0,0,1,.091,5.235,55.848,55.848,0,0,0-.17,6.761,11.7,11.7,0,0,0-2.8-.23c-.381-2.311-.837-4.606-1.3-6.9a7.156,7.156,0,0,0-3.993-5.125A19.026,19.026,0,0,0,39.1,13c-3.7-1.261-7.567-1.444-11.423-1.7-1.062-.069-2.278-.151-2.773-1.215-.462-.994.431-1.8.968-2.57a35.5,35.5,0,0,1,4.05-4.343c.212-.217.626-.4.474-.76-.183-.43-.663-.277-.988-.224a3.7,3.7,0,0,0-2.457,1.641A31.436,31.436,0,0,0,24.1,8.4c-1.156,2.435-2.76,4.326-5.62,4.777a7.033,7.033,0,0,0-1.833.608c-2.858,1.331-5.177,3.115-5.816,6.5-.374,1.979-.6,3.965-.786,5.963l-2.686.106M36.229,10.377a5.9,5.9,0,0,0,2.263-2.092.35.35,0,0,0-.206-.549c-1-.158-1.565.577-2.183,1.167a1.777,1.777,0,0,0-.481.651c-.163.485.044.786.608.823m-4.8-1.653a5.962,5.962,0,0,0,1.736-1.657c.3-.373.709-.95.294-1.338-.459-.43-.882.153-1.234.459a3.843,3.843,0,0,0-1.078,1.861c-.072.236-.134.553.282.676" transform="translate(-3.572 0)"/><path class="e" d="M43.594,56.44a11.68,11.68,0,0,1,2.8.23c3.269,1.171,4.37,3.488,3.177,6.745A9.052,9.052,0,0,1,45.492,68.3a1.842,1.842,0,0,0-1.051,1.756,15.4,15.4,0,0,1-4.453,10.294,5.771,5.771,0,0,1-3.418,1.644c-1.193.221-2.772.246-2.74,1.928.033,1.724,1.718,1.294,2.774,1.582.8.218,1.661.252,2.2,1a.824.824,0,0,1,.172.629c-.1.256-.422.164-.6.057-2.427-1.44-4.21-.485-5.808,1.459a3.918,3.918,0,0,1-2.287,1.189,23.515,23.515,0,0,1-9.038.726c-1.961-.326-3.882-.954-5.029-2.61-1.178-1.7-2.687-1.742-4.3-.27-.2.184-.37.405-.553.609l-.988-.089c.113-1.534,1.2-2.065,2.476-2.387.759-.192,1.537-.31,2.291-.517.561-.153,1.065-.477.964-1.153-.087-.58-.219-1.2-.928-1.407-.222-.064-.439-.141-.663-.2A11.709,11.709,0,0,1,5.6,72.224a7.451,7.451,0,0,1-.1-.825,3.793,3.793,0,0,0-1.818-3.578,8.466,8.466,0,0,1-2.433-2.8c-2.293-3.784-1.431-6.665,2.538-8.475l2.687-.106a1.387,1.387,0,0,1,.037,1.777,1.557,1.557,0,0,1-2.152.084c-1.015-.656-1.615-.184-2.251.49A3.347,3.347,0,0,0,1.2,60.761c-.273,2.394.939,4.148,2.5,5.74a1.436,1.436,0,0,0,1.543.368c1.236-.446,1.535.1,1.529,1.231a19.315,19.315,0,0,0,1.621,8.193,8.091,8.091,0,0,0,5.487,4.862c3,.775,3.325,1.214,3.43,4.406C17.372,87.5,18.06,88.51,19.9,89a17.114,17.114,0,0,0,9.289-.05c2.124-.6,3.36-1.758,3.366-4.2.006-2.326,1.219-3.473,3.556-3.825a4.93,4.93,0,0,0,3.156-1.792,13.865,13.865,0,0,0,3.773-9.68c-.017-.5.064-1.012.093-1.519.053-.945.352-1.514,1.462-1.105a1.635,1.635,0,0,0,1.806-.357,7.815,7.815,0,0,0,2.427-4.1c.529-3.044-1.046-4.65-4.055-4.186-.546.084-1.2.324-1.57-.144-.456-.575.13-1.1.393-1.611" transform="translate(0 -30.19)"/><path class="f" d="M17.681,124.569l.988.089c2.165,4.249,5.886,6.3,10.381,6.927,6.9.961,12.551-1.561,17.114-6.713a2.789,2.789,0,0,1,3.176.088c.345.463-.111.672-.344.892a26.066,26.066,0,0,1-13.53,7.089c-7.835,1.349-14.784-.776-20.912-5.755-1.223-.994-1.207-1.025.229-1.757a8.045,8.045,0,0,1,2.9-.86" transform="translate(-7.312 -66.554)"/><path class="e" d="M44.513,81.817c1.92.12,4.262.29,6.608.4.626.028.75.283.781.839a4.608,4.608,0,0,1-2.919,4.592A9.985,9.985,0,0,1,39.5,86.568a3.508,3.508,0,0,1-1.7-3,1.2,1.2,0,0,1,1.068-1.348,23.29,23.29,0,0,1,5.646-.4m.187,1.106c-1.159.1-2.63.212-4.1.362-1.371.14-1.478.385-.76,1.578,1.806,3,8.314,3.161,10.359.266.684-.968.186-1.454-.667-1.761-1.464-.526-3-.375-4.836-.445" transform="translate(-20.219 -43.757)"/><path class="f" d="M72.935,76.413c-1.493-.686-1.986-1.651-1.546-3.026a3.5,3.5,0,0,1,3.763-2.517c1.977.41,2.858,1.657,2.69,3.8a3.111,3.111,0,0,1-3.3,2.8c-.147-.947-.523-1.542-1.609-1.057" transform="translate(-38.105 -37.882)"/><path class="f" d="M24.5,77.422a3.382,3.382,0,0,1-2.49-5.957,3.3,3.3,0,0,1,4.566.422,2.71,2.71,0,0,1-.6,4.223c-.888-.009-1.222.6-1.472,1.312" transform="translate(-11.132 -37.84)"/><path class="e" d="M51.459,66.017c-2.73.057-3.684-1.057-3.233-3.672a19.317,19.317,0,0,1,1.433-4.158c.086-.2.156-.506.418-.484.322.027.393.364.4.619a7.188,7.188,0,0,1-.073,1.5c-.158.857-.393,1.7-.589,2.55-.468,2.023-.29,2.256,1.824,2.518.624.078,1.741.133,1.637.626-.146.689-1.216.393-1.818.5" transform="translate(-25.74 -30.866)"/><path class="e" d="M70.659,58.287c1.372,0,2.363.724,2.4,1.76.042,1.083-1.028,1.94-2.4,1.921a2.167,2.167,0,0,1-2.27-1.95c.01-.989.98-1.73,2.267-1.731" transform="translate(-36.584 -31.179)"/><path class="e" d="M31.057,62.493c-1.328-.054-2.256-.827-2.18-1.818a2.245,2.245,0,0,1,2.426-1.8c1.31.043,2.237.829,2.165,1.834a2.161,2.161,0,0,1-2.41,1.779" transform="translate(-15.445 -31.495)"/><path class="e" d="M49.66,105.771a7.78,7.78,0,0,1-3.9-.819.614.614,0,0,1-.307-.406c0-.323.265-.146.4-.122a17.928,17.928,0,0,0,6.591-.417c.277-.054.707-.313.86.076.146.373-.206.678-.5.9a5.2,5.2,0,0,1-3.146.784" transform="translate(-24.313 -55.564)"/><path class="e" d="M29.67,49.98a7.727,7.727,0,0,1-.824,0c-.673-.073-1.723-.044-1.758-.706-.043-.815.97-1.118,1.733-1.267a6.615,6.615,0,0,1,3.514.378c.251.089.536.225.536.555s-.266.466-.517.576a6.4,6.4,0,0,1-2.684.47" transform="translate(-14.489 -25.625)"/><path class="e" d="M70.765,49.609c-.7-.076-1.295-.12-1.881-.212-.426-.067-.8-.24-.818-.766s.308-.711.741-.83a5.612,5.612,0,0,1,4.116.5c.236.118.537.288.418.6a.773.773,0,0,1-.514.379c-.714.141-1.439.227-2.063.32" transform="translate(-36.41 -25.468)"/></g></svg>