<svg xmlns="http://www.w3.org/2000/svg" xmlns:xlink="http://www.w3.org/1999/xlink" width="85.531" height="90.996" viewBox="0 0 85.531 90.996"><defs><style>.a{fill:none;}.b{clip-path:url(#a);}.c{fill:#bdd8dd;}.d{fill:#150c15;}.e{fill:#e6c5cf;}</style><clipPath id="a"><rect class="a" width="85.531" height="90.996"/></clipPath></defs><g class="b"><path class="c" d="M111.653,9.879a5.048,5.048,0,1,0-6.569.007.645.645,0,0,1-.1,1.046,6.918,6.918,0,0,0-3.548,6.042v6.781H115.3V16.975a6.918,6.918,0,0,0-3.549-6.043.647.647,0,0,1-.094-1.053" transform="translate(-53.119 -0.525)"/><path class="d" d="M114.772,23.708H100.909a.476.476,0,0,1-.476-.476V16.451a7.412,7.412,0,0,1,3.791-6.457.162.162,0,0,0,.08-.128.16.16,0,0,0-.054-.141,5.524,5.524,0,0,1-.225-8.194A5.461,5.461,0,0,1,108.1.007a5.559,5.559,0,0,1,5.258,5.267,5.5,5.5,0,0,1-1.92,4.442h0a.182.182,0,0,0-.062.155.152.152,0,0,0,.078.122,7.411,7.411,0,0,1,3.792,6.458v6.781a.476.476,0,0,1-.476.476m-13.386-.953H114.3v-6.3a6.461,6.461,0,0,0-3.3-5.627,1.111,1.111,0,0,1-.561-.858,1.134,1.134,0,0,1,.389-.972h0a4.551,4.551,0,0,0,1.588-3.676,4.6,4.6,0,0,0-4.35-4.358A4.572,4.572,0,0,0,104.87,9a1.121,1.121,0,0,1-.18,1.824,6.46,6.46,0,0,0-3.3,5.627Z" transform="translate(-52.595 0)"/><path class="e" d="M63.49,9.879a5.048,5.048,0,1,0-6.569.007.645.645,0,0,1-.1,1.046,6.918,6.918,0,0,0-3.548,6.042v6.781H67.133V16.975a6.918,6.918,0,0,0-3.549-6.043.647.647,0,0,1-.094-1.053" transform="translate(-27.897 -0.525)"/><path class="d" d="M66.61,23.708H52.746a.476.476,0,0,1-.476-.476V16.451a7.412,7.412,0,0,1,3.792-6.457.169.169,0,0,0,.026-.269,5.525,5.525,0,0,1-.225-8.194A5.467,5.467,0,0,1,59.939.007,5.559,5.559,0,0,1,65.2,5.275a5.5,5.5,0,0,1-1.919,4.442.181.181,0,0,0-.062.154.152.152,0,0,0,.079.122,7.413,7.413,0,0,1,3.791,6.458v6.781a.476.476,0,0,1-.476.476m-13.387-.953H66.133v-6.3a6.461,6.461,0,0,0-3.3-5.627,1.111,1.111,0,0,1-.561-.858,1.134,1.134,0,0,1,.389-.972h0a4.551,4.551,0,0,0,1.589-3.676A4.6,4.6,0,0,0,59.895.959,4.572,4.572,0,0,0,56.707,9a1.121,1.121,0,0,1-.18,1.824,6.46,6.46,0,0,0-3.3,5.627Z" transform="translate(-27.373 0)"/><path class="e" d="M111.653,80.98a5.048,5.048,0,1,0-6.569.007.645.645,0,0,1-.1,1.046,6.918,6.918,0,0,0-3.548,6.042v6.781H115.3V88.076a6.918,6.918,0,0,0-3.549-6.043.647.647,0,0,1-.094-1.053" transform="translate(-53.119 -37.759)"/><path class="d" d="M114.772,94.809H100.909a.476.476,0,0,1-.476-.476V87.551a7.412,7.412,0,0,1,3.791-6.457.169.169,0,0,0,.026-.27,5.524,5.524,0,1,1,7.19-.008h0a.18.18,0,0,0-.061.154.153.153,0,0,0,.078.122,7.411,7.411,0,0,1,3.792,6.457v6.781a.476.476,0,0,1-.476.476m-13.386-.953H114.3V87.551a6.46,6.46,0,0,0-3.3-5.627,1.109,1.109,0,0,1-.561-.859,1.134,1.134,0,0,1,.389-.971,4.552,4.552,0,0,0,1.588-3.677,4.6,4.6,0,0,0-4.35-4.357A4.572,4.572,0,0,0,104.87,80.1a1.121,1.121,0,0,1-.18,1.824,6.459,6.459,0,0,0-3.3,5.626Zm9.744-13.4h0Z" transform="translate(-52.595 -37.235)"/><path class="c" d="M159.684,80.98a5.048,5.048,0,1,0-6.569.007.645.645,0,0,1-.1,1.046,6.918,6.918,0,0,0-3.548,6.042v6.781h13.863V88.076a6.918,6.918,0,0,0-3.549-6.043.647.647,0,0,1-.094-1.053" transform="translate(-78.272 -37.759)"/><path class="d" d="M162.8,94.808H148.94a.476.476,0,0,1-.476-.476V87.551a7.412,7.412,0,0,1,3.791-6.457.169.169,0,0,0,.026-.27,5.523,5.523,0,0,1-.225-8.193,5.464,5.464,0,0,1,4.075-1.523,5.559,5.559,0,0,1,5.259,5.267,5.5,5.5,0,0,1-1.92,4.442.179.179,0,0,0-.061.154.151.151,0,0,0,.078.122,7.414,7.414,0,0,1,3.792,6.458v6.781a.476.476,0,0,1-.476.476m-13.387-.953h12.911V87.551a6.46,6.46,0,0,0-3.3-5.627,1.108,1.108,0,0,1-.561-.858,1.133,1.133,0,0,1,.388-.972,4.553,4.553,0,0,0,1.589-3.678,4.6,4.6,0,0,0-4.351-4.357A4.572,4.572,0,0,0,152.9,80.1a1.121,1.121,0,0,1-.18,1.824,6.46,6.46,0,0,0-3.3,5.626Zm9.744-13.4h0Z" transform="translate(-77.748 -37.234)"/><path class="c" d="M135.807,151.149a5.048,5.048,0,1,0-6.569.007.645.645,0,0,1-.1,1.046,6.918,6.918,0,0,0-3.548,6.042v6.781H139.45v-6.781A6.918,6.918,0,0,0,135.9,152.2a.647.647,0,0,1-.094-1.053" transform="translate(-65.768 -74.506)"/><path class="d" d="M138.926,164.977H125.063a.476.476,0,0,1-.476-.476v-6.78a7.412,7.412,0,0,1,3.791-6.457.162.162,0,0,0,.081-.128.16.16,0,0,0-.054-.141,5.525,5.525,0,1,1,7.19-.009.183.183,0,0,0-.062.155.151.151,0,0,0,.078.122,7.411,7.411,0,0,1,3.792,6.458v6.78a.476.476,0,0,1-.476.476m-13.386-.953h12.91v-6.3a6.461,6.461,0,0,0-3.3-5.627,1.108,1.108,0,0,1-.56-.858,1.134,1.134,0,0,1,.388-.972h0a4.572,4.572,0,1,0-5.95.007,1.121,1.121,0,0,1-.18,1.824,6.46,6.46,0,0,0-3.3,5.627Z" transform="translate(-65.244 -73.981)"/><path class="e" d="M63.49,151.149a5.048,5.048,0,1,0-6.569.007.645.645,0,0,1-.1,1.046,6.918,6.918,0,0,0-3.548,6.042v6.781H67.133v-6.781a6.918,6.918,0,0,0-3.549-6.043.647.647,0,0,1-.094-1.053" transform="translate(-27.897 -74.506)"/><path class="d" d="M66.61,164.977H52.746a.476.476,0,0,1-.476-.476v-6.78a7.412,7.412,0,0,1,3.792-6.457.169.169,0,0,0,.026-.269,5.525,5.525,0,1,1,7.19-.008.181.181,0,0,0-.062.154.152.152,0,0,0,.079.122,7.413,7.413,0,0,1,3.791,6.458v6.78a.476.476,0,0,1-.476.476m-13.387-.953H66.133v-6.3a6.461,6.461,0,0,0-3.3-5.627,1.111,1.111,0,0,1-.561-.858,1.134,1.134,0,0,1,.389-.972h0a4.551,4.551,0,0,0,1.589-3.676,4.6,4.6,0,0,0-4.35-4.358,4.572,4.572,0,0,0-3.188,8.041,1.121,1.121,0,0,1-.18,1.824,6.46,6.46,0,0,0-3.3,5.627Z" transform="translate(-27.373 -73.981)"/><path class="c" d="M11.221,151.149a5.048,5.048,0,1,0-6.569.007.645.645,0,0,1-.1,1.046A6.919,6.919,0,0,0,1,158.245v6.781H14.863v-6.781a6.918,6.918,0,0,0-3.549-6.043.647.647,0,0,1-.093-1.053" transform="translate(-0.524 -74.506)"/><path class="d" d="M14.34,164.977H.476A.476.476,0,0,1,0,164.5v-6.78a7.412,7.412,0,0,1,3.791-6.457.169.169,0,0,0,.026-.269,5.524,5.524,0,0,1-.225-8.194,5.466,5.466,0,0,1,4.076-1.523,5.559,5.559,0,0,1,5.259,5.267,5.5,5.5,0,0,1-1.92,4.441.181.181,0,0,0-.061.155.152.152,0,0,0,.079.122,7.414,7.414,0,0,1,3.791,6.458v6.78a.476.476,0,0,1-.476.476M.953,164.024H13.863v-6.3a6.461,6.461,0,0,0-3.3-5.627,1.11,1.11,0,0,1-.561-.858,1.135,1.135,0,0,1,.388-.972h0a4.552,4.552,0,0,0,1.589-3.677,4.6,4.6,0,0,0-4.351-4.357,4.571,4.571,0,0,0-3.187,8.041,1.122,1.122,0,0,1-.181,1.824,6.459,6.459,0,0,0-3.3,5.626Z" transform="translate(0 -73.981)"/><path class="c" d="M63.49,80.98a5.048,5.048,0,1,0-6.569.007.645.645,0,0,1-.1,1.046,6.918,6.918,0,0,0-3.548,6.042v6.781H67.133V88.076a6.918,6.918,0,0,0-3.549-6.043.647.647,0,0,1-.094-1.053" transform="translate(-27.897 -37.759)"/><path class="d" d="M66.61,94.809H52.746a.476.476,0,0,1-.476-.476V87.551a7.412,7.412,0,0,1,3.792-6.457.17.17,0,0,0,.026-.27,5.524,5.524,0,1,1,7.19-.008h0a.181.181,0,0,0-.061.154.152.152,0,0,0,.079.122,7.412,7.412,0,0,1,3.791,6.457v6.781a.476.476,0,0,1-.476.476m-13.387-.953H66.133V87.551a6.46,6.46,0,0,0-3.3-5.627,1.109,1.109,0,0,1-.561-.859,1.134,1.134,0,0,1,.389-.971,4.572,4.572,0,1,0-5.95.007,1.121,1.121,0,0,1-.18,1.824,6.459,6.459,0,0,0-3.3,5.626Zm9.745-13.4h0Z" transform="translate(-27.373 -37.235)"/><path class="e" d="M11.221,80.98a5.048,5.048,0,1,0-6.569.007.645.645,0,0,1-.1,1.046A6.919,6.919,0,0,0,1,88.076v6.781H14.863V88.076a6.918,6.918,0,0,0-3.549-6.043.647.647,0,0,1-.093-1.053" transform="translate(-0.524 -37.759)"/><path class="d" d="M14.339,94.808H.476A.476.476,0,0,1,0,94.332V87.551a7.412,7.412,0,0,1,3.791-6.457.169.169,0,0,0,.026-.27,5.523,5.523,0,0,1-.225-8.193,5.462,5.462,0,0,1,4.075-1.523,5.559,5.559,0,0,1,5.259,5.267,5.5,5.5,0,0,1-1.92,4.442.18.18,0,0,0-.061.154.153.153,0,0,0,.078.122,7.412,7.412,0,0,1,3.791,6.457v6.781a.476.476,0,0,1-.476.476M.953,93.856h12.91V87.551a6.46,6.46,0,0,0-3.3-5.627A1.111,1.111,0,0,1,10,81.066a1.135,1.135,0,0,1,.388-.972,4.572,4.572,0,1,0-5.949.007,1.121,1.121,0,0,1-.181,1.824,6.459,6.459,0,0,0-3.3,5.626Zm9.744-13.4h0Z" transform="translate(0 -37.234)"/><path class="d" d="M90.881,41.485H85.273a.476.476,0,0,1,0-.953h5.607a.476.476,0,1,1,0,.953" transform="translate(-44.407 -21.226)"/><path class="d" d="M91.159,51.645a.476.476,0,0,1-.476-.476V42.421a.476.476,0,1,1,.953,0v8.748a.476.476,0,0,1-.476.476" transform="translate(-47.489 -21.966)"/><path class="d" d="M90.1,64.59a.476.476,0,0,1-.476-.476V62.2H69.336v1.91a.476.476,0,0,1-.953,0V61.727a.476.476,0,0,1,.476-.476H90.1a.476.476,0,0,1,.476.476v2.386a.476.476,0,0,1-.476.476" transform="translate(-35.811 -32.076)"/><path class="d" d="M41.422,111.119H35.814a.476.476,0,1,1,0-.953h5.607a.476.476,0,1,1,0,.953" transform="translate(-18.506 -57.692)"/><path class="d" d="M41.7,121.279a.476.476,0,0,1-.476-.476v-8.747a.476.476,0,1,1,.953,0V120.8a.476.476,0,0,1-.476.476" transform="translate(-21.588 -58.432)"/><path class="d" d="M40.643,134.224a.476.476,0,0,1-.476-.476v-1.909H19.877v1.909a.476.476,0,0,1-.953,0v-2.385a.476.476,0,0,1,.476-.476H40.643a.476.476,0,0,1,.476.476v2.385a.476.476,0,0,1-.476.476" transform="translate(-9.91 -68.543)"/><path class="d" d="M139.337,111.119h-5.607a.476.476,0,1,1,0-.953h5.607a.476.476,0,0,1,0,.953" transform="translate(-69.782 -57.692)"/><path class="d" d="M139.616,121.279a.476.476,0,0,1-.476-.476v-8.747a.476.476,0,0,1,.953,0V120.8a.476.476,0,0,1-.476.476" transform="translate(-72.865 -58.432)"/></g></svg>