<svg xmlns="http://www.w3.org/2000/svg" xmlns:xlink="http://www.w3.org/1999/xlink" width="61.693" height="59.147" viewBox="0 0 61.693 59.147"><defs><style>.a{fill:none;}.b{clip-path:url(#a);}.c{fill:#fff;}.d{fill:#26466d;}.e{fill:#fde67c;}</style><clipPath id="a"><rect class="a" width="61.693" height="59.147"/></clipPath></defs><g class="b" transform="translate(0 0)"><path class="c" d="M61.6,24.576a2.526,2.526,0,0,0-2.353-2.546,21.065,21.065,0,0,0-2.808-.114,1.7,1.7,0,0,1-1.825-1.728,7.046,7.046,0,0,1,.631-3.142c1.3-3.7-.35-6.815-4.028-7.48a21,21,0,0,0-3.23-.062C45.306,9.445,43.3,8.09,42.745,5.467c-.391-1.839-1.036-3.024-3.022-3.2-.284-.025-.567-.318-.808-.534A2.564,2.564,0,0,0,36.3,1.149,3.489,3.489,0,0,1,33.6.833,9.891,9.891,0,0,0,27.252.264a39.166,39.166,0,0,0-8.024,2.579,4.086,4.086,0,0,0-2.4,2.222A2.065,2.065,0,0,1,15.484,6.42a4.415,4.415,0,0,0-2.909,2.83A5.285,5.285,0,0,1,8.73,12.418,8.447,8.447,0,0,0,2.559,17.3,15.365,15.365,0,0,1,.867,19.882a3.88,3.88,0,0,0-.692,3.579c.23.762.515,1.507.788,2.255A5.976,5.976,0,0,0,5.583,29.8c-.774,1.379-.427,2.892-.535,4.355-.5,6.807,1.628,12.549,6.016,17.868,4.912,5.954,11.457,6.735,18.3,7.118,2.164.121,4.192-.992,6.337-1.207a10.682,10.682,0,0,0,7.286-3.813,20.207,20.207,0,0,0,4.136-7.29,2.961,2.961,0,0,1,2.4-2.282,4.515,4.515,0,0,0,2.7-1.663,7.715,7.715,0,0,0,4.441.055c3.455-.818,5.262-6.02,3-8.717a1.213,1.213,0,0,1-.009-1.849c2.123-2.236,2.185-4.988,1.951-7.8" transform="translate(0 0)"/><path class="d" d="M5.583,29.8a5.975,5.975,0,0,1-4.62-4.079c-.273-.748-.557-1.494-.788-2.255a3.881,3.881,0,0,1,.692-3.579A15.361,15.361,0,0,0,2.559,17.3,8.448,8.448,0,0,1,8.73,12.418,5.285,5.285,0,0,0,12.575,9.25a4.416,4.416,0,0,1,2.909-2.83A2.066,2.066,0,0,0,16.83,5.067a4.083,4.083,0,0,1,2.4-2.222A39.166,39.166,0,0,1,27.252.265,9.887,9.887,0,0,1,33.6.834a3.492,3.492,0,0,0,2.7.315,2.564,2.564,0,0,1,2.615.588c.241.216.524.51.808.534,1.986.173,2.63,1.357,3.022,3.2.558,2.623,2.56,3.978,5.242,4.037a20.933,20.933,0,0,1,3.23.062c3.678.666,5.328,3.783,4.028,7.48a7.048,7.048,0,0,0-.631,3.142,1.7,1.7,0,0,0,1.825,1.727,21.157,21.157,0,0,1,2.808.114A2.527,2.527,0,0,1,61.6,24.576c.234,2.808.171,5.561-1.951,7.8a1.213,1.213,0,0,0,.009,1.849c2.263,2.7.457,7.9-3,8.716a7.72,7.72,0,0,1-4.441-.054l.628-1.247a4.4,4.4,0,0,0-1.134-5.768c-1.764-1.37-3.816-1.22-5.716.415a1.11,1.11,0,0,1-.74-1.352,6.4,6.4,0,0,0-.351-2.762,34.281,34.281,0,0,1-1.143-4.488A12.113,12.113,0,0,0,39.793,20c-1.634-1.507-2.754-3.624-5.058-4.343-2.008-.626-4.086-1.057-5.86-2.3a1.938,1.938,0,0,0-1.076-.236,8.9,8.9,0,0,1-3.163-.58,5.322,5.322,0,0,0-4.358.25A22.291,22.291,0,0,0,7.741,28.446c-.141.62-.344,1.179-1.052,1.351-.368-.154-.736-.309-1.105,0M28.757,6.329c-2.149.472-4.407.817-5.5,3.244a4.541,4.541,0,0,1-.79.973c-.19.22-.721.311-.421.716.224.3.631.09.914-.048A9.869,9.869,0,0,0,25.6,8.926a2.64,2.64,0,0,1,1.734-1.1c2.488-.1,4.864.136,6.792,2.032a10.144,10.144,0,0,0,6.647,3.058c2.956.166,4.605,1.726,5.418,4.472a31.972,31.972,0,0,0,2.456,6.288,9.412,9.412,0,0,0,4.605,4.378,2.243,2.243,0,0,0,2.795-.619.975.975,0,0,0,.2-1.28c-.353-.538-.771-.357-1.222-.123-.9.465-2.058.684-2.61-.133-1.3-1.923-3.118-3.529-3.722-5.91-.322-1.271-.831-2.493-1.209-3.75a6.175,6.175,0,0,0-6.315-4.8,6.514,6.514,0,0,1-4.975-2c-1.965-2.307-4.705-2.53-7.438-3.113" transform="translate(0 0)"/><path class="d" d="M50.143,60.96c1.9-1.636,3.952-1.785,5.716-.416a4.4,4.4,0,0,1,1.134,5.768l-.628,1.247a4.51,4.51,0,0,1-2.7,1.663,2.961,2.961,0,0,0-2.4,2.282,20.206,20.206,0,0,1-4.137,7.289,10.678,10.678,0,0,1-7.285,3.813c-2.146.214-4.173,1.328-6.337,1.207-6.842-.383-13.388-1.165-18.3-7.118-4.388-5.319-6.519-11.061-6.016-17.868.107-1.463-.239-2.976.535-4.356.369-.308.737-.153,1.105,0,.187.36.7.613.528,1.088-.753,2.054-.005,4.179-.345,6.261a10.927,10.927,0,0,0,.454,4.872,37.119,37.119,0,0,0,2.8,5.824c2.011,4.047,5.312,6.729,9.259,8.723a2.948,2.948,0,0,0,2.172.369,3.591,3.591,0,0,1,3.539.788,1.929,1.929,0,0,0,1.452.417c1.356-.111,2.71-.292,4.067-.322,2.875-.062,5.113-2.294,8-2.3.183,0,.388-.248.546-.415,2.708-2.887,5.448-5.746,6.579-9.711a2.658,2.658,0,0,1,2.292-2.005,3.823,3.823,0,0,0,3.481-3.481c.594-2.913-.994-4.317-3.466-3.082a1.367,1.367,0,0,1-2.047-.542" transform="translate(-4.146 -24.675)"/><path class="c" d="M47.049,11.6c2.733.583,5.473.806,7.438,3.113a6.514,6.514,0,0,0,4.975,2,6.175,6.175,0,0,1,6.315,4.8c.379,1.257.887,2.48,1.209,3.75.6,2.38,2.422,3.987,3.722,5.91.552.817,1.712.6,2.61.133.451-.234.868-.415,1.222.123a.975.975,0,0,1-.2,1.28,2.243,2.243,0,0,1-2.795.619,9.412,9.412,0,0,1-4.605-4.378,31.972,31.972,0,0,1-2.456-6.288c-.813-2.746-2.462-4.306-5.418-4.472a10.144,10.144,0,0,1-6.647-3.058c-1.928-1.9-4.3-2.128-6.792-2.032a2.64,2.64,0,0,0-1.734,1.1,9.869,9.869,0,0,1-2.642,2.288c-.283.138-.69.349-.914.048-.3-.4.231-.5.421-.716a4.541,4.541,0,0,0,.79-.973c1.093-2.427,3.352-2.772,5.5-3.244" transform="translate(-18.292 -5.272)"/><path class="e" d="M20.231,72.719a5.008,5.008,0,0,1-3.1.64,3.67,3.67,0,0,1-3.516-3.664,3.961,3.961,0,0,1,3.408-4.4,3.834,3.834,0,0,1,4.351,2.453,14.774,14.774,0,0,1,.17,2.644l-1.316,2.328" transform="translate(-6.185 -29.64)"/><path class="e" d="M60.087,78.464c.114-2.5,1.279-3.842,3.529-4.059a3.756,3.756,0,0,1,4.293,2.962,3.931,3.931,0,0,1-2.18,4.906,3.415,3.415,0,0,1-3.687-.311c.346-1.724-.951-2.53-1.955-3.5" transform="translate(-27.309 -33.804)"/><path class="d" d="M40.218,66.383A4.9,4.9,0,0,1,37.2,65.061a2.451,2.451,0,0,1,.556-4.193,3.963,3.963,0,0,0,2.62-4.176c-.01-.464-.149-1.215.592-1.21.859.006.834.8.756,1.382a10.975,10.975,0,0,0-.133,3.625c.1.531-.28.745-.738.833a4.974,4.974,0,0,0-1.231.245c-.91.447-2.167.923-1.836,2.124.324,1.172,1.631,1.25,2.735,1.175.8-.053,2.012-.927,2.115.5.085,1.184-1.366.714-2.119,1.014a1.387,1.387,0,0,1-.3,0" transform="translate(-16.481 -25.216)"/><path class="d" d="M40.267,85.11a6.3,6.3,0,0,1-5.756-3.517.871.871,0,0,1,.256-1.333c.529-.327.883-.016,1.18.384a14.4,14.4,0,0,1,.964,1.37c.467.807,1.038,1.331,2.045,1.006.044-.014.1-.052.133-.037,2.156,1.088,3.138-.993,4.6-1.746.4-.207.639-.5,1.06-.113a.757.757,0,0,1,.142,1.113,5.8,5.8,0,0,1-4.619,2.874" transform="translate(-15.595 -36.414)"/><path class="d" d="M25.293,56.567a5.006,5.006,0,0,1,.616.035c1.105.207,2.27.587,2.373,1.823.109,1.315-1.081,1.752-2.156,1.982-.791.17-1.661.567-2.422-.087-.657-.564-1.255-1.261-.93-2.179a2.462,2.462,0,0,1,2.519-1.574" transform="translate(-10.309 -25.709)"/><path class="d" d="M61.95,67.577c-1.687,0-3.278-1.149-3.333-2.411-.043-.992.822-1.679,2.142-1.7,1.639-.029,3.477,1.308,3.429,2.493-.041,1-.9,1.62-2.238,1.621" transform="translate(-26.64 -28.843)"/><path class="d" d="M59.533,79.967c1,.969,2.3,1.775,1.955,3.5-.889.95-.906,2.362-1.742,3.324-.353.406-.548,1.3-1.351.876s-.435-1.1-.128-1.7c.319-.624.624-1.254.945-1.877,1.077-2.082,1.089-2.1-.666-3.636a2.277,2.277,0,0,1-1.05-2.275c.094-.463.248-.857.78-.779a.746.746,0,0,1,.664.914c-.118.681-.2,1.314.592,1.653" transform="translate(-26.111 -35.172)"/><path class="d" d="M26.507,77.277l1.316-2.328c.97.046,1.676.406.964,1.433a7.592,7.592,0,0,0-1.026,5.128c.031.48.312,1.181-.413,1.289-.771.114-1.162-.5-1.289-1.206a6.475,6.475,0,0,1,.117-2.239c.118-.691.221-1.385.33-2.077" transform="translate(-11.818 -34.063)"/><path class="d" d="M67.549,53.64c-.44-.067-1.083-.166-1.726-.262a.613.613,0,0,1-.592-.648.7.7,0,0,1,.636-.78,2.51,2.51,0,0,1,2.408.78c.184.211.426.439.315.723-.152.391-.514.314-1.04.187" transform="translate(-29.646 -23.592)"/><path class="d" d="M24.233,44.5c-.469-.047-.8-.057-1.117-.118-.356-.068-.98.217-.923-.482.042-.508.57-.562.986-.6a2.17,2.17,0,0,1,.969.065c.58.239,1.725-.245,1.665.689-.046.709-1.135.214-1.579.444" transform="translate(-10.085 -19.67)"/></g></svg>