<svg xmlns="http://www.w3.org/2000/svg" width="140" height="33.731" viewBox="0 0 140 33.731"><defs><style>.a{fill:#fff;}</style></defs><path class="a" d="M310.164,47.465V53.5h4.388V52.5h-3.091v-5.03Z" transform="translate(-233.331 -42.145)"/><rect class="a" width="1.296" height="6.038" transform="translate(82.2 5.319)"/><path class="a" d="M341.756,53.5H343.3l-2.18-3.156,2-2.882h-1.409l-1.316,2-1.27-2h-1.5l2.01,2.872L337.459,53.5H338.9l1.441-2.163Z" transform="translate(-253.031 -42.145)"/><rect class="a" width="1.297" height="6.038" transform="translate(91.19 5.319)"/><path class="a" d="M371.983,47.465V53.5h4.388V52.5H373.28v-5.03Z" transform="translate(-277.95 -42.145)"/><g transform="translate(0 0)"><path class="a" d="M521.959,45.268a.882.882,0,0,0-1.763,0h-4.11V46.2H519.8v.334c0,2.087-.827,3.475-3.026,3.941v.828a4.406,4.406,0,0,0,4.3-4.769v-.416a.867.867,0,0,0,.881-.854m-.884.44a.439.439,0,1,1,.454-.438.446.446,0,0,1-.454.438" transform="translate(-381.959 -39.944)"/><path class="a" d="M466.311,50.841c-.036,2.52-1.338,3.943-4.267,4.073v1.03c3.478-.178,5.234-1.671,5.234-5.1Z" transform="translate(-342.953 -44.582)"/><rect class="a" width="2.803" height="1.002" transform="translate(119.091 5.324)"/><rect class="a" width="2.803" height="1.001" transform="translate(119.091 7.116)"/><path class="a" d="M504.722,53v.9c0,1.84-.543,2.569-2.372,2.87V57.5c2.479-.228,3.412-1.431,3.412-3.618V53Z" transform="translate(-372.044 -46.138)"/><rect class="a" width="0.97" height="2.086" transform="translate(129.704 6.859)"/><rect class="a" width="0.97" height="2.086" transform="translate(131.177 6.859)"/><path class="a" d="M483.482,53v.782h2.529V54.8h-2.374v.785h2.374v1.14h-2.568V57.5h3.611V53h-3.571Z" transform="translate(-358.397 -46.138)"/><path class="a" d="M418.553,47.755V46.586h-.89v1.169h-.332v-.132H416.1v-.275a8.848,8.848,0,0,0,1.036-.124V46.5a15.258,15.258,0,0,1-3.07.23v.681c.329.008.752,0,1.183-.014v.226H414v.622h1.25V48.5h-1.09v2.338h1.09v.271h-1.08v.621h1.08v.337c-.475.02-.93.032-1.268.033v.721c.892-.013,2.455-.113,3.194-.2V52.8c.95-.5,1.378-1.453,1.378-3.413V48.65h.453V51.2c0,.547-.166.765-.534.765h-.11V52.8h.331c.765,0,1.152-.444,1.152-1.376v-3.67Zm-2.453.491h1.057V48.5H416.1Zm0,.814h.372v.328H416.1Zm.372,1.217H416.1v-.328h.372Zm-1.594-1.217h.372v.328h-.372Zm0,.889h.372v.328h-.372Zm2.785-.712c0,1.427-.012,2.112-.493,2.6v.093c-.282.036-.661.067-1.071.094v-.292h1.08v-.621H416.1v-.271h1.091V48.65h.472Z" transform="translate(-308.263 -41.449)"/><path class="a" d="M395.633,50.732a7.978,7.978,0,0,1-2.437-1.766,5.338,5.338,0,0,0,.33-.562H395.6v-.948h-5.932V48.4h2.484a6.035,6.035,0,0,1-2.551,2.558v.879a8.228,8.228,0,0,0,2.5-1.606V53.5h1.072V50.138a8.31,8.31,0,0,0,2.463,1.634Z" transform="translate(-290.666 -42.138)"/><path class="a" d="M443.083,49.212v-.8h-1.322l.1-.483h1.016v-.8h-2.167v-.31h-.946v.31h-2.166v.8h1.017l.1.483h-1.252V50.23a3.007,3.007,0,0,1-.313,1.8v.993a2.662,2.662,0,0,0,1.2-2.618V49.212h.464v.16a1.238,1.238,0,0,1-.288,1v.813a1.743,1.743,0,0,0,.828-.744h.912v.493h-1.315v.735h1.315v.456H438.25v.789h4.769v-.789h-1.8v-.456h1.339v-.735h-1.339v-.493h1.561v-.78h-1.561v-.455Zm-3.526-1.288h1.355l-.1.483h-1.161Zm.706,1.742H439.6a2.679,2.679,0,0,0,.02-.332v-.122h.639Z" transform="translate(-324.98 -41.672)"/><path class="a" d="M236.854,52.478v-1.62h3.113V49.9h-3.113v-1.44h3.364V47.449H235.56v6.038h4.718V52.478Z" transform="translate(-179.484 -42.134)"/><path class="a" d="M261.337,53.306a1.1,1.1,0,0,1-.227-.546,4.764,4.764,0,0,1-.08-.913,1.666,1.666,0,0,0-.1-.61,1.233,1.233,0,0,0-.252-.406.985.985,0,0,0-.334-.232l-.026-.01a1.331,1.331,0,0,0,.349-.251,1.609,1.609,0,0,0,.325-.472,1.715,1.715,0,0,0,.14-.735,1.519,1.519,0,0,0-.549-1.241,2.494,2.494,0,0,0-1.6-.44h-3.055v6.038h1.294V51.058h1.485a1.662,1.662,0,0,1,.572.083.688.688,0,0,1,.327.244,1.059,1.059,0,0,1,.172.438,3.874,3.874,0,0,1,.05.671c0,.144.008.326.022.481a1.021,1.021,0,0,0,.159.464l.031.049h1.467Zm-1.5-4a.767.767,0,0,1-.231.617,1.075,1.075,0,0,1-.717.207h-1.666V48.494h1.649a2.357,2.357,0,0,1,.385.031.806.806,0,0,1,.305.115.562.562,0,0,1,.2.231.93.93,0,0,1,.075.406Z" transform="translate(-194.187 -42.134)"/><path class="a" d="M281.3,53.487h1.391l-2.465-6.038H278.93l-2.456,6.038h1.347l.59-1.572h2.3Zm-2.538-2.5.809-2.157.8,2.157Z" transform="translate(-209.014 -42.134)"/><path class="a" d="M500.863,98.1c-.091,6.293-3.342,9.848-10.656,10.173v2.573c8.686-.444,13.073-4.173,13.073-12.746Z" transform="translate(-363.28 -78.691)"/><rect class="a" width="7" height="2.503" transform="translate(126.927 17.071)"/><path class="a" d="M378.27,91.029h-3.042v-3h-2.554v3h-5.258v-3h-2.554v3h-3.024v2.333h3.024v4.72h2.554v-4.72h5.258v.327c0,4.491-1.28,6.985-7.08,7.758v2.127c6.877-.547,9.634-3.266,9.634-9.536v-.677h3.042Z" transform="translate(-270.627 -71.421)"/><path class="a" d="M427.829,105.994h14.287V92.461H427.829Zm11.733-2.333h-9.179V94.794h9.179Z" transform="translate(-318.258 -74.622)"/><path class="a" d="M261.239,104.069h8.025V89.075h-8.025ZM267.1,93.517H263.4V90.994H267.1Zm0,4.207H263.4v-2.3H267.1Zm-3.707,1.9H267.1v2.524H263.4Z" transform="translate(-198.018 -72.178)"/><path class="a" d="M240.374,87.216h-2.413v2.8h-2.4v2.2h2.4a14.267,14.267,0,0,1-2.4,5.008V99.5a10.887,10.887,0,0,0,2.4-2.854v6.346h2.413V95.557a10.255,10.255,0,0,0,2,2.044V94.953a11.193,11.193,0,0,1-2-2.723V92.22h2v-2.2h-2Z" transform="translate(-179.484 -70.837)"/><path class="a" d="M320.8,125.079v1.647c2.71-.428,4.073-1.341,4.073-6.607h-1.907c-.005,2.609-.154,4.15-2.166,4.959" transform="translate(-241.005 -94.586)"/><path class="a" d="M342.123,122.233h-1.588v.339c0,.417-.017,1.5-.067,1.835a.273.273,0,0,1-.3.269h-.414c-.284,0-.334-.018-.334-.336v-4.22h-2.095v5.038c0,.4,0,1.418,1.2,1.418h2.3c1.285,0,1.285-1.235,1.3-3.571Z" transform="translate(-252.935 -94.586)"/><path class="a" d="M302.273,96.124l.13.42h1.07v.527h1.807V95.763h5.389v1.308h1.871v-3.21h-9.068v1.182l-.578-1.867h-1.534l.374,1.209h-1.506l3.014-4.581v.46h3.681v1.145h-3.681v1.768h9.644V91.407h-3.866V90.263h3.866V88.5h-3.866V87.216h-2.1V88.5h-3.681v.68h-1.593l-1.685,2.56-.546-.561,2.457-3.733H299.94l-1.676,2.547-.378-.388-.957,1.453L299,93.2l-.78,1.186h-1.384v1.74h2.483v6.849h2.1V96.124Z" transform="translate(-223.713 -70.836)"/><path class="a" d="M316.241,126.082a16.76,16.76,0,0,0-.3-3.445h-1.463a15.109,15.109,0,0,1,.272,3.445Z" transform="translate(-236.445 -96.402)"/><path class="a" d="M296.545,127.148h1.66a13.161,13.161,0,0,0,.538-4.511h-1.5a11.049,11.049,0,0,1-.7,4.511" transform="translate(-223.501 -96.402)"/><path class="a" d="M35.634,62.018A1.513,1.513,0,0,1,35.329,62a1.641,1.641,0,0,1-.314-.041c-.1-.041-.159-.143-.245-.2a1.559,1.559,0,0,1-.247-.183,1.6,1.6,0,0,1-.217-.226,1.641,1.641,0,0,1-.169-.27,1.764,1.764,0,0,1-.03-.318,1.621,1.621,0,0,1-.063-.307c0-.152.021-.152.021-.3s.028-.152.028-.3-.009-.152-.009-.3-.031-.152-.031-.3-.011-.152-.011-.3.049-.152.049-.3-.005-.152-.005-.3-.02-.152-.02-.3,0-.152,0-.3-.023-.152-.023-.3.028-.152.028-.3v-.3c0-.152.009-.152.009-.3s.008-.152.008-.3,0-.152,0-.3-.031-.152-.031-.3-.027-.152-.027-.3-.018-.152-.018-.3.035-.152.035-.3.024-.152.024-.3-.048-.152-.048-.3,0-.152,0-.3.01-.152.01-.3.029-.152.029-.3-.045-.152-.045-.3.018-.152.018-.3.05-.152.05-.3-.071-.152-.071-.3,0-.152,0-.3.07-.152.07-.3-.007-.152-.007-.3-.026-.152-.026-.3-.014-.152-.014-.3.02-.152.02-.3-.014-.152-.014-.3,0-.152,0-.3-.026-.152-.026-.3.054-.152.054-.3,0-.152,0-.3-.014-.152-.014-.3.013-.152.013-.3.014-.152.014-.3-.061-.152-.061-.3-.013-.152-.013-.3.006-.152.006-.3.034-.153.034-.305.023-.153.023-.305.011-.153.011-.306-.018-.153-.018-.306-.032-.153-.032-.306a1.657,1.657,0,0,1,.084-.3,1.112,1.112,0,0,1,.171-.6c.057-.087.167-.135.241-.209.107-.109.118-.1.225-.207s.108-.107.215-.216.093-.122.2-.23.109-.106.216-.215.07-.145.176-.254.152-.064.259-.173.07-.145.176-.254.134-.082.241-.19.11-.106.216-.215.077-.138.184-.247.117-.1.225-.207.11-.105.217-.214.124-.092.231-.2.061-.155.167-.263L37.7,40.8c.107-.109.141-.076.247-.184s.079-.136.186-.245.114-.1.221-.21.148-.068.255-.176.1-.113.21-.221.112-.1.219-.213.053-.162.16-.27.123-.093.23-.2.136-.08.243-.189.09-.125.2-.234.09-.125.2-.234.1-.113.21-.222.15-.067.257-.176.064-.151.171-.26.1-.112.211-.221.142-.074.249-.183.1-.117.206-.226.092-.123.2-.232.115-.1.222-.21.1-.114.208-.223.111-.1.218-.214.11-.106.217-.215.09-.125.2-.234.125-.091.233-.2.12-.1.227-.2.1-.116.207-.225.1-.112.211-.22.079-.136.186-.245.114-.1.221-.21.1-.119.2-.227.126-.089.233-.2l.215-.217c.107-.109.14-.077.247-.186l.213-.218c.107-.109.072-.144.178-.252s.113-.1.22-.212.127-.09.234-.2.1-.119.2-.228.119-.1.225-.206.08-.135.188-.244.114-.1.221-.211.093-.122.2-.231.1-.117.207-.226.144-.072.252-.181.083-.133.19-.242.137-.08.244-.189.094-.122.2-.231.076-.14.183-.249.151-.066.258-.175.061-.154.168-.263l.216-.217c.107-.109.137-.08.245-.189s.092-.124.2-.233.133-.084.241-.193.105-.111.213-.221a1.567,1.567,0,0,1,.235-.2,1.531,1.531,0,0,1,.267-.154,1.554,1.554,0,0,1,.29-.115,1.593,1.593,0,0,1,.312-.015,1.642,1.642,0,0,1,.314,0,1.616,1.616,0,0,1,.306.084,1.633,1.633,0,0,1,.253.189,1.576,1.576,0,0,1,.246.189c.107.108.08.135.187.243s.108.107.215.215.125.09.232.2.136.08.243.188.091.124.2.233.113.1.22.21.108.107.215.216.114.1.221.21.09.125.2.234.1.115.208.224.13.086.237.194.092.123.2.232.1.112.21.221.128.088.235.2.083.132.191.24.118.1.225.206.085.13.192.239.12.1.227.205.073.142.181.251.159.058.266.166.055.161.163.27.132.084.24.193a1.616,1.616,0,0,1,.2.24,1.637,1.637,0,0,1,.164.271,1.66,1.66,0,0,1,.082.307,1.686,1.686,0,0,1-.009.315,1.7,1.7,0,0,1,.012.316,1.638,1.638,0,0,1-.122.291,2.037,2.037,0,0,1-.336.519,1.561,1.561,0,0,1-.248.18c-.086.059-.145.168-.24.208a1.673,1.673,0,0,1-.316.031,1.619,1.619,0,0,1-.3.091,1.6,1.6,0,0,1-.308-.065,1.507,1.507,0,0,1-.282-.124,1.466,1.466,0,0,1-.272-.135c-.085-.058-.208-.074-.282-.149-.105-.107-.062-.15-.168-.257s-.112-.1-.218-.207-.128-.085-.234-.192-.077-.136-.182-.243-.108-.1-.214-.212-.125-.088-.23-.2-.108-.1-.214-.212-.075-.137-.181-.244-.133-.08-.238-.188-.1-.112-.207-.219-.1-.113-.205-.22-.137-.076-.243-.183-.073-.139-.179-.247-.109-.1-.214-.212l-.212-.214c-.106-.107-.093-.12-.2-.228s-.077-.177-.228-.176-.115.076-.221.184-.109.105-.215.213-.1.11-.21.218-.093.121-.2.229l-.213.216c-.106.108-.094.12-.2.228s-.1.117-.2.225-.126.088-.232.2-.1.112-.208.22l-.212.216c-.106.108-.1.109-.211.217s-.09.124-.2.232-.127.087-.234.2-.11.1-.217.212-.1.113-.208.221-.1.112-.209.22-.111.1-.218.211-.116.1-.223.206-.128.087-.235.194-.062.152-.168.26l-.213.216c-.106.108-.147.068-.253.176s-.108.107-.214.215-.111.1-.217.212-.093.121-.2.229-.1.111-.21.219-.073.141-.179.249-.131.084-.237.192-.121.093-.228.2-.067.147-.173.256-.136.079-.243.187-.086.129-.192.237-.131.084-.237.192-.095.12-.2.228-.081.134-.187.242-.151.065-.257.173-.07.144-.176.252-.137.077-.243.185-.083.131-.189.239-.1.119-.2.227-.156.059-.263.167-.091.123-.2.231-.1.115-.206.223-.085.129-.191.237-.136.079-.242.188-.094.12-.2.229-.1.11-.211.218-.1.111-.21.219-.136.079-.242.188-.065.149-.171.257l-.214.216c-.107.109-.13.085-.236.194s-.124.091-.231.2-.067.147-.173.256l-.214.216c-.107.109-.1.115-.206.223s-.117.1-.223.206-.1.114-.208.222-.134.082-.24.191-.111.1-.218.212-.1.118-.2.226-.109.107-.216.216a.5.5,0,0,0-.168.242.514.514,0,0,0-.058.294c0,.154.055.154.055.309s0,.154,0,.309-.045.154-.045.309-.023.154-.023.308.07.154.07.308-.054.154-.054.308-.006.154-.006.309.054.154.054.309-.068.154-.068.308.057.154.057.309.017.154.017.308-.073.154-.073.309.06.154.06.309-.038.154-.038.309.054.154.054.309-.07.154-.07.309.056.154.056.309.011.154.011.309-.061.154-.061.309-.011.154-.011.309.022.154.022.309.046.154.046.308-.039.154-.039.309-.033.154-.033.309.023.154.023.308.037.154.037.309-.039.154-.039.309-.005.154-.005.308.031.154.031.309,0,.154,0,.309.02.154.02.309-.051.154-.051.309.014.154.014.309.011.155.011.309-.033.154-.033.309.018.154.018.309,0,.154,0,.309-.007.154-.007.309.053.154.053.309-.012.155-.012.31-.105.173,0,.284.124.035.274.035.151-.026.3-.026.151-.009.3-.009.15.007.3.007.15.019.3.019.15.006.3.006.15.028.3.028.151-.022.3-.022.15-.04.3-.04.15.008.3.008.151.053.3.053.15-.037.3-.037.151.025.3.025.15-.033.3-.033.151-.021.3-.021.151,0,.3,0,.15.008.3.008.15.041.3.041.151-.038.3-.038.151.054.3.054.151-.041.3-.041.151-.008.3-.008.151-.018.3-.018c.1,0,.191.07.285.087a1.769,1.769,0,0,1,.3.022c.092.034.158.124.241.173a1.772,1.772,0,0,1,.271.124c.073.063.091.182.152.257s.154.128.2.213a1.633,1.633,0,0,1,.07.284c.029.091.116.171.129.269a1.735,1.735,0,0,1,.01.348,1.708,1.708,0,0,1-.072.34,1.678,1.678,0,0,1-.177.3.72.72,0,0,1-.444.49,1.549,1.549,0,0,1-.275.183,1.6,1.6,0,0,1-.3.149,1.606,1.606,0,0,1-.339-.019c-.152,0-.152.067-.3.067s-.152-.029-.3-.029-.152.027-.3.027-.152-.068-.3-.068-.152.067-.3.067-.152-.068-.3-.068-.152.033-.3.033-.153.034-.305.034-.152-.043-.3-.043-.152.05-.3.05-.152-.054-.3-.054-.152.058-.3.058-.152-.015-.3-.015-.152-.056-.3-.056-.152-.007-.3-.007-.152.056-.305.056-.152-.008-.3-.008-.153.016-.305.016l-.305,0c-.152,0-.152-.044-.305-.044s-.153.028-.305.028-.152.017-.3.017-.152-.014-.3-.014-.153.008-.305.008-.153-.038-.306-.038-.153,0-.306,0a2.621,2.621,0,0,1-.306.014,2.626,2.626,0,0,0-.306-.033" transform="translate(-34.016 -28.364)"/><path class="a" d="M121.015,45.2c0,.152.042.152.042.3s-.054.152-.054.3.01.152.01.3-.008.152-.008.3.012.152.012.3.029.152.029.3-.033.152-.033.3.059.152.059.3,0,.152,0,.3-.064.152-.064.3.06.152.06.3-.023.152-.023.3-.016.152-.016.3.008.152.008.3.019.152.019.3-.016.152-.016.3-.017.152-.017.3.035.152.035.3,0,.152,0,.3-.016.152-.016.3.025.152.025.3,0,.152,0,.3-.034.152-.034.3.043.152.043.3-.057.152-.057.3.038.152.038.3-.05.152-.05.3.012.152.012.3,0,.152,0,.3,0,.152,0,.3.033.152.033.3-.043.152-.043.3.075.152.075.3-.052.152-.052.3-.022.152-.022.3.022.152.022.3-.016.152-.016.3.051.152.051.3-.013.152-.013.3-.046.153-.046.305.039.152.039.3-.022.152-.022.3.061.153.061.305-.03.152-.03.3-.006.152-.006.3,0,.152,0,.305.008.152.008.305-.019.153-.019.305.042.153.042.306-.042.153-.042.306a1.776,1.776,0,0,1,.021.318,15.386,15.386,0,0,1-.242.587c-.057.087-.178.124-.251.2a1.626,1.626,0,0,1-.207.234,1.6,1.6,0,0,1-.273.157,1.576,1.576,0,0,1-.309.055,1.5,1.5,0,0,1-.306.021c-.153,0-.153-.005-.305-.005s-.153.012-.306.012-.153.031-.306.031-.153-.032-.305-.032-.153.046-.305.046-.153-.044-.306-.044-.153.028-.306.028-.153.013-.306.013h-.306c-.153,0-.153-.048-.306-.048s-.153.019-.305.019-.153.035-.306.035-.153-.041-.305-.041-.153.018-.306.018-.153.028-.306.028-.153-.031-.306-.031-.153-.009-.306-.009-.153.049-.305.049-.153-.035-.306-.035-.153.007-.306.007-.153.033-.306.033-.153-.071-.306-.071-.153-.008-.306-.008-.153.021-.305.021S111.973,62,111.82,62s-.153.063-.305.063-.153-.006-.306-.006-.153-.013-.306-.013-.153.028-.306.028-.153-.071-.305-.071-.153.033-.305.033-.152-.012-.305-.012-.153,0-.305,0-.152.029-.305.029-.152-.04-.305-.04-.152.052-.3.052-.153-.009-.305-.009-.153-.031-.306-.031-.153-.007-.305-.007-.153.049-.306.049-.153-.069-.306-.069-.153.01-.306.01-.153.034-.306.034-.153-.042-.306-.042-.153.033-.306.033-.153.012-.305.012-.153.006-.305.006-.153.018-.305.018-.153-.044-.306-.044-.153-.026-.306-.026-.153.043-.306.043-.153.015-.306.015-.153-.028-.306-.028-.153-.029-.306-.029-.153.064-.306.064-.153-.037-.305-.037-.153-.014-.306-.014-.153.039-.306.039-.153-.018-.306-.018-.153-.011-.306-.011l-.305,0c-.153,0-.153.013-.306.013s-.153.015-.306.015-.153-.03-.306-.03H99.6c-.153,0-.153.022-.306.022s-.153-.011-.306-.011-.153-.024-.306-.024-.153,0-.306,0-.153.013-.306.013-.153.014-.306.014-.153.033-.306.033-.153-.019-.306-.019-.153.008-.306.008-.153-.026-.306-.026-.153.029-.306.029-.153-.011-.306-.011-.153.011-.306.011-.153-.038-.306-.038S95.159,62,95.006,62s-.153.011-.306.011-.153.061-.306.061h-.306c-.153,0-.153-.015-.306-.015s-.153-.026-.306-.026-.153,0-.306,0-.153.033-.306.033h-.306c-.153,0-.153-.038-.306-.038s-.153-.011-.306-.011-.153-.01-.307-.01-.153.058-.306.058-.153-.006-.306-.006-.153-.036-.306-.036-.153.031-.307.031-.153.029-.307.029-.153-.013-.307-.013S89.646,62,89.492,62a1.418,1.418,0,0,1-.612-.078,1.582,1.582,0,0,1-.276-.15,1.622,1.622,0,0,1-.249-.194,1.648,1.648,0,0,1-.2-.245,1.491,1.491,0,0,1-.257-.9c0-.155.023-.155.023-.309s-.043-.155-.043-.309.04-.155.04-.309,0-.155,0-.309,0-.155,0-.309-.015-.155-.015-.309,0-.155,0-.309.03-.155.03-.309S87.9,57.8,87.9,57.65s.049-.155.049-.309-.059-.154-.059-.309.032-.154.032-.309-.028-.155-.028-.309-.015-.155-.015-.309,0-.155,0-.309.007-.155.007-.309.03-.155.03-.309.017-.155.017-.31v-.309c0-.155-.043-.155-.043-.309s0-.155,0-.31,0-.155,0-.31.017-.155.017-.309.048-.155.048-.31-.01-.155-.01-.31-.055-.155-.055-.31.059-.155.059-.31-.044-.155-.044-.31a1.751,1.751,0,0,1,.046-.314A1.776,1.776,0,0,1,88,51.14a1.736,1.736,0,0,1,.166-.272,1.677,1.677,0,0,1,.194-.247,1.588,1.588,0,0,1,.252-.185,1.526,1.526,0,0,1,.253-.181,1.5,1.5,0,0,1,.291-.126,1.545,1.545,0,0,1,.316.014,1.58,1.58,0,0,1,.306.028,1.613,1.613,0,0,1,.311.046,1.532,1.532,0,0,1,.252.188c.086.058.214.068.288.144a.822.822,0,0,1,.294.558,1.621,1.621,0,0,1,.12.29,1.652,1.652,0,0,1,.026.314c0,.155-.035.155-.035.309s.039.154.039.309-.012.155-.012.309.043.154.043.309-.017.154-.017.309-.051.155-.051.309.033.154.033.309.016.154.016.309.018.155.018.309-.035.154-.035.309.036.155.036.309,0,.155,0,.309-.01.155-.01.309-.063.155-.063.309.048.155.048.309.013.155.013.31.007.155.007.31-.053.154-.053.309,0,.155,0,.31.043.155.043.31-.013.155-.013.31,0,.155,0,.31-.125.216-.017.326.169.022.321.022.152-.054.3-.054.152.028.3.028.152-.024.3-.024.152-.016.3-.016.152.019.3.019.152.042.3.042.152-.053.3-.053.152.058.3.058.152-.036.3-.036.152-.017.3-.017.152.006.3.006.152.045.3.045.152-.042.3-.042.152.033.3.033.152-.058.3-.058.152.037.3.037.152.01.3.01.152-.055.3-.055.152.015.3.015.152.016.3.016.152.035.3.035.152,0,.3,0,.152-.012.3-.012.152-.058.3-.058.152,0,.3,0,.152.053.3.053.152.013.3.013.152.008.3.008.152-.017.3-.017.152-.043.3-.043.152.046.3.046.152-.062.3-.062.152.055.3.055.152-.015.3-.015.152.02.3.02.152.013.3.013.152-.038.3-.038.152-.019.3-.019.152.009.3.009.152.023.3.023.152.026.3.026.152-.041.3-.041.152.041.3.041.152-.022.3-.022.152-.027.3-.027.152.042.3.042.152-.071.3-.071.152.047.3.047.152,0,.3,0h.3c.152,0,.152-.02.3-.02s.152.015.3.015.152-.044.3-.044.152,0,.3,0,.152.043.3.043.152.017.3.017.152.014.3.014.152-.036.3-.036.152.018.3.018.152-.007.3-.007.152.006.3.006.152,0,.3,0,.152-.05.3-.05.152.04.3.04.152.023.3.023.152-.057.3-.057.152.052.3.052.152-.012.3-.012.152-.014.3-.014.152-.032.3-.032.152.017.3.017.152-.022.3-.022.152.051.3.051.152-.033.3-.033.153-.019.305-.019.152.038.3.038.153-.01.305-.01.152.006.3.006.153-.018.305-.018.153.035.306.035.152,0,.3,0,.152-.006.3-.006.153-.041.305-.041.153.024.306.024.153.034.305.034h.306c.153,0,.193.071.3-.038s.013-.149.013-.3-.038-.154-.038-.309.029-.154.029-.309.035-.154.035-.308,0-.154,0-.308-.048-.154-.048-.308-.01-.154-.01-.309.018-.154.018-.309-.016-.154-.016-.309,0-.154,0-.308.027-.154.027-.308,0-.154,0-.309-.021-.154-.021-.309.056-.154.056-.308-.063-.154-.063-.309.041-.154.041-.309.012-.154.012-.309,0-.154,0-.309.012-.154.012-.309-.013-.154-.013-.309-.048-.154-.048-.309-.012-.154-.012-.309.023-.154.023-.308.046-.154.046-.309-.047-.154-.047-.309.031-.154.031-.308-.02-.154-.02-.308.024-.154.024-.309,0-.154,0-.309.02-.154.02-.309-.071-.154-.071-.309.041-.154.041-.309-.011-.154-.011-.309,0-.154,0-.309.018-.154.018-.309-.038-.154-.038-.309.039-.154.039-.309-.012-.154-.012-.309.023-.154.023-.309.015-.155.015-.309-.074-.155-.074-.309.089-.165.031-.309-.127-.086-.233-.194-.056-.157-.162-.265-.119-.1-.225-.2-.144-.071-.25-.179-.11-.1-.216-.213-.075-.139-.181-.247-.119-.1-.225-.2-.072-.142-.178-.25-.142-.073-.248-.181-.087-.127-.193-.235-.089-.125-.2-.233-.11-.1-.216-.212-.134-.08-.241-.188-.083-.131-.189-.24-.1-.11-.211-.218-.117-.1-.224-.206-.095-.119-.2-.228-.126-.089-.232-.2-.125-.089-.232-.2-.081-.133-.187-.241-.118-.1-.224-.2-.114-.1-.221-.209-.1-.111-.21-.22-.111-.1-.217-.212-.082-.132-.188-.24-.109-.105-.215-.214-.122-.093-.228-.2-.1-.112-.209-.22-.124-.091-.231-.2-.1-.11-.211-.218-.081-.134-.187-.242-.135-.079-.242-.188-.109-.106-.215-.214-.065-.149-.171-.257-.1-.113-.208-.221-.129-.086-.235-.194-.094-.12-.2-.228-.137-.077-.243-.185l-.212-.216c-.107-.108-.095-.119-.2-.228s-.127-.088-.233-.2-.08-.134-.186-.242l-.212-.217c-.106-.108-.1-.115-.206-.223s-.093-.121-.2-.229-.115-.1-.221-.208-.11-.1-.216-.213-.119-.1-.225-.2-.1-.117-.2-.225-.122-.093-.229-.2-.1-.114-.207-.222-.1-.115-.206-.224-.132-.083-.239-.191-.076-.138-.183-.247-.125-.09-.232-.2-.077-.137-.184-.246-.143-.072-.25-.18-.064-.15-.171-.258-.154-.061-.261-.17-.086-.129-.192-.237-.129-.087-.235-.2-.1-.116-.207-.225-.046-.218-.2-.218-.1.1-.21.208-.123.093-.23.2-.075.141-.182.25-.157.061-.264.17-.1.114-.21.223-.085.132-.192.241l-.215.217c-.107.109-.124.093-.231.2s-.061.154-.169.263-.13.087-.237.2-.111.106-.218.215-.083.134-.19.243l-.215.219c-.107.109-.11.107-.217.216s-.112.1-.22.213-.1.115-.209.224-.128.089-.236.2-.084.132-.192.242-.121.1-.228.205-.11.107-.217.216-.112.1-.22.214l-.215.218c-.108.109-.112.1-.22.214s-.095.122-.2.231-.132.085-.24.194-.082.134-.189.243-.138.079-.245.188-.071.145-.178.254-.144.073-.252.182-.093.124-.2.233-.133.084-.24.193-.068.147-.176.256-.14.077-.247.186-.086.13-.194.24-.084.133-.191.242-.133.084-.24.193-.128.089-.236.2-.1.12-.2.23-.085.131-.193.24-.122.1-.23.2-.087.13-.194.239-.119.1-.227.207-.086.131-.193.24-.112.105-.219.215-.154.063-.262.173-.089.128-.2.237-.1.115-.209.225-.1.122-.2.231-.121.1-.228.206-.088.129-.2.239-.141.077-.249.187-.233.076-.175.218.124.035.277.035.153-.006.307-.006.153-.021.307-.021.153.043.307.043.153-.078.306-.078.153.054.306.054.153-.029.307-.029h.306c.153,0,.153.037.306.037s.154-.011.307-.011.153-.032.306-.032.154.051.307.051.153-.008.307-.008.154.016.307.016.154-.051.307-.051.154.026.307.026.154-.03.307-.03.153.053.307.053.153-.058.307-.058.154.05.307.05.154.013.307.013.154-.016.307-.016.154-.062.308-.062.277.192.331.048-.151-.106-.263-.219l-.225-.226c-.112-.113-.071-.154-.182-.267s-.132-.093-.244-.206-.13-.1-.242-.209-.08-.145-.192-.258-.127-.1-.239-.212-.1-.125-.213-.239-.115-.11-.228-.224a1.582,1.582,0,0,1-.184-.249c-.058-.088-.155-.155-.194-.252a1.635,1.635,0,0,1-.072-.309,1.656,1.656,0,0,1-.006-.314,1.751,1.751,0,0,1-.014-.317,1.673,1.673,0,0,1,.087-.307,1.654,1.654,0,0,1,.142-.288c.058-.087.184-.119.259-.194a1.556,1.556,0,0,1,.226-.2,1.528,1.528,0,0,1,.262-.157,1.571,1.571,0,0,1,.287-.124,1.655,1.655,0,0,1,.312.027,1.674,1.674,0,0,1,.312-.027,1.6,1.6,0,0,1,.282.136,1.518,1.518,0,0,1,.263.152,1.539,1.539,0,0,1,.23.2c.107.109.13.027.266.165.06.061.095.171.176.254.065.066.122.154.2.232s.194.087.269.162l.213.217c.069.07.1.179.177.253s.137.148.209.221.183.1.255.177.087.2.159.271.166.122.237.194.166.122.238.194.1.183.176.255.162.128.233.2.122.167.193.239.167.124.237.2.173.119.243.19.1.193.169.263.186.108.254.178.129.166.2.235.161.139.226.205c.082.083.163.146.223.207.135.136.212.216.213.218a1.721,1.721,0,0,1,.2.248,1.7,1.7,0,0,1,.151.284,1.769,1.769,0,0,1,.027.321,1.58,1.58,0,0,1,.026.308,1.6,1.6,0,0,1-.017.307,1.549,1.549,0,0,1-.108.288,1.085,1.085,0,0,1-.275.562,1.671,1.671,0,0,1-.265.176,1.653,1.653,0,0,1-.261.182,1.96,1.96,0,0,1-.623.112c-.153,0-.153-.013-.305-.013s-.153-.016-.306-.016-.153.016-.306.016-.153-.013-.306-.013-.152-.036-.305-.036-.153.037-.305.037-.153.027-.306.027-.153-.018-.305-.018-.153.008-.306.008-.153.02-.306.02-.153-.043-.305-.043-.153.021-.305.021-.153.008-.305.008-.153-.052-.306-.052-.153.008-.306.008-.153.019-.306.019-.153-.024-.306-.024-.153.022-.305.022-.153.015-.306.015h-.306c-.153,0-.153-.024-.306-.024s-.153.008-.306.008-.153.011-.306.011-.153.027-.306.027-.153-.024-.306-.024-.153-.034-.306-.034-.153.01-.306.01-.153.019-.306.019-.153-.021-.306-.021-.152.017-.305.017S95.155,46.8,95,46.8s-.153-.02-.306-.02-.153.047-.305.047-.153-.011-.306-.011-.153-.021-.306-.021-.153.018-.305.018-.153-.043-.306-.043-.153.008-.306.008-.153.051-.306.051-.153.01-.306.01h-.306c-.153,0-.153-.009-.306-.009s-.153-.057-.306-.057-.153.025-.306.025-.153.043-.306.043-.153-.019-.306-.019-.153.02-.306.02-.154-.032-.307-.032-.153.009-.307.009a1.6,1.6,0,0,1-.312-.028,10.024,10.024,0,0,0-.565-.257,1.218,1.218,0,0,1-.568-.725,1.591,1.591,0,0,1-.1-.3,1.619,1.619,0,0,1-.04-.312,1.727,1.727,0,0,1,.005-.32,3.58,3.58,0,0,0,.249-.588,1.629,1.629,0,0,1,.23-.22s.068-.084.206-.225c.06-.061.143-.122.226-.205.065-.066.128-.146.206-.225s.154-.125.23-.2.141-.139.216-.215.116-.165.19-.24.146-.136.22-.211.146-.138.219-.213.125-.159.2-.233.164-.12.237-.194.113-.171.185-.245.161-.125.233-.2.116-.169.188-.243.139-.147.211-.22.185-.1.257-.175.135-.151.207-.225.129-.157.2-.23.127-.16.2-.233.174-.114.245-.187.135-.152.206-.225.14-.147.212-.22.1-.184.174-.257.168-.119.24-.192.12-.167.191-.24.159-.127.231-.2.174-.113.245-.185.1-.184.174-.256.18-.108.251-.18.094-.192.166-.264.162-.125.234-.2.152-.136.223-.208.156-.131.227-.2.123-.164.194-.236.139-.149.211-.221.145-.143.216-.216.149-.139.221-.212.123-.165.195-.238.151-.137.223-.21.164-.125.235-.2.141-.147.213-.22l.214-.218c.072-.073.158-.131.229-.2s.124-.165.195-.237.119-.169.191-.241.173-.116.244-.189.152-.137.223-.21.145-.144.216-.216.129-.159.2-.231.11-.178.181-.25.164-.126.235-.2.153-.136.224-.208.152-.137.223-.209.132-.156.2-.228.115-.173.186-.245.165-.125.236-.2.163-.127.234-.2.129-.161.2-.233.153-.137.223-.209.111-.179.182-.25.192-.1.262-.17.122-.168.192-.239l.214-.217c.073-.075.13-.161.2-.231s.186-.107.255-.178.123-.17.191-.24.138-.157.206-.226.177-.121.244-.189.113-.187.178-.252c.082-.084.178-.133.237-.194.139-.141.07-.144.177-.253a1.67,1.67,0,0,1,.259-.178,1.556,1.556,0,0,1,.278-.135,1.62,1.62,0,0,1,.282-.144,5,5,0,0,0,.633,0,1.613,1.613,0,0,1,.287.134,1.516,1.516,0,0,1,.268.152,1.6,1.6,0,0,1,.22.215c.107.109.147.07.253.179s.112.1.219.212.11.105.217.214.093.123.2.231.116.1.222.209.06.155.167.263.151.065.258.173.068.146.175.255.1.115.208.223.117.1.224.207l.213.218c.107.109.12.1.227.2s.1.12.2.229.121.1.228.2.083.132.19.241.128.088.235.2.117.1.224.207.092.123.2.232.119.1.226.205.126.09.233.2.067.148.174.257.124.092.231.2.088.127.2.236.115.1.222.21.127.089.235.2.114.1.221.21.11.105.218.214.111.1.218.214.059.156.166.265.162.055.269.164.058.157.165.266.138.078.245.187.109.107.216.215.094.122.2.23.124.092.231.2.1.118.2.227.119.1.226.206l.214.218c.107.109.075.14.182.249s.141.076.247.185.111.1.218.214.063.152.17.261.126.09.233.2.1.119.2.228.094.121.2.23.114.1.221.21.133.083.24.192.082.134.189.243.133.083.24.192.087.129.194.237.113.1.22.212.1.119.2.228.13.087.237.2.117.1.224.208.1.112.211.221.088.128.2.236.093.124.2.232.149.067.257.176.068.148.175.257.145.072.253.181.1.115.208.224.1.118.205.227.094.122.2.231.11.106.217.215.108.108.215.217.122.095.23.2.123.094.23.2l.214.219c.108.109.06.157.167.266s.106.111.213.22a1.545,1.545,0,0,1,.21.228,1.655,1.655,0,0,1,.178.262,1.739,1.739,0,0,1,.031.317,1.541,1.541,0,0,1,.043.3" transform="translate(-72.89 -28.346)"/><path class="a" d="M120.47,107.984a1.378,1.378,0,0,1-.312-.046,1.441,1.441,0,0,1-.312-.073,1.425,1.425,0,0,1-.269-.176,1.455,1.455,0,0,1-.234-.221,1.429,1.429,0,0,1-.156-.281,1.39,1.39,0,0,1-.1-.3,1.426,1.426,0,0,1-.073-.316,1.447,1.447,0,0,1,.047-.322,1.4,1.4,0,0,1,.138-.29,1.377,1.377,0,0,1,.17-.266c.068-.084.1-.2.187-.269a1.5,1.5,0,0,1,.287-.156,1.471,1.471,0,0,1,.316-.063c.1-.024.2-.116.312-.116a1.492,1.492,0,0,1,.327.051,1.458,1.458,0,0,1,.3.12.943.943,0,0,1,.518.395,1.49,1.49,0,0,1,.147.292,1.42,1.42,0,0,1,.1.3,1.483,1.483,0,0,1,.085.319,1.52,1.52,0,0,1-.039.33,1.475,1.475,0,0,1-.13.3.735.735,0,0,1-.428.48,1.48,1.48,0,0,1-.251.209,1.5,1.5,0,0,1-.307.122,1.622,1.622,0,0,1-.33-.031" transform="translate(-95.364 -83.736)"/><path class="a" d="M167.171,108.106a1.566,1.566,0,0,1-.33.016,1.5,1.5,0,0,1-.3-.132,1.921,1.921,0,0,1-.693-.675,1.522,1.522,0,0,1-.043-.326c-.024-.1-.107-.2-.107-.312a4.962,4.962,0,0,1,.162-.632,1.483,1.483,0,0,1,.208-.248,1.442,1.442,0,0,1,.2-.251.893.893,0,0,1,.581-.275,1.379,1.379,0,0,1,.64.008,1.413,1.413,0,0,1,.309.095,1.448,1.448,0,0,1,.258.193.821.821,0,0,1,.433.476,1.488,1.488,0,0,1,.062.32,1.465,1.465,0,0,1,.084.315,1.585,1.585,0,0,1,0,.335,1.525,1.525,0,0,1-.13.309c-.047.1-.176.144-.243.228a1.476,1.476,0,0,1-.189.263,1.066,1.066,0,0,1-.9.295" transform="translate(-129.058 -83.844)"/><path class="a" d="M138.951,121.752c-.106,0-.209-.057-.315-.067s-.2-.048-.31-.066-.209-.021-.312-.046-.227.023-.328-.009-.181-.127-.28-.166-.211-.046-.307-.092-.158-.154-.251-.206-.212-.058-.3-.117-.134-.174-.218-.24-.174-.117-.254-.188a.992.992,0,0,1-.223-.22,1.043,1.043,0,0,1-.147-.289,1.069,1.069,0,0,1,.031-.322.964.964,0,0,1,.082-.3.992.992,0,0,1,.141-.287,1.026,1.026,0,0,1,.239-.157.64.64,0,0,1,.53-.151.956.956,0,0,1,.352.077,1.017,1.017,0,0,1,.334.155c.072.064.117.168.2.224s.216.018.3.063.146.14.235.176a2.594,2.594,0,0,0,.282.07c.093.025.178.105.273.119s.2-.047.3-.045c.024,0,.024.028.048.028a2.46,2.46,0,0,0,.28-.034,2.566,2.566,0,0,0,.267-.088,2.632,2.632,0,0,0,.278-.04c.088-.031.209,0,.293-.038a2.566,2.566,0,0,0,.248-.148c.08-.051.125-.155.2-.214a1,1,0,0,1,.324-.116.916.916,0,0,1,.324-.068.942.942,0,0,1,.284.04,1.008,1.008,0,0,1,.284.086,1.032,1.032,0,0,1,.193.227c.07.086.225.125.264.223a1.163,1.163,0,0,1,0,.34,1.087,1.087,0,0,1,0,.328.725.725,0,0,1-.362.539c-.075.061-.137.144-.215.2s-.152.127-.235.178-.176.09-.262.135-.206.021-.295.061-.144.162-.235.2-.2.038-.288.067-.187.059-.282.082-.208-.051-.3-.034-.181.093-.277.1-.2-.041-.293-.036c-.062,0-.123.05-.186.05a.492.492,0,0,1-.1.013" transform="translate(-107.408 -93.653)"/></g></svg>